<svg width="48" height="12" viewBox="0 0 48 12" fill="none" xmlns="http://www.w3.org/2000/svg">
<path d="M3.588 9C2.572 9 1.832 8.784 1.368 8.352C0.904 7.912 0.672 7.268 0.672 6.42V3.18C0.672 2.332 0.904 1.692 1.368 1.26C1.832 0.819999 2.572 0.599999 3.588 0.599999H6.42V1.716H3.588C3.076 1.716 2.696 1.836 2.448 2.076C2.208 2.308 2.088 2.676 2.088 3.18V4.248H5.868V5.352H2.088V6.42C2.088 6.924 2.208 7.296 2.448 7.536C2.696 7.768 3.076 7.884 3.588 7.884H6.468V9H3.588ZM12.7874 7.5C12.7874 7.692 12.8234 7.848 12.8954 7.968C12.9674 8.088 13.0994 8.224 13.2914 8.376L12.4274 9.144C11.9954 8.92 11.7154 8.6 11.5874 8.184C11.3794 8.504 11.1194 8.744 10.8074 8.904C10.5034 9.064 10.1314 9.144 9.69141 9.144C8.93941 9.144 8.33941 8.896 7.89141 8.4C7.45141 7.896 7.23141 7.22 7.23141 6.372V5.988C7.23141 5.468 7.32741 5 7.51941 4.584C7.71141 4.16 7.99141 3.828 8.35941 3.588C8.72741 3.34 9.17141 3.216 9.69141 3.216C10.4834 3.216 11.0794 3.476 11.4794 3.996V1.74C11.4794 1.548 11.4434 1.392 11.3714 1.272C11.2994 1.152 11.1674 1.016 10.9754 0.864L11.8514 0.107999C12.2034 0.291999 12.4474 0.503999 12.5834 0.744C12.7194 0.976 12.7874 1.3 12.7874 1.716V7.5ZM11.4794 5.328C11.2634 4.6 10.7834 4.236 10.0394 4.236C9.56741 4.236 9.19941 4.404 8.93541 4.74C8.67141 5.068 8.53941 5.484 8.53941 5.988V6.372C8.53941 6.876 8.67141 7.296 8.93541 7.632C9.19941 7.96 9.56741 8.124 10.0394 8.124C10.7834 8.124 11.2634 7.76 11.4794 7.032V5.328ZM19.4709 7.488C19.4709 7.68 19.5069 7.84 19.5789 7.968C19.6509 8.088 19.7869 8.22 19.9869 8.364L19.1109 9.12C18.8469 8.984 18.6469 8.84 18.5109 8.688C18.3749 8.528 18.2789 8.336 18.2229 8.112C18.0389 8.432 17.7989 8.684 17.5029 8.868C17.2069 9.052 16.8469 9.144 16.4229 9.144C15.8069 9.144 15.3309 8.976 14.9949 8.64C14.6589 8.296 14.4909 7.808 14.4909 7.176V3.36H15.7989V7.068C15.7989 7.396 15.8869 7.656 16.0629 7.848C16.2389 8.032 16.4869 8.124 16.8069 8.124C17.1429 8.124 17.4229 8.008 17.6469 7.776C17.8709 7.544 18.0429 7.236 18.1629 6.852V3.36H19.4709V7.488ZM24.3172 3.216C24.8452 3.216 25.2932 3.344 25.6612 3.6C26.0292 3.848 26.3052 4.184 26.4892 4.608C26.6732 5.024 26.7652 5.484 26.7652 5.988V6.372C26.7652 6.876 26.6732 7.34 26.4892 7.764C26.3052 8.18 26.0292 8.516 25.6612 8.772C25.2932 9.02 24.8452 9.144 24.3172 9.144C23.8532 9.144 23.4812 9.076 23.2012 8.94C22.9292 8.796 22.7012 8.596 22.5172 8.34V11.628H21.2092V4.86C21.2092 4.668 21.1692 4.512 21.0892 4.392C21.0172 4.264 20.8892 4.128 20.7052 3.984L21.5812 3.216C21.8292 3.344 22.0212 3.488 22.1572 3.648C22.2932 3.8 22.3852 3.98 22.4332 4.188C22.8492 3.54 23.4772 3.216 24.3172 3.216ZM25.4572 5.988C25.4572 5.484 25.3252 5.068 25.0612 4.74C24.7972 4.404 24.4292 4.236 23.9572 4.236C23.2212 4.236 22.7412 4.6 22.5172 5.328V7.032C22.7412 7.76 23.2212 8.124 23.9572 8.124C24.4292 8.124 24.7972 7.96 25.0612 7.632C25.3252 7.296 25.4572 6.876 25.4572 6.372V5.988ZM29.0595 9.144C28.7075 8.96 28.4595 8.748 28.3155 8.508C28.1795 8.268 28.1115 7.94 28.1115 7.524V1.74C28.1115 1.54 28.0755 1.38 28.0035 1.26C27.9315 1.14 27.7995 1.008 27.6075 0.864L28.4835 0.0959995C28.8355 0.279999 29.0795 0.492 29.2155 0.732C29.3515 0.964 29.4195 1.292 29.4195 1.716V7.5C29.4195 7.692 29.4555 7.848 29.5275 7.968C29.6075 8.088 29.7435 8.224 29.9355 8.376L29.0595 9.144ZM35.7664 7.5C35.7664 7.692 35.8024 7.848 35.8744 7.968C35.9464 8.088 36.0784 8.224 36.2704 8.376L35.3944 9.144C34.9464 8.92 34.6624 8.624 34.5424 8.256C34.3584 8.512 34.1064 8.724 33.7864 8.892C33.4664 9.06 33.0864 9.144 32.6464 9.144C32.0704 9.144 31.6144 9 31.2784 8.712C30.9424 8.416 30.7744 8 30.7744 7.464C30.7744 6.848 30.9864 6.412 31.4104 6.156C31.8344 5.9 32.3744 5.736 33.0304 5.664L33.7264 5.592C33.9824 5.568 34.1624 5.524 34.2664 5.46C34.3784 5.388 34.4424 5.284 34.4584 5.148C34.4104 4.476 34.0064 4.14 33.2464 4.14C32.9504 4.14 32.6944 4.192 32.4784 4.296C32.2704 4.392 32.0704 4.556 31.8784 4.788L30.9784 4.152C31.1944 3.856 31.4824 3.628 31.8424 3.468C32.2024 3.3 32.6704 3.216 33.2464 3.216C34.0864 3.216 34.7144 3.392 35.1304 3.744C35.5544 4.088 35.7664 4.592 35.7664 5.256V7.5ZM32.9704 8.184C33.4344 8.184 33.7984 8.068 34.0624 7.836C34.3264 7.604 34.4584 7.312 34.4584 6.96V6.312C34.3064 6.376 34.0424 6.428 33.6664 6.468L33.1264 6.528C32.3904 6.608 32.0224 6.9 32.0224 7.404C32.0224 7.66 32.1024 7.856 32.2624 7.992C32.4304 8.12 32.6664 8.184 32.9704 8.184ZM39.7065 9.144C38.8905 9.144 38.2625 8.956 37.8225 8.58C37.3825 8.204 37.1625 7.664 37.1625 6.96V5.4C37.1625 4.704 37.3825 4.168 37.8225 3.792C38.2705 3.408 38.8985 3.216 39.7065 3.216C40.7065 3.216 41.4385 3.532 41.9025 4.164L41.0025 4.896C40.8025 4.656 40.6065 4.488 40.4145 4.392C40.2305 4.288 39.9945 4.236 39.7065 4.236C39.3145 4.236 39.0105 4.34 38.7945 4.548C38.5785 4.748 38.4705 5.032 38.4705 5.4V6.96C38.4705 7.336 38.5745 7.624 38.7825 7.824C38.9985 8.024 39.3065 8.124 39.7065 8.124C40.0025 8.124 40.2465 8.076 40.4385 7.98C40.6385 7.876 40.8305 7.708 41.0145 7.476L41.9145 8.208C41.6825 8.52 41.3905 8.756 41.0385 8.916C40.6865 9.068 40.2425 9.144 39.7065 9.144ZM45.3789 8.136C45.6909 8.136 45.9509 8.096 46.1589 8.016C46.3749 7.928 46.5909 7.78 46.8069 7.572L47.5869 8.292C47.3469 8.572 47.0469 8.784 46.6869 8.928C46.3269 9.072 45.8829 9.144 45.3549 9.144C44.4909 9.144 43.8509 8.968 43.4349 8.616C43.0189 8.256 42.8109 7.708 42.8109 6.972V5.22C42.8109 4.604 43.0269 4.12 43.4589 3.768C43.8989 3.408 44.4989 3.228 45.2589 3.228C46.0349 3.228 46.6389 3.42 47.0709 3.804C47.5029 4.18 47.7189 4.724 47.7189 5.436C47.7189 5.764 47.6869 6.02 47.6229 6.204C47.5589 6.388 47.4429 6.524 47.2749 6.612C47.1069 6.692 46.8589 6.732 46.5309 6.732H44.1069V6.972C44.1069 7.748 44.5309 8.136 45.3789 8.136ZM45.2469 4.224C44.8949 4.224 44.6149 4.324 44.4069 4.524C44.2069 4.724 44.1069 4.988 44.1069 5.316V5.832H45.8229C46.0469 5.832 46.2029 5.796 46.2909 5.724C46.3789 5.644 46.4229 5.508 46.4229 5.316C46.4229 4.964 46.3189 4.696 46.1109 4.512C45.9109 4.32 45.6229 4.224 45.2469 4.224Z" fill="#374151"/>
</svg>
