<svg width="839" height="799" viewBox="0 0 839 799" fill="none" xmlns="http://www.w3.org/2000/svg">
<circle cx="479" cy="406" r="360" fill="white"/>
<path d="M761 564.047H197.445V564.327H761V564.047Z" fill="#EBEBEB"/>
<path d="M699.302 576.849H641.932V577.129H699.302V576.849Z" fill="#EBEBEB"/>
<path d="M309.784 573.54H256.573V573.819H309.784V573.54Z" fill="#EBEBEB"/>
<path d="M646.035 571.661H624.406V571.941H646.035V571.661Z" fill="#EBEBEB"/>
<path d="M570.766 579.074H554.897V579.353H570.766V579.074Z" fill="#EBEBEB"/>
<path d="M544.854 579.074H504.909V579.353H544.854V579.074Z" fill="#EBEBEB"/>
<path d="M481.713 574.356H417.479V574.635H481.713V574.356Z" fill="#EBEBEB"/>
<path d="M464.57 514.183H246.937C245.232 514.18 243.598 513.506 242.393 512.309C241.189 511.112 240.512 509.49 240.512 507.799V204.328C240.527 202.647 241.21 201.039 242.413 199.854C243.616 198.669 245.242 198.003 246.937 198H464.57C466.277 198 467.914 198.673 469.121 199.87C470.328 201.067 471.006 202.691 471.006 204.384V507.799C471.006 509.492 470.328 511.116 469.121 512.313C467.914 513.51 466.277 514.183 464.57 514.183V514.183ZM246.937 198.224C245.307 198.227 243.744 198.871 242.592 200.016C241.441 201.16 240.794 202.711 240.794 204.328V507.799C240.794 509.416 241.441 510.967 242.592 512.111C243.744 513.256 245.307 513.9 246.937 513.903H464.57C466.202 513.9 467.765 513.256 468.919 512.112C470.072 510.968 470.721 509.417 470.724 507.799V204.328C470.721 202.71 470.072 201.159 468.919 200.015C467.765 198.871 466.202 198.227 464.57 198.224H246.937Z" fill="#EBEBEB"/>
<path d="M708.375 514.183H490.73C489.024 514.18 487.389 513.506 486.183 512.31C484.976 511.113 484.297 509.491 484.294 507.799V204.328C484.312 202.646 484.998 201.038 486.202 199.853C487.407 198.669 489.034 198.003 490.73 198H708.375C710.068 198.006 711.691 198.673 712.892 199.858C714.092 201.042 714.773 202.649 714.788 204.328V507.799C714.788 509.488 714.113 511.108 712.911 512.305C711.709 513.502 710.078 514.177 708.375 514.183V514.183ZM490.73 198.224C489.099 198.227 487.535 198.871 486.382 200.015C485.229 201.159 484.579 202.71 484.576 204.328V507.799C484.579 509.417 485.229 510.968 486.382 512.112C487.535 513.256 489.099 513.9 490.73 513.903H708.375C710.006 513.9 711.57 513.256 712.723 512.112C713.877 510.968 714.526 509.417 714.529 507.799V204.328C714.526 202.71 713.877 201.159 712.723 200.015C711.57 198.871 710.006 198.227 708.375 198.224H490.73Z" fill="#EBEBEB"/>
<path d="M637.435 232.29H522.695V564.047H637.435V232.29Z" fill="#EBEBEB"/>
<path d="M629.692 557.339V238.999H530.438V557.339H629.692Z" fill="#FAFAFA"/>
<path d="M519.258 232.29H404.518V564.047H519.258V232.29Z" fill="#EBEBEB"/>
<path d="M519.257 562.75H522.695V233.599H519.257V562.75Z" fill="#E0E0E0"/>
<path d="M511.514 557.328V238.987H412.261V557.328H511.514Z" fill="#FAFAFA"/>
<path d="M689.845 229.797H352.107C351.711 229.794 351.331 229.637 351.05 229.358C350.77 229.08 350.611 228.704 350.608 228.31V228.31C350.611 227.917 350.77 227.54 351.05 227.262C351.331 226.984 351.711 226.826 352.107 226.823H689.845C690.242 226.826 690.622 226.984 690.902 227.262C691.183 227.54 691.342 227.917 691.345 228.31V228.31C691.342 228.704 691.183 229.08 690.902 229.358C690.622 229.637 690.242 229.794 689.845 229.797V229.797Z" fill="#E0E0E0"/>
<path d="M629.692 245.338V238.999H530.438V245.338H629.692Z" fill="#E0E0E0"/>
<path d="M629.692 249.676V238.987H530.438V249.676H629.692Z" fill="#E0E0E0"/>
<path d="M511.514 262.343V238.987H412.261V262.343H511.514Z" fill="#E0E0E0"/>
<g opacity="0.8">
<path opacity="0.8" d="M652.166 219.869H620.382V559.966H652.166V219.869Z" fill="#F5F5F5"/>
<path opacity="0.8" d="M643.78 219.869H628.779V559.966H643.78V219.869Z" fill="#F0F0F0"/>
<path opacity="0.8" d="M669.22 219.869H637.435V559.966H669.22V219.869Z" fill="#F5F5F5"/>
<path opacity="0.8" d="M660.834 219.869H645.832V559.966H660.834V219.869Z" fill="#F0F0F0"/>
<path opacity="0.8" d="M685.112 219.869H653.327V559.966H685.112V219.869Z" fill="#F5F5F5"/>
</g>
<g opacity="0.8">
<path opacity="0.8" d="M401.97 219.869H355.838V559.966H401.97V219.869Z" fill="#F5F5F5"/>
<path opacity="0.8" d="M389.786 219.869H368.011V559.966H389.786V219.869Z" fill="#F0F0F0"/>
<path opacity="0.8" d="M426.71 219.869H380.578V559.966H426.71V219.869Z" fill="#F5F5F5"/>
<path opacity="0.8" d="M414.526 219.869H392.751V559.966H414.526V219.869Z" fill="#F0F0F0"/>
<path opacity="0.8" d="M449.771 219.869H403.639V559.966H449.771V219.869Z" fill="#F5F5F5"/>
</g>
<path d="M333.938 254.718H259.515V420.938H333.938V254.718Z" fill="#F0F0F0"/>
<path d="M333.938 420.949H336.283V254.729H333.938V420.949Z" fill="#E6E6E6"/>
<path d="M327.176 414.23V261.427H266.278V414.23H327.176Z" fill="#FAFAFA"/>
<path d="M338.627 503.304H262.232C260.552 503.301 258.941 502.639 257.752 501.461C256.563 500.284 255.892 498.687 255.886 497.021V497.021C255.892 495.354 256.563 493.758 257.752 492.58C258.941 491.403 260.552 490.74 262.232 490.737H338.627C340.305 490.743 341.913 491.407 343.1 492.584C344.286 493.761 344.956 495.356 344.961 497.021V497.021C344.956 498.685 344.286 500.28 343.1 501.457C341.913 502.634 340.305 503.298 338.627 503.304Z" fill="#F5F5F5"/>
<path d="M280.603 503.304H268.059L253.801 564.047H266.334L280.603 503.304Z" fill="#E6E6E6"/>
<path d="M305.625 503.304H293.092L286.07 564.047H298.604L305.625 503.304Z" fill="#E6E6E6"/>
<path d="M320.255 503.304H332.789L347.058 564.047H334.513L320.255 503.304Z" fill="#E6E6E6"/>
<path d="M479.223 614.538C599.916 614.538 697.758 608.872 697.758 601.882C697.758 594.892 599.916 589.226 479.223 589.226C358.529 589.226 260.688 594.892 260.688 601.882C260.688 608.872 358.529 614.538 479.223 614.538Z" fill="#F5F5F5"/>
<path d="M552 470.087H455.824C454 470.087 452.521 471.554 452.521 473.363V477.119C452.521 478.929 454 480.395 455.824 480.395H552C553.824 480.395 555.302 478.929 555.302 477.119V473.363C555.302 471.554 553.824 470.087 552 470.087Z" fill="#263238"/>
<path d="M551.087 595.174H555.302L550.456 480.395H544.617L551.087 595.174Z" fill="#374151"/>
<path opacity="0.6" d="M551.087 595.174H555.302L550.456 480.395H544.617L551.087 595.174Z" fill="white"/>
<path d="M512.281 595.174H508.065L512.912 480.395H518.75L512.281 595.174Z" fill="#374151"/>
<path opacity="0.6" d="M512.281 595.174H508.065L512.912 480.395H518.75L512.281 595.174Z" fill="white"/>
<path d="M495.555 595.174H499.77L494.912 480.395H489.085L495.555 595.174Z" fill="#374151"/>
<path opacity="0.6" d="M495.555 595.174H499.77L494.912 480.395H489.085L495.555 595.174Z" fill="white"/>
<path d="M456.737 595.174H452.521L457.379 480.395H463.206L456.737 595.174Z" fill="#374151"/>
<path opacity="0.6" d="M456.737 595.174H452.521L457.379 480.395H463.206L456.737 595.174Z" fill="white"/>
<g opacity="0.3">
<path opacity="0.3" d="M550.456 480.384H544.617L544.888 485.27H550.659L550.456 480.384Z" fill="#374151"/>
<path opacity="0.3" d="M512.709 485.27H518.468L518.75 480.384H512.912L512.709 485.27Z" fill="#374151"/>
<path opacity="0.3" d="M489.085 480.384L489.355 485.27H495.126L494.912 480.384H489.085Z" fill="#374151"/>
<path opacity="0.3" d="M457.165 485.27H462.947L463.218 480.384H457.379L457.165 485.27Z" fill="#374151"/>
</g>
<path d="M492.838 578.302L483.303 583.334L468.267 563.198L477.814 558.167L492.838 578.302Z" fill="#FFB573"/>
<path d="M479.854 580.225L489.818 573.361C489.899 573.292 489.994 573.241 490.097 573.21C490.2 573.18 490.307 573.172 490.414 573.185C490.52 573.199 490.622 573.235 490.713 573.29C490.805 573.345 490.884 573.419 490.945 573.506L496.907 580.986C497.194 581.398 497.306 581.905 497.22 582.399C497.133 582.892 496.855 583.332 496.445 583.624C492.94 585.95 491.362 586.766 486.774 589.472C483.945 591.126 477.183 595.062 473.024 596.862C468.865 598.662 467.196 594.525 468.797 593.396C472.595 590.735 477.622 585.503 478.761 581.824C478.936 581.186 479.321 580.623 479.854 580.225V580.225Z" fill="#263238"/>
<path opacity="0.2" d="M477.825 558.178L468.267 563.198L475.515 572.902L484.847 567.58L477.825 558.178Z" fill="black"/>
<path d="M500.852 438.905C500.852 438.905 426.756 436.613 426.463 467.325C426.102 511.466 468.335 569.436 468.335 569.436L484.858 558.535C484.858 558.535 455.914 516.396 455.666 481.938C477.498 475.823 528.928 479.702 535.589 461.702C541.045 447.011 538.193 438.905 538.193 438.905H500.852Z" fill="#374151"/>
<path opacity="0.2" d="M500.852 438.905C500.852 438.905 426.756 436.613 426.463 467.325C426.102 511.466 468.335 569.436 468.335 569.436L484.858 558.535C484.858 558.535 455.914 516.396 455.666 481.938C477.498 475.823 528.928 479.702 535.589 461.702C541.045 447.011 538.193 438.905 538.193 438.905H500.852Z" fill="black"/>
<path d="M489.344 561.342L469.687 573.283L463.522 567.077L485.117 553.583L489.344 561.342Z" fill="#263238"/>
<path d="M477.791 583.926C478.578 583.362 479.297 582.709 479.933 581.981C479.966 581.945 479.989 581.9 479.996 581.852C480.004 581.804 479.997 581.755 479.977 581.71C479.956 581.666 479.923 581.629 479.881 581.603C479.839 581.578 479.79 581.565 479.741 581.567C479.324 581.567 475.627 581.567 474.838 582.763C474.748 582.897 474.693 583.051 474.679 583.212C474.666 583.372 474.693 583.533 474.759 583.68C474.834 583.912 474.969 584.12 475.151 584.283C475.334 584.446 475.556 584.558 475.796 584.608C476.523 584.632 477.234 584.389 477.791 583.926V583.926ZM479.155 582.081C477.791 583.49 476.585 584.239 475.886 584.116C475.73 584.082 475.586 584.005 475.47 583.895C475.355 583.784 475.273 583.644 475.233 583.49C475.191 583.423 475.169 583.346 475.169 583.267C475.169 583.188 475.191 583.11 475.233 583.043C475.684 582.417 477.679 582.137 479.155 582.081V582.081Z" fill="#374151"/>
<path d="M479.888 582.026C479.92 582.001 479.946 581.971 479.966 581.936C479.988 581.899 480 581.856 480 581.813C480 581.77 479.988 581.728 479.966 581.69C479.899 581.578 478.321 578.917 476.833 578.671C476.633 578.633 476.426 578.642 476.23 578.698C476.034 578.755 475.854 578.857 475.706 578.996C475.536 579.121 475.413 579.299 475.356 579.501C475.299 579.704 475.311 579.919 475.39 580.114C475.864 581.232 478.467 582.137 479.718 582.059L479.888 582.026ZM476.179 579.253C476.261 579.193 476.354 579.15 476.453 579.127C476.552 579.104 476.654 579.101 476.754 579.119C477.645 579.264 478.727 580.662 479.29 581.511C478.062 581.4 476.213 580.617 475.909 579.89C475.852 579.756 475.819 579.566 476.1 579.32C476.123 579.342 476.146 579.309 476.179 579.253Z" fill="#374151"/>
<path d="M475.199 590.646L464.491 590.143L462.733 565.065L473.44 565.568L475.199 590.646Z" fill="#FFB573"/>
<path d="M464.244 588.331L476.36 587.951C476.565 587.936 476.767 588.001 476.923 588.133C477.079 588.265 477.177 588.453 477.194 588.656L478.084 598.148C478.103 598.65 477.92 599.139 477.575 599.508C477.231 599.877 476.754 600.095 476.247 600.116C472.032 600.116 470.003 599.993 464.672 600.116C461.392 600.216 454.945 600.697 450.448 600.116C445.951 599.534 446.638 595.163 448.588 594.995C453.22 594.626 459.431 591.451 462.406 588.98C462.93 588.569 463.576 588.341 464.244 588.331V588.331Z" fill="#263238"/>
<path d="M460.479 590.31C461.448 590.259 462.408 590.101 463.342 589.841C463.389 589.829 463.431 589.803 463.464 589.767C463.496 589.731 463.517 589.687 463.524 589.639C463.532 589.592 463.525 589.543 463.504 589.499C463.484 589.456 463.451 589.419 463.41 589.393C463.06 589.17 459.938 587.157 458.642 587.739C458.494 587.803 458.364 587.903 458.266 588.03C458.167 588.157 458.103 588.307 458.078 588.466C458.012 588.7 458.009 588.947 458.07 589.183C458.132 589.419 458.255 589.634 458.428 589.807C459.023 590.226 459.756 590.406 460.479 590.31V590.31ZM462.632 589.505C460.716 589.941 459.25 589.93 458.777 589.449C458.667 589.333 458.59 589.191 458.552 589.036C458.514 588.881 458.518 588.719 458.563 588.566C458.572 588.488 458.602 588.414 458.65 588.351C458.697 588.288 458.761 588.239 458.833 588.208C459.532 587.907 461.358 588.745 462.632 589.505V589.505Z" fill="#374151"/>
<path d="M463.285 589.852C463.322 589.862 463.361 589.862 463.398 589.852C463.435 589.832 463.466 589.803 463.487 589.768C463.509 589.732 463.521 589.692 463.522 589.651C463.522 589.516 463.68 586.431 462.553 585.424C462.405 585.284 462.225 585.182 462.029 585.128C461.832 585.073 461.625 585.067 461.426 585.111C461.21 585.123 461.005 585.207 460.843 585.349C460.682 585.491 460.573 585.683 460.535 585.894C460.321 587.012 462 589.248 463.094 589.852C463.156 589.872 463.223 589.872 463.285 589.852V589.852ZM461.674 585.559C461.773 585.553 461.872 585.567 461.966 585.602C462.059 585.637 462.144 585.69 462.215 585.76C462.891 586.364 463.026 588.119 463.037 589.114C462.068 588.354 460.941 586.699 461.088 585.927C461.088 585.782 461.189 585.603 461.55 585.547L461.674 585.559Z" fill="#374151"/>
<path opacity="0.2" d="M473.452 565.568L462.733 565.065L463.736 579.409L474.421 579.398L473.452 565.568Z" fill="black"/>
<path d="M527.203 438.905C527.203 438.905 449.681 446.172 452.499 469.327C456.579 502.712 458.585 574.669 458.585 574.669L478.343 575.44C478.343 575.44 486.718 510.594 482.39 476.348C502.452 476.348 551.571 477.779 556.046 465.794C560.002 455.195 558.593 438.961 558.593 438.961L527.203 438.905Z" fill="#374151"/>
<path d="M480.53 576.648L456.816 575.485L455.959 565.244L481.973 567.021L480.53 576.648Z" fill="#263238"/>
<path d="M510.004 371.084C509.858 372.963 509.711 374.595 509.497 376.317C509.283 378.039 509.057 379.671 508.787 381.415C508.257 384.769 507.581 388.123 506.792 391.556C505.255 398.648 502.757 405.5 499.364 411.926C498.351 413.732 497.186 415.448 495.881 417.058C494.422 418.875 492.698 420.466 490.764 421.776C487.045 424.227 482.743 425.669 478.287 425.958C474.386 426.211 470.469 425.834 466.689 424.84C464.906 424.387 463.152 423.827 461.437 423.163C460.58 422.839 459.746 422.481 458.923 422.045C458.101 421.609 457.334 421.251 456.387 420.748L459.352 413.268L461.505 413.536L463.759 413.76C465.269 413.883 466.757 413.961 468.267 413.961C471.005 414.007 473.738 413.695 476.394 413.033C478.522 412.527 480.492 411.509 482.131 410.071C482.833 409.418 483.461 408.691 484.002 407.902C484.667 406.885 485.262 405.824 485.782 404.726C486.974 402.161 487.951 399.502 488.702 396.777C489.558 393.948 490.246 390.986 490.866 387.967C491.486 384.948 491.993 381.896 492.5 378.821L493.165 374.193C493.368 372.672 493.593 371.04 493.74 369.72L510.004 371.084Z" fill="#FFB573"/>
<path d="M510.071 361.972C502.182 354.381 492.376 358.864 488.476 373.153C486.269 380.78 484.76 388.59 483.968 396.486L509.068 401.629C513.633 388 518.187 369.754 510.071 361.972Z" fill="#263238"/>
<path opacity="0.3" d="M501.99 377.513C503.782 375.914 508.877 383.103 511.988 391.969C511.108 395.324 510.105 398.555 509.08 401.585L493.976 398.488C495.182 389.633 497.966 381.113 501.99 377.513Z" fill="black"/>
<path d="M457.65 409.914L452.014 407.779L451.766 419.641C451.766 419.641 461.234 423.699 463.161 419.037L462.485 416.074C462.159 414.769 461.56 413.546 460.727 412.485C459.894 411.424 458.846 410.548 457.65 409.914Z" fill="#FFB573"/>
<path d="M445.365 408.092L442.04 418.042L451.812 419.641L452.06 407.779L445.365 408.092Z" fill="#FFB573"/>
<path d="M453.885 416.018C453.766 416.02 453.649 415.989 453.547 415.927C453.446 415.866 453.364 415.778 453.31 415.672L443.245 396.453C443.166 396.301 443.149 396.125 443.2 395.962C443.25 395.798 443.364 395.661 443.516 395.581C443.67 395.505 443.848 395.492 444.012 395.544C444.176 395.597 444.313 395.71 444.395 395.86L454.426 415.046C454.506 415.197 454.522 415.374 454.472 415.537C454.421 415.7 454.308 415.837 454.156 415.918C454.073 415.969 453.981 416.003 453.885 416.018V416.018Z" fill="#263238"/>
<path d="M509.136 354.358L521.174 351.004L536.638 350.289C538.986 350.177 541.307 350.834 543.242 352.16C545.177 353.485 546.618 355.405 547.345 357.623C550.287 366.567 552.981 379.447 554.976 390.594C557.23 403.105 558.357 421.899 558.594 438.961H500.852C499.533 403.351 494.968 382.298 492.962 370.648C492.562 368.365 492.927 366.015 494.002 363.957C495.077 361.899 496.802 360.248 498.913 359.255L509.136 354.358Z" fill="#263238"/>
<path opacity="0.3" d="M554.976 390.549C553.42 381.773 551.414 371.889 549.182 363.716C538.892 361.995 533.91 384.378 536.964 395.48C540.019 406.582 556.306 399.852 556.306 399.852C555.922 396.509 555.471 393.367 554.976 390.549Z" fill="black"/>
<path d="M519.122 327.693C521.602 333.73 520.114 344.799 515.223 341.669C510.331 338.538 517.612 324.026 519.122 327.693Z" fill="#263238"/>
<path d="M516.417 331.562L511.74 338.65L505.383 348.299C506.204 349.124 506.869 350.09 507.344 351.15C508.471 353.475 509.474 355.208 504.549 358.54C504.02 358.876 503.599 359.357 503.337 359.924C503.076 360.491 502.984 361.12 503.072 361.737C503.365 363.247 504.876 364.711 510.184 363.784C515.301 362.812 519.969 360.242 523.507 356.449C525.276 354.694 524.871 353.375 523.169 351.552C518.3 346.409 516.857 338.192 516.417 331.562Z" fill="#FFB573"/>
<path opacity="0.2" d="M506.905 345.917L510.804 339.041C510.887 339.22 510.977 339.41 511.075 339.611C511.421 340.461 511.7 341.335 511.909 342.228C512.619 345.28 510.23 349.64 507.603 351.72L507.299 351.127C506.826 350.137 506.219 349.216 505.496 348.388C505.45 348.342 505.396 348.305 505.338 348.276L506.905 345.917Z" fill="black"/>
<path d="M483.495 323.221C482.041 326.474 487.192 335.687 493.086 331.964C498.981 328.241 486.064 317.463 483.495 323.221Z" fill="#263238"/>
<path d="M511.909 365.762C511.831 365.764 511.755 365.737 511.695 365.688C511.635 365.639 511.595 365.57 511.582 365.494C511.153 362.733 509.328 361.022 507.265 358.942C504.65 356.404 501.686 353.52 500.716 347.874C500.701 347.791 500.72 347.705 500.769 347.636C500.818 347.567 500.892 347.52 500.976 347.505C501.059 347.49 501.146 347.509 501.215 347.557C501.285 347.605 501.333 347.679 501.348 347.762C502.294 353.207 505.18 356.013 507.716 358.484C509.801 360.508 511.762 362.42 512.224 365.394C512.232 365.436 512.232 365.479 512.222 365.52C512.213 365.562 512.195 365.601 512.169 365.636C512.144 365.671 512.112 365.7 512.075 365.721C512.038 365.743 511.996 365.757 511.954 365.762H511.909Z" fill="white"/>
<path d="M514.31 319.945C516.564 330.075 518.322 335.9 514.682 342.306C509.181 351.999 495.431 350.68 490.201 341.356C485.489 332.97 482.683 317.81 491.441 311.269C493.4 309.824 495.695 308.893 498.114 308.562C500.533 308.231 502.997 308.511 505.277 309.377C507.558 310.242 509.581 311.664 511.16 313.511C512.739 315.359 513.822 317.572 514.31 319.945V319.945Z" fill="#FFB573"/>
<path d="M517.342 326.899C513.825 331.852 504.605 322.762 505.36 316.658C496.208 321.823 486.267 328.722 480.237 322.908C473.272 316.2 475.176 306.584 483.337 305.723C481.894 308.519 490.099 309.76 494.461 305.444C501.844 298.199 513.509 299.708 513.295 305.578C518.92 303.364 525.062 316.021 517.342 326.899Z" fill="#263238"/>
<path d="M512.213 307.222C514.388 305.612 512.946 299.876 507.896 298.199C512.698 298.814 517.668 302.358 512.213 307.222Z" fill="#263238"/>
<path d="M520.599 326.452C520.696 328.768 519.934 331.039 518.458 332.836C516.519 335.128 513.532 333.306 512.822 330.443C512.202 327.883 513.002 323.914 515.55 322.684C518.097 321.454 520.464 323.567 520.599 326.452Z" fill="#FFB573"/>
<path d="M499.657 328.163C499.928 328.979 499.725 329.806 499.184 329.996C498.643 330.186 498.057 329.683 497.73 328.878C497.403 328.073 497.662 327.235 498.203 327.033C498.744 326.832 499.387 327.335 499.657 328.163Z" fill="#263238"/>
<path d="M490.415 331.517C490.696 332.344 490.482 333.172 489.941 333.362C489.4 333.552 488.758 333.049 488.487 332.244C488.217 331.439 488.431 330.6 488.961 330.41C489.49 330.22 490.144 330.701 490.415 331.517Z" fill="#263238"/>
<path d="M493.582 331.047C493.619 333.493 493.331 335.932 492.725 338.303C494.382 338.907 496.208 337.487 496.208 337.487L493.582 331.047Z" fill="#ED893E"/>
<path d="M498.53 342.037C499.49 341.724 500.376 341.221 501.133 340.558C501.891 339.895 502.505 339.086 502.937 338.18C502.964 338.118 502.964 338.048 502.939 337.985C502.914 337.922 502.864 337.872 502.802 337.845C502.737 337.822 502.667 337.825 502.604 337.851C502.541 337.878 502.491 337.928 502.464 337.99C501.98 338.967 501.276 339.819 500.406 340.482C499.536 341.146 498.524 341.601 497.448 341.814C497.413 341.818 497.379 341.83 497.348 341.848C497.318 341.866 497.292 341.89 497.271 341.919C497.25 341.948 497.235 341.98 497.228 342.015C497.22 342.049 497.22 342.085 497.227 342.119C497.234 342.154 497.248 342.187 497.269 342.216C497.289 342.245 497.315 342.269 497.345 342.288C497.375 342.306 497.409 342.318 497.444 342.323C497.479 342.328 497.515 342.326 497.55 342.317C497.882 342.245 498.21 342.152 498.53 342.037V342.037Z" fill="#263238"/>
<path d="M500.503 324.607C500.581 324.57 500.647 324.512 500.694 324.44C500.766 324.325 500.79 324.187 500.761 324.055C500.731 323.924 500.651 323.809 500.536 323.735C499.87 323.289 499.102 323.012 498.302 322.931C497.502 322.849 496.694 322.964 495.949 323.266C495.887 323.293 495.831 323.333 495.784 323.383C495.738 323.432 495.702 323.491 495.679 323.554C495.656 323.618 495.646 323.686 495.649 323.753C495.653 323.821 495.671 323.887 495.701 323.948C495.762 324.068 495.868 324.161 495.996 324.205C496.125 324.249 496.266 324.241 496.389 324.182C496.976 323.957 497.61 323.876 498.236 323.946C498.862 324.017 499.462 324.236 499.984 324.585C500.059 324.637 500.148 324.667 500.24 324.671C500.332 324.675 500.423 324.653 500.503 324.607V324.607Z" fill="#263238"/>
<path d="M488.589 326.217C488.61 326.133 488.61 326.044 488.589 325.96C488.534 325.836 488.433 325.738 488.306 325.688C488.18 325.638 488.038 325.639 487.913 325.692C487.162 325.98 486.495 326.449 485.972 327.056C485.449 327.663 485.086 328.389 484.915 329.169C484.892 329.301 484.923 329.436 485.002 329.545C485.08 329.654 485.199 329.728 485.332 329.75C485.465 329.772 485.601 329.741 485.711 329.664C485.821 329.586 485.895 329.469 485.918 329.337C486.064 328.727 486.359 328.162 486.775 327.691C487.191 327.219 487.717 326.855 488.307 326.631C488.386 326.591 488.453 326.533 488.502 326.46C488.551 326.388 488.581 326.304 488.589 326.217Z" fill="#263238"/>
<path d="M545.35 357.88C546.478 359.691 547.379 361.324 548.315 363.068C549.25 364.812 550.152 366.512 551.031 368.256C552.812 371.733 554.412 375.311 555.968 378.955C557.523 382.6 558.887 386.357 560.059 390.27C561.342 394.377 562.203 398.603 562.629 402.881C562.857 405.379 562.77 407.896 562.37 410.372C562.112 412.006 561.611 413.592 560.882 415.079C560.037 416.76 558.865 418.257 557.433 419.484C556.144 420.596 554.672 421.481 553.082 422.101C551.748 422.621 550.361 422.995 548.946 423.219C546.556 423.589 544.128 423.653 541.721 423.409C539.572 423.228 537.44 422.888 535.342 422.391C533.339 421.939 531.36 421.387 529.413 420.737C525.587 419.48 521.87 417.917 518.3 416.063L521.151 408.539C528.162 409.858 535.691 411.077 542.014 410.697C543.397 410.625 544.766 410.392 546.094 410.003C547.221 409.668 547.796 409.165 547.751 409.008C547.706 408.852 547.684 409.008 547.661 408.897C547.638 408.785 547.661 408.774 547.661 408.203C547.731 406.947 547.655 405.686 547.436 404.447C546.896 401.256 546.055 398.123 544.922 395.089C543.795 391.846 542.431 388.571 540.955 385.328C539.478 382.086 537.889 378.832 536.277 375.59C535.466 373.965 534.628 372.359 533.764 370.771L531.216 366.087L545.35 357.88Z" fill="#FFB573"/>
<path d="M540.087 350.4C529.199 348.757 523.845 358.026 528.974 371.867C531.622 379.354 534.949 386.588 538.915 393.479L562.392 383.271C558.121 369.575 551.223 352.089 540.087 350.4Z" fill="#263238"/>
<path d="M515.11 407.51L510.083 409.008L517.218 419.071C517.218 419.071 527.79 415.314 525.626 410.753L522.966 409.254C520.689 407.946 517.804 406.593 515.11 407.51Z" fill="#FFB573"/>
<path d="M505.631 415.94L510.669 420.927L517.218 419.06L510.083 409.008L505.631 415.94Z" fill="#FFB573"/>
<path d="M516.62 329.65C517.516 329.65 518.243 328.779 518.243 327.704C518.243 326.63 517.516 325.759 516.62 325.759C515.724 325.759 514.997 326.63 514.997 327.704C514.997 328.779 515.724 329.65 516.62 329.65Z" fill="white"/>
<path d="M517.961 332.847L517.026 332.814L516.451 328.33L518.232 327.939L517.961 332.847Z" fill="white"/>
<path d="M524.431 417.36C521.05 417.36 518.052 416.857 516.237 415.225C515.56 414.578 515.033 413.793 514.693 412.924C514.352 412.056 514.206 411.124 514.264 410.194C514.368 405.583 515.092 401.007 516.417 396.587C517.984 390.494 519.224 385.686 515.459 379.749C509.463 370.324 511.255 357.142 515.459 348.88C518.671 342.563 517.544 335.519 517.139 332.926C517.082 332.59 517.037 332.322 517.015 332.143C517.01 332.101 517.014 332.058 517.026 332.018C517.039 331.978 517.059 331.94 517.086 331.908C517.114 331.875 517.148 331.849 517.186 331.83C517.224 331.81 517.265 331.799 517.308 331.796C517.393 331.787 517.478 331.811 517.546 331.863C517.613 331.915 517.657 331.992 517.668 332.076C517.668 332.244 517.725 332.501 517.77 332.825C518.198 335.519 519.314 342.664 516 349.171C511.886 357.277 510.128 370.19 516 379.358C519.911 385.518 518.581 390.695 517.037 396.688C515.739 401.047 515.03 405.559 514.929 410.104C514.868 410.945 514.993 411.788 515.295 412.576C515.597 413.364 516.068 414.077 516.676 414.666C519.72 417.383 526.437 416.689 532.929 416.019C535.837 415.728 538.847 415.415 541.495 415.415C541.582 415.415 541.665 415.449 541.727 415.51C541.788 415.571 541.822 415.653 541.822 415.739C541.822 415.825 541.788 415.908 541.727 415.968C541.665 416.029 541.582 416.063 541.495 416.063C538.881 416.063 535.86 416.365 532.997 416.667C530.155 417.041 527.296 417.272 524.431 417.36V417.36Z" fill="white"/>
<path d="M554.987 414.968H542.16C541.787 414.968 541.484 415.268 541.484 415.638V416.533C541.484 416.903 541.787 417.204 542.16 417.204H554.987C555.36 417.204 555.663 416.903 555.663 416.533V415.638C555.663 415.268 555.36 414.968 554.987 414.968Z" fill="white"/>
<path d="M635.485 424.65H322.96C321.966 424.647 321.013 424.254 320.309 423.556C319.606 422.859 319.21 421.913 319.207 420.927C319.21 419.94 319.606 418.995 320.309 418.297C321.013 417.6 321.966 417.207 322.96 417.204H635.485C636.479 417.207 637.432 417.6 638.136 418.297C638.839 418.995 639.235 419.94 639.238 420.927V420.927C639.235 421.913 638.839 422.859 638.136 423.556C637.432 424.254 636.479 424.647 635.485 424.65V424.65Z" fill="#374151"/>
<path opacity="0.3" d="M635.485 424.65H562.325C561.33 424.647 560.377 424.254 559.674 423.556C558.971 422.859 558.574 421.913 558.571 420.927V420.927C558.574 419.94 558.971 418.995 559.674 418.297C560.377 417.6 561.33 417.207 562.325 417.204H635.485C636.48 417.207 637.433 417.6 638.136 418.297C638.839 418.995 639.236 419.94 639.239 420.927V420.927C639.236 421.913 638.839 422.859 638.136 423.556C637.433 424.254 636.48 424.647 635.485 424.65V424.65Z" fill="#263238"/>
<path d="M632.036 600.071H639.238L630.954 424.65H620.99L632.036 600.071Z" fill="#263238"/>
<path opacity="0.1" d="M632.036 600.071H639.238L630.954 424.65H620.99L632.036 600.071Z" fill="white"/>
<path d="M565.774 600.071H558.571L566.856 424.65H576.819L565.774 600.071Z" fill="#263238"/>
<path opacity="0.2" d="M565.774 600.071H558.571L566.856 424.65H576.819L565.774 600.071Z" fill="white"/>
<path d="M392.683 600.071H399.874L391.59 424.65H381.626L392.683 600.071Z" fill="#263238"/>
<path opacity="0.1" d="M392.683 600.071H399.874L391.59 424.65H381.626L392.683 600.071Z" fill="white"/>
<path d="M326.409 600.071H319.207L327.491 424.65H337.455L326.409 600.071Z" fill="#263238"/>
<path opacity="0.2" d="M326.409 600.071H319.207L327.491 424.65H337.455L326.409 600.071Z" fill="white"/>
<path d="M569.944 433.985H329.588V448.688H569.944V433.985Z" fill="#263238"/>
<path opacity="0.2" d="M569.944 433.985H329.588V448.688H569.944V433.985Z" fill="white"/>
<path d="M369.138 407.32C368.721 407.32 368.322 407.484 368.026 407.775C367.731 408.066 367.563 408.461 367.56 408.874V415.583C367.56 415.998 367.726 416.396 368.022 416.689C368.318 416.983 368.72 417.148 369.138 417.148H420.252C420.388 417.148 420.518 417.095 420.615 417.001C420.712 416.907 420.768 416.779 420.771 416.645V407.767C420.768 407.633 420.712 407.505 420.615 407.411C420.518 407.317 420.388 407.264 420.252 407.264L369.138 407.32Z" fill="#374151"/>
<path opacity="0.9" d="M399.389 408.259H420.804V416.264H399.389C399.147 416.264 398.915 416.169 398.744 415.999C398.573 415.829 398.476 415.599 398.476 415.359V409.154C398.479 408.915 398.577 408.688 398.748 408.521C398.919 408.353 399.149 408.259 399.389 408.259V408.259Z" fill="white"/>
<path d="M395.873 407.32H344.24C343.369 407.32 342.662 408.021 342.662 408.885V415.649C342.662 416.514 343.369 417.215 344.24 417.215H395.873C396.744 417.215 397.451 416.514 397.451 415.649V408.885C397.451 408.021 396.744 407.32 395.873 407.32Z" fill="#374151"/>
<path opacity="0.2" d="M395.873 407.32H344.24C343.369 407.32 342.662 408.021 342.662 408.885V415.649C342.662 416.514 343.369 417.215 344.24 417.215H395.873C396.744 417.215 397.451 416.514 397.451 415.649V408.885C397.451 408.021 396.744 407.32 395.873 407.32Z" fill="black"/>
<path opacity="0.5" d="M370.479 407.32H362.646C362.291 407.32 362.003 407.605 362.003 407.957V416.577C362.003 416.929 362.291 417.215 362.646 417.215H370.479C370.834 417.215 371.122 416.929 371.122 416.577V407.957C371.122 407.605 370.834 407.32 370.479 407.32Z" fill="#374151"/>
<path opacity="0.5" d="M381.784 407.32H373.962C373.607 407.32 373.32 407.605 373.32 407.957V416.577C373.32 416.929 373.607 417.215 373.962 417.215H381.784C382.139 417.215 382.427 416.929 382.427 416.577V407.957C382.427 407.605 382.139 407.32 381.784 407.32Z" fill="#374151"/>
<path d="M359.895 395.133C359.688 395.133 359.483 395.174 359.291 395.253C359.1 395.331 358.926 395.447 358.78 395.592C358.633 395.737 358.517 395.91 358.437 396.1C358.358 396.29 358.317 396.493 358.317 396.699V405.755C358.317 405.96 358.358 406.164 358.437 406.354C358.517 406.544 358.633 406.716 358.78 406.862C358.926 407.007 359.1 407.122 359.291 407.201C359.483 407.28 359.688 407.32 359.895 407.32H415.27C415.406 407.317 415.535 407.262 415.63 407.166C415.724 407.069 415.777 406.94 415.777 406.806V395.625C415.777 395.491 415.724 395.362 415.63 395.266C415.535 395.169 415.406 395.114 415.27 395.111L359.895 395.133Z" fill="#374151"/>
<path opacity="0.9" d="M390.181 396.084H415.812V406.381H390.181C389.939 406.381 389.707 406.286 389.536 406.116C389.365 405.946 389.268 405.715 389.268 405.475V397.012C389.265 396.891 389.287 396.771 389.331 396.658C389.376 396.546 389.443 396.443 389.528 396.357C389.613 396.27 389.714 396.202 389.827 396.155C389.939 396.108 390.059 396.084 390.181 396.084Z" fill="white"/>
<path d="M386.619 395.134H343.203C342.331 395.134 341.625 395.834 341.625 396.699V405.744C341.625 406.608 342.331 407.309 343.203 407.309H386.619C387.491 407.309 388.197 406.608 388.197 405.744V396.699C388.197 395.834 387.491 395.134 386.619 395.134Z" fill="#374151"/>
<path opacity="0.2" d="M386.619 395.134H343.203C342.331 395.134 341.625 395.834 341.625 396.699V405.744C341.625 406.608 342.331 407.309 343.203 407.309H386.619C387.491 407.309 388.197 406.608 388.197 405.744V396.699C388.197 395.834 387.491 395.134 386.619 395.134Z" fill="white"/>
<path opacity="0.6" d="M382.55 397.548H350.755C350.226 397.548 349.797 397.974 349.797 398.499V403.944C349.797 404.468 350.226 404.894 350.755 404.894H382.55C383.08 404.894 383.508 404.468 383.508 403.944V398.499C383.508 397.974 383.08 397.548 382.55 397.548Z" fill="#374151"/>
<path d="M376.137 389.308C375.269 389.308 374.559 389.722 374.559 390.225V394.217C374.559 394.72 375.269 395.133 376.137 395.133H427.263C427.545 395.133 427.77 394.999 427.77 394.843V389.61C427.77 389.443 427.545 389.308 427.263 389.308H376.137Z" fill="#374151"/>
<path opacity="0.9" d="M406.186 389.856H427.77V394.574H406.186C406.001 394.574 405.823 394.501 405.692 394.371C405.561 394.241 405.487 394.065 405.487 393.881V390.527C405.493 390.347 405.569 390.177 405.7 390.051C405.83 389.926 406.005 389.856 406.186 389.856V389.856Z" fill="white"/>
<path d="M403.244 389.308H350.868C350.202 389.308 349.662 389.844 349.662 390.505V393.948C349.662 394.609 350.202 395.145 350.868 395.145H403.244C403.91 395.145 404.45 394.609 404.45 393.948V390.505C404.45 389.844 403.91 389.308 403.244 389.308Z" fill="#374151"/>
<path opacity="0.2" d="M403.244 389.308H350.868C350.202 389.308 349.662 389.844 349.662 390.505V393.948C349.662 394.609 350.202 395.145 350.868 395.145H403.244C403.91 395.145 404.45 394.609 404.45 393.948V390.505C404.45 389.844 403.91 389.308 403.244 389.308Z" fill="black"/>
<path opacity="0.5" d="M357.45 389.308H355.815C355.685 389.308 355.579 389.414 355.579 389.543V394.91C355.579 395.04 355.685 395.145 355.815 395.145H357.45C357.58 395.145 357.686 395.04 357.686 394.91V389.543C357.686 389.414 357.58 389.308 357.45 389.308Z" fill="#374151"/>
<path opacity="0.5" d="M399.964 389.308H398.364C398.233 389.308 398.127 389.414 398.127 389.543V394.91C398.127 395.04 398.233 395.145 398.364 395.145H399.964C400.095 395.145 400.201 395.04 400.201 394.91V389.543C400.201 389.414 400.095 389.308 399.964 389.308Z" fill="#374151"/>
<path d="M366.895 380.879C366.027 380.879 365.317 381.292 365.317 381.795V388.381C365.317 388.895 366.027 389.309 366.895 389.309H422.27C422.552 389.309 422.788 389.174 422.788 389.007V381.18C422.788 381.013 422.552 380.879 422.27 380.879H366.895Z" fill="#374151"/>
<path opacity="0.9" d="M396.944 381.426H422.788V388.75H396.944C396.758 388.75 396.581 388.677 396.45 388.547C396.318 388.417 396.245 388.24 396.245 388.056V382.12C396.245 381.936 396.318 381.759 396.45 381.629C396.581 381.499 396.758 381.426 396.944 381.426V381.426Z" fill="white"/>
<path d="M393.991 380.879H349.831C349.164 380.879 348.625 381.414 348.625 382.075V388.112C348.625 388.773 349.164 389.309 349.831 389.309H393.991C394.657 389.309 395.197 388.773 395.197 388.112V382.075C395.197 381.414 394.657 380.879 393.991 380.879Z" fill="#374151"/>
<path opacity="0.1" d="M393.991 380.879H349.831C349.164 380.879 348.625 381.414 348.625 382.075V388.112C348.625 388.773 349.164 389.309 349.831 389.309H393.991C394.657 389.309 395.197 388.773 395.197 388.112V382.075C395.197 381.414 394.657 380.879 393.991 380.879Z" fill="black"/>
<path d="M490.404 415.348H443.888C443.639 415.348 443.399 415.445 443.222 415.619C443.045 415.793 442.944 416.029 442.941 416.276V416.276C442.944 416.523 443.045 416.759 443.222 416.933C443.399 417.106 443.639 417.204 443.888 417.204H490.404C490.652 417.204 490.89 417.106 491.065 416.932C491.24 416.758 491.339 416.522 491.339 416.276V416.276C491.339 416.03 491.24 415.794 491.065 415.62C490.89 415.446 490.652 415.348 490.404 415.348V415.348Z" fill="white"/>
<path d="M581.406 413.134H611.973L614.735 417.103H578.645L581.406 413.134Z" fill="#263238"/>
<path d="M628.61 345.392C628.61 346.199 628.368 346.988 627.916 347.659C627.464 348.33 626.822 348.853 626.07 349.162C625.318 349.471 624.491 349.552 623.693 349.394C622.895 349.237 622.162 348.848 621.587 348.277C621.011 347.707 620.62 346.979 620.461 346.188C620.302 345.396 620.384 344.576 620.695 343.83C621.006 343.084 621.534 342.447 622.21 341.999C622.887 341.55 623.682 341.311 624.496 341.311C625.036 341.309 625.572 341.414 626.072 341.618C626.572 341.823 627.026 342.124 627.408 342.503C627.79 342.882 628.093 343.332 628.3 343.828C628.506 344.324 628.611 344.855 628.61 345.392V345.392Z" fill="black"/>
<path d="M597.704 415.817C597.49 415.817 597.279 415.764 597.09 415.663C596.901 415.563 596.74 415.418 596.621 415.241C596.502 415.065 596.429 414.862 596.407 414.65C596.386 414.439 596.417 414.225 596.498 414.028L625.95 344.889C626.102 344.6 626.358 344.378 626.667 344.268C626.976 344.158 627.315 344.167 627.618 344.294C627.92 344.421 628.163 344.656 628.299 344.953C628.435 345.249 628.453 345.586 628.35 345.895L598.899 415.024C598.8 415.257 598.634 415.457 598.422 415.598C598.209 415.739 597.96 415.815 597.704 415.817Z" fill="#263238"/>
<path d="M627.144 346.7C626.865 346.697 626.593 346.607 626.367 346.443L572.885 306.652C572.61 306.447 572.429 306.142 572.38 305.805C572.331 305.467 572.42 305.124 572.626 304.851C572.832 304.579 573.14 304.398 573.48 304.35C573.82 304.302 574.166 304.39 574.441 304.594L627.933 344.363C628.15 344.528 628.308 344.755 628.388 345.014C628.467 345.272 628.463 345.549 628.376 345.805C628.289 346.062 628.124 346.284 627.903 346.443C627.682 346.601 627.417 346.687 627.144 346.689V346.7Z" fill="#263238"/>
<path d="M631.259 345.392C631.259 346.199 631.017 346.988 630.565 347.659C630.113 348.33 629.471 348.853 628.719 349.162C627.967 349.471 627.14 349.552 626.342 349.394C625.544 349.237 624.811 348.848 624.236 348.277C623.66 347.707 623.269 346.979 623.11 346.188C622.951 345.396 623.033 344.576 623.344 343.83C623.655 343.084 624.183 342.447 624.859 341.999C625.536 341.55 626.331 341.311 627.145 341.311C627.685 341.309 628.221 341.414 628.721 341.618C629.221 341.823 629.675 342.124 630.057 342.503C630.439 342.882 630.742 343.332 630.949 343.828C631.155 344.324 631.26 344.855 631.259 345.392V345.392Z" fill="#263238"/>
<path d="M573.663 309.693C575.929 309.693 577.766 307.871 577.766 305.623C577.766 303.375 575.929 301.553 573.663 301.553C571.397 301.553 569.561 303.375 569.561 305.623C569.561 307.871 571.397 309.693 573.663 309.693Z" fill="#263238"/>
<path d="M567.915 324.227C566.629 325.503 564.99 326.372 563.206 326.724C561.422 327.076 559.573 326.895 557.892 326.205C556.211 325.514 554.775 324.345 553.764 322.845C552.754 321.344 552.214 319.58 552.214 317.776C552.214 315.972 552.754 314.208 553.764 312.707C554.775 311.207 556.211 310.038 557.892 309.347C559.573 308.657 561.422 308.476 563.206 308.828C564.99 309.18 566.629 310.049 567.915 311.325C569.637 313.037 570.604 315.357 570.604 317.776C570.604 320.195 569.637 322.515 567.915 324.227V324.227Z" fill="#374151"/>
<path opacity="0.7" d="M567.915 324.227C566.629 325.503 564.99 326.372 563.206 326.724C561.422 327.076 559.573 326.895 557.892 326.205C556.211 325.514 554.775 324.345 553.764 322.845C552.754 321.344 552.214 319.58 552.214 317.776C552.214 315.972 552.754 314.208 553.764 312.707C554.775 311.207 556.211 310.038 557.892 309.347C559.573 308.657 561.422 308.476 563.206 308.828C564.99 309.18 566.629 310.049 567.915 311.325C569.637 313.037 570.604 315.357 570.604 317.776C570.604 320.195 569.637 322.515 567.915 324.227V324.227Z" fill="white"/>
<path d="M573.663 305.623C571.834 303.807 569.663 302.366 567.272 301.383C564.882 300.4 562.32 299.894 559.732 299.894C557.144 299.894 554.582 300.4 552.192 301.383C549.801 302.366 547.63 303.807 545.801 305.623L573.663 333.283C575.496 331.468 576.95 329.312 577.942 326.939C578.934 324.566 579.445 322.022 579.445 319.453C579.445 316.884 578.934 314.34 577.942 311.967C576.95 309.594 575.496 307.438 573.663 305.623V305.623Z" fill="#263238"/>
<g opacity="0.2">
<path opacity="0.2" d="M545.79 305.623L428.773 417.204H548.822L573.663 333.272L545.79 305.623Z" fill="#374151"/>
<path opacity="0.7" d="M545.79 305.623L428.773 417.204H548.822L573.663 333.272L545.79 305.623Z" fill="white"/>
</g>
<path d="M286.25 24.75H293.75V57.75H286.25V24.75ZM276.25 35.75H283.75V57.75H276.25V35.75ZM266.25 30.25H273.75V57.75H266.25V30.25ZM256.25 44H263.75V57.75H256.25V44ZM246.25 38.5H253.75V57.75H246.25V38.5Z" fill="#283245"/>
<path d="M250 26.125C252.071 26.125 253.75 24.2782 253.75 22C253.75 19.7218 252.071 17.875 250 17.875C247.929 17.875 246.25 19.7218 246.25 22C246.25 24.2782 247.929 26.125 250 26.125Z" fill="#283245"/>
<path d="M260 28.875C262.071 28.875 263.75 27.0282 263.75 24.75C263.75 22.4718 262.071 20.625 260 20.625C257.929 20.625 256.25 22.4718 256.25 24.75C256.25 27.0282 257.929 28.875 260 28.875Z" fill="#283245"/>
<path d="M270 19.25C272.071 19.25 273.75 17.4032 273.75 15.125C273.75 12.8468 272.071 11 270 11C267.929 11 266.25 12.8468 266.25 15.125C266.25 17.4032 267.929 19.25 270 19.25Z" fill="#283245"/>
<path d="M280 22C282.071 22 283.75 20.1532 283.75 17.875C283.75 15.5968 282.071 13.75 280 13.75C277.929 13.75 276.25 15.5968 276.25 17.875C276.25 20.1532 277.929 22 280 22Z" fill="#283245"/>
<path d="M290 16.5C292.071 16.5 293.75 14.6532 293.75 12.375C293.75 10.0968 292.071 8.25 290 8.25C287.929 8.25 286.25 10.0968 286.25 12.375C286.25 14.6532 287.929 16.5 290 16.5Z" fill="#283245"/>
<path d="M288.875 9.90002L279.75 14.9875L269.375 12.1L259.375 21.725L250.625 19.3875L249.375 24.6125L260.625 27.775L270.625 18.15L280.25 20.7625L291.125 14.85L288.875 9.90002Z" fill="#283245"/>
<path d="M92.1562 186L79.25 200.875L76.6503 197.879L86.9384 186L76.6503 174.121L79.25 171.125L92.1562 186ZM36.8438 186L49.75 171.125L52.3497 174.121L42.0616 186L52.3497 197.879L49.75 200.875L36.8438 186ZM57.8994 206.154L67.5237 164.75L71.0859 165.849L61.4615 207.25L57.8994 206.154Z" fill="#374151"/>
<path d="M28.75 511.5C27.9354 511.5 27.2531 511.228 26.703 510.684C26.151 510.142 25.875 509.469 25.875 508.667V497.333C25.875 496.531 26.151 495.857 26.703 495.313C27.2531 494.771 27.9354 494.5 28.75 494.5H40.25C41.0646 494.5 41.7479 494.771 42.2999 495.313C42.8499 495.857 43.125 496.531 43.125 497.333V508.667C43.125 509.469 42.8499 510.142 42.2999 510.684C41.7479 511.228 41.0646 511.5 40.25 511.5H28.75ZM28.75 528.5C27.9354 528.5 27.2531 528.228 26.703 527.684C26.151 527.142 25.875 526.469 25.875 525.667V522.833H20.125C18.5437 522.833 17.1906 522.279 16.0655 521.17C14.9385 520.059 14.375 518.725 14.375 517.167V511.5H11.5C10.6854 511.5 10.0031 511.228 9.453 510.684C8.901 510.142 8.625 509.469 8.625 508.667C8.625 507.864 8.901 507.19 9.453 506.646C10.0031 506.104 10.6854 505.833 11.5 505.833H14.375V500.167H11.5C10.6854 500.167 10.0031 499.895 9.453 499.351C8.901 498.809 8.625 498.136 8.625 497.333C8.625 496.531 8.901 495.857 9.453 495.313C10.0031 494.771 10.6854 494.5 11.5 494.5H14.375V488.833C14.375 487.275 14.9385 485.941 16.0655 484.833C17.1906 483.722 18.5437 483.167 20.125 483.167H25.875V480.333C25.875 479.531 26.151 478.857 26.703 478.313C27.2531 477.771 27.9354 477.5 28.75 477.5C29.5646 477.5 30.2479 477.771 30.7999 478.313C31.3499 478.857 31.625 479.531 31.625 480.333V483.167H37.375V480.333C37.375 479.531 37.651 478.857 38.203 478.313C38.7531 477.771 39.4354 477.5 40.25 477.5C41.0646 477.5 41.7479 477.771 42.2999 478.313C42.8499 478.857 43.125 479.531 43.125 480.333V483.167H48.875C50.4562 483.167 51.8104 483.722 52.9373 484.833C54.0624 485.941 54.625 487.275 54.625 488.833V494.5H57.5C58.3146 494.5 58.9969 494.771 59.547 495.313C60.099 495.857 60.375 496.531 60.375 497.333C60.375 498.136 60.099 498.809 59.547 499.351C58.9969 499.895 58.3146 500.167 57.5 500.167H54.625V505.833H57.5C58.3146 505.833 58.9969 506.104 59.547 506.646C60.099 507.19 60.375 507.864 60.375 508.667C60.375 509.469 60.099 510.142 59.547 510.684C58.9969 511.228 58.3146 511.5 57.5 511.5H54.625V517.167C54.625 518.725 54.0624 520.059 52.9373 521.17C51.8104 522.279 50.4562 522.833 48.875 522.833H43.125V525.667C43.125 526.469 42.8499 527.142 42.2999 527.684C41.7479 528.228 41.0646 528.5 40.25 528.5C39.4354 528.5 38.7531 528.228 38.203 527.684C37.651 527.142 37.375 526.469 37.375 525.667V522.833H31.625V525.667C31.625 526.469 31.3499 527.142 30.7999 527.684C30.2479 528.228 29.5646 528.5 28.75 528.5ZM20.125 517.167H48.875V488.833H20.125V517.167ZM31.625 505.833H37.375V500.167H31.625V505.833ZM31.625 505.833V500.167H37.375V505.833H31.625Z" fill="#374151"/>
<path d="M189.299 752.993C189.534 752.738 189.721 752.436 189.849 752.103C189.976 751.771 190.042 751.414 190.042 751.054C190.042 750.694 189.976 750.337 189.849 750.004C189.721 749.672 189.534 749.369 189.299 749.115L182.106 741.333C181.871 741.078 181.591 740.875 181.284 740.737C180.976 740.599 180.647 740.528 180.314 740.528C179.981 740.528 179.651 740.599 179.344 740.737C179.037 740.875 178.757 741.078 178.522 741.333L167.11 753.68L157.223 742.983C155.24 740.838 152.012 740.838 150.03 742.983L145.201 748.208C143.218 750.353 143.218 753.845 145.201 755.99L155.088 766.688L143.625 779.09V790.75H154.402L165.89 778.32L175.777 789.018C178.192 791.63 181.445 790.668 182.97 789.018L187.799 783.793C189.782 781.648 189.782 778.155 187.799 776.01L177.912 765.313L189.299 752.993V752.993ZM148.81 752.085L153.614 746.86L156.842 750.353L153.842 753.625L157.426 757.503L160.451 754.23L163.501 757.53L158.672 762.755L148.81 752.085V752.085ZM177.353 772.545L174.328 775.818L177.912 779.695L180.937 776.423L184.165 779.915L179.335 785.14L169.448 774.443L174.277 769.218L177.353 772.545V772.545ZM152.292 785.25H148.708V781.373L173.134 754.945L176.438 758.52L176.717 758.823L152.292 785.25ZM176.717 751.04L180.301 747.163L183.885 751.04L180.301 754.918L176.717 751.04Z" fill="#374151"/>
</svg>
