<svg width="1093" height="799" viewBox="0 0 1093 799" fill="none" xmlns="http://www.w3.org/2000/svg">
<circle cx="733" cy="406" r="360" fill="white"/>
<path d="M1015 564.047H451.445V564.327H1015V564.047Z" fill="#EBEBEB"/>
<path d="M953.302 576.849H895.932V577.129H953.302V576.849Z" fill="#EBEBEB"/>
<path d="M563.784 573.54H510.573V573.819H563.784V573.54Z" fill="#EBEBEB"/>
<path d="M900.035 571.661H878.406V571.941H900.035V571.661Z" fill="#EBEBEB"/>
<path d="M824.766 579.074H808.897V579.353H824.766V579.074Z" fill="#EBEBEB"/>
<path d="M798.854 579.074H758.909V579.353H798.854V579.074Z" fill="#EBEBEB"/>
<path d="M735.713 574.356H671.479V574.635H735.713V574.356Z" fill="#EBEBEB"/>
<path d="M718.57 514.183H500.937C499.232 514.18 497.598 513.506 496.393 512.309C495.189 511.112 494.512 509.49 494.512 507.799V204.328C494.527 202.647 495.21 201.039 496.413 199.854C497.616 198.669 499.242 198.003 500.937 198H718.57C720.277 198 721.914 198.673 723.121 199.87C724.328 201.067 725.006 202.691 725.006 204.384V507.799C725.006 509.492 724.328 511.116 723.121 512.313C721.914 513.51 720.277 514.183 718.57 514.183V514.183ZM500.937 198.224C499.307 198.227 497.744 198.871 496.592 200.016C495.441 201.16 494.794 202.711 494.794 204.328V507.799C494.794 509.416 495.441 510.967 496.592 512.111C497.744 513.256 499.307 513.9 500.937 513.903H718.57C720.202 513.9 721.765 513.256 722.919 512.112C724.072 510.968 724.721 509.417 724.724 507.799V204.328C724.721 202.71 724.072 201.159 722.919 200.015C721.765 198.871 720.202 198.227 718.57 198.224H500.937Z" fill="#EBEBEB"/>
<path d="M962.375 514.183H744.73C743.024 514.18 741.389 513.506 740.183 512.31C738.976 511.113 738.297 509.491 738.294 507.799V204.328C738.312 202.646 738.998 201.038 740.202 199.853C741.407 198.669 743.034 198.003 744.73 198H962.375C964.068 198.006 965.691 198.673 966.892 199.858C968.092 201.042 968.773 202.649 968.788 204.328V507.799C968.788 509.488 968.113 511.108 966.911 512.305C965.709 513.502 964.078 514.177 962.375 514.183V514.183ZM744.73 198.224C743.099 198.227 741.535 198.871 740.382 200.015C739.229 201.159 738.579 202.71 738.576 204.328V507.799C738.579 509.417 739.229 510.968 740.382 512.112C741.535 513.256 743.099 513.9 744.73 513.903H962.375C964.006 513.9 965.57 513.256 966.723 512.112C967.877 510.968 968.526 509.417 968.529 507.799V204.328C968.526 202.71 967.877 201.159 966.723 200.015C965.57 198.871 964.006 198.227 962.375 198.224H744.73Z" fill="#EBEBEB"/>
<path d="M891.435 232.29H776.695V564.047H891.435V232.29Z" fill="#EBEBEB"/>
<path d="M883.692 557.339V238.999H784.438V557.339H883.692Z" fill="#FAFAFA"/>
<path d="M773.258 232.29H658.518V564.047H773.258V232.29Z" fill="#EBEBEB"/>
<path d="M773.257 562.75H776.695V233.599H773.257V562.75Z" fill="#E0E0E0"/>
<path d="M765.514 557.328V238.987H666.261V557.328H765.514Z" fill="#FAFAFA"/>
<path d="M943.845 229.797H606.107C605.711 229.794 605.331 229.637 605.05 229.358C604.77 229.08 604.611 228.704 604.608 228.31V228.31C604.611 227.917 604.77 227.54 605.05 227.262C605.331 226.984 605.711 226.826 606.107 226.823H943.845C944.242 226.826 944.622 226.984 944.902 227.262C945.183 227.54 945.342 227.917 945.345 228.31V228.31C945.342 228.704 945.183 229.08 944.902 229.358C944.622 229.637 944.242 229.794 943.845 229.797V229.797Z" fill="#E0E0E0"/>
<path d="M883.692 245.338V238.999H784.438V245.338H883.692Z" fill="#E0E0E0"/>
<path d="M883.692 249.676V238.987H784.438V249.676H883.692Z" fill="#E0E0E0"/>
<path d="M765.514 262.343V238.987H666.261V262.343H765.514Z" fill="#E0E0E0"/>
<g opacity="0.8">
<path opacity="0.8" d="M906.166 219.869H874.382V559.966H906.166V219.869Z" fill="#F5F5F5"/>
<path opacity="0.8" d="M897.78 219.869H882.779V559.966H897.78V219.869Z" fill="#F0F0F0"/>
<path opacity="0.8" d="M923.22 219.869H891.435V559.966H923.22V219.869Z" fill="#F5F5F5"/>
<path opacity="0.8" d="M914.834 219.869H899.832V559.966H914.834V219.869Z" fill="#F0F0F0"/>
<path opacity="0.8" d="M939.112 219.869H907.327V559.966H939.112V219.869Z" fill="#F5F5F5"/>
</g>
<g opacity="0.8">
<path opacity="0.8" d="M655.97 219.869H609.838V559.966H655.97V219.869Z" fill="#F5F5F5"/>
<path opacity="0.8" d="M643.786 219.869H622.011V559.966H643.786V219.869Z" fill="#F0F0F0"/>
<path opacity="0.8" d="M680.71 219.869H634.578V559.966H680.71V219.869Z" fill="#F5F5F5"/>
<path opacity="0.8" d="M668.526 219.869H646.751V559.966H668.526V219.869Z" fill="#F0F0F0"/>
<path opacity="0.8" d="M703.771 219.869H657.639V559.966H703.771V219.869Z" fill="#F5F5F5"/>
</g>
<path d="M587.938 254.718H513.515V420.938H587.938V254.718Z" fill="#F0F0F0"/>
<path d="M587.938 420.949H590.283V254.729H587.938V420.949Z" fill="#E6E6E6"/>
<path d="M581.176 414.23V261.427H520.278V414.23H581.176Z" fill="#FAFAFA"/>
<path d="M592.627 503.304H516.232C514.552 503.301 512.941 502.639 511.752 501.461C510.563 500.284 509.892 498.687 509.886 497.021V497.021C509.892 495.354 510.563 493.758 511.752 492.58C512.941 491.403 514.552 490.74 516.232 490.737H592.627C594.305 490.743 595.913 491.407 597.1 492.584C598.286 493.761 598.956 495.356 598.961 497.021V497.021C598.956 498.685 598.286 500.28 597.1 501.457C595.913 502.634 594.305 503.298 592.627 503.304Z" fill="#F5F5F5"/>
<path d="M534.603 503.304H522.059L507.801 564.047H520.334L534.603 503.304Z" fill="#E6E6E6"/>
<path d="M559.625 503.304H547.092L540.07 564.047H552.604L559.625 503.304Z" fill="#E6E6E6"/>
<path d="M574.255 503.304H586.789L601.058 564.047H588.513L574.255 503.304Z" fill="#E6E6E6"/>
<path d="M733.223 614.538C853.916 614.538 951.758 608.872 951.758 601.882C951.758 594.892 853.916 589.226 733.223 589.226C612.529 589.226 514.688 594.892 514.688 601.882C514.688 608.872 612.529 614.538 733.223 614.538Z" fill="#F5F5F5"/>
<path d="M806 470.087H709.824C708 470.087 706.521 471.554 706.521 473.363V477.119C706.521 478.929 708 480.395 709.824 480.395H806C807.824 480.395 809.302 478.929 809.302 477.119V473.363C809.302 471.554 807.824 470.087 806 470.087Z" fill="#263238"/>
<path d="M805.087 595.174H809.302L804.456 480.395H798.617L805.087 595.174Z" fill="#374151"/>
<path opacity="0.6" d="M805.087 595.174H809.302L804.456 480.395H798.617L805.087 595.174Z" fill="white"/>
<path d="M766.281 595.174H762.065L766.912 480.395H772.75L766.281 595.174Z" fill="#374151"/>
<path opacity="0.6" d="M766.281 595.174H762.065L766.912 480.395H772.75L766.281 595.174Z" fill="white"/>
<path d="M749.555 595.174H753.77L748.912 480.395H743.085L749.555 595.174Z" fill="#374151"/>
<path opacity="0.6" d="M749.555 595.174H753.77L748.912 480.395H743.085L749.555 595.174Z" fill="white"/>
<path d="M710.737 595.174H706.521L711.379 480.395H717.206L710.737 595.174Z" fill="#374151"/>
<path opacity="0.6" d="M710.737 595.174H706.521L711.379 480.395H717.206L710.737 595.174Z" fill="white"/>
<g opacity="0.3">
<path opacity="0.3" d="M804.456 480.384H798.617L798.888 485.27H804.659L804.456 480.384Z" fill="#374151"/>
<path opacity="0.3" d="M766.709 485.27H772.468L772.75 480.384H766.912L766.709 485.27Z" fill="#374151"/>
<path opacity="0.3" d="M743.085 480.384L743.355 485.27H749.126L748.912 480.384H743.085Z" fill="#374151"/>
<path opacity="0.3" d="M711.165 485.27H716.947L717.218 480.384H711.379L711.165 485.27Z" fill="#374151"/>
</g>
<path d="M746.838 578.302L737.303 583.334L722.267 563.198L731.814 558.166L746.838 578.302Z" fill="#FFB573"/>
<path d="M733.854 580.225L743.818 573.361C743.899 573.292 743.994 573.241 744.097 573.21C744.2 573.18 744.307 573.172 744.414 573.185C744.52 573.199 744.622 573.235 744.713 573.29C744.805 573.345 744.884 573.419 744.945 573.506L750.907 580.986C751.194 581.398 751.306 581.905 751.22 582.399C751.133 582.892 750.855 583.332 750.445 583.624C746.94 585.95 745.362 586.766 740.774 589.472C737.945 591.126 731.183 595.062 727.024 596.862C722.865 598.662 721.196 594.525 722.797 593.396C726.595 590.735 731.622 585.503 732.761 581.824C732.936 581.186 733.321 580.623 733.854 580.225V580.225Z" fill="#263238"/>
<path opacity="0.2" d="M731.825 558.178L722.267 563.198L729.515 572.902L738.847 567.58L731.825 558.178Z" fill="black"/>
<path d="M754.852 438.905C754.852 438.905 680.756 436.613 680.463 467.325C680.102 511.466 722.335 569.436 722.335 569.436L738.858 558.535C738.858 558.535 709.914 516.396 709.666 481.938C731.498 475.823 782.928 479.702 789.589 461.702C795.045 447.011 792.193 438.905 792.193 438.905H754.852Z" fill="#374151"/>
<path opacity="0.2" d="M754.852 438.905C754.852 438.905 680.756 436.613 680.463 467.325C680.102 511.466 722.335 569.436 722.335 569.436L738.858 558.535C738.858 558.535 709.914 516.396 709.666 481.938C731.498 475.823 782.928 479.702 789.589 461.702C795.045 447.011 792.193 438.905 792.193 438.905H754.852Z" fill="black"/>
<path d="M743.344 561.342L723.687 573.283L717.522 567.077L739.117 553.583L743.344 561.342Z" fill="#263238"/>
<path d="M731.791 583.926C732.578 583.361 733.297 582.709 733.933 581.981C733.966 581.945 733.989 581.9 733.996 581.852C734.004 581.804 733.997 581.754 733.977 581.71C733.956 581.666 733.923 581.628 733.881 581.603C733.839 581.577 733.79 581.565 733.741 581.567C733.324 581.567 729.627 581.567 728.838 582.763C728.748 582.897 728.693 583.051 728.679 583.212C728.666 583.372 728.693 583.533 728.759 583.68C728.834 583.912 728.969 584.12 729.151 584.283C729.334 584.446 729.556 584.558 729.796 584.608C730.523 584.632 731.234 584.389 731.791 583.926V583.926ZM733.155 582.081C731.791 583.49 730.585 584.239 729.886 584.116C729.73 584.082 729.586 584.005 729.47 583.895C729.355 583.784 729.273 583.644 729.233 583.49C729.191 583.423 729.169 583.345 729.169 583.266C729.169 583.187 729.191 583.11 729.233 583.043C729.684 582.417 731.679 582.137 733.155 582.081V582.081Z" fill="#374151"/>
<path d="M733.888 582.026C733.92 582.001 733.946 581.971 733.966 581.936C733.988 581.899 734 581.856 734 581.813C734 581.77 733.988 581.728 733.966 581.69C733.899 581.578 732.321 578.917 730.833 578.671C730.633 578.633 730.426 578.642 730.23 578.698C730.034 578.755 729.854 578.857 729.706 578.996C729.536 579.121 729.413 579.299 729.356 579.501C729.299 579.704 729.311 579.919 729.39 580.114C729.864 581.232 732.467 582.137 733.718 582.059L733.888 582.026ZM730.179 579.253C730.261 579.193 730.354 579.15 730.453 579.127C730.552 579.104 730.654 579.101 730.754 579.119C731.645 579.264 732.727 580.662 733.29 581.511C732.062 581.4 730.213 580.617 729.909 579.89C729.852 579.756 729.819 579.566 730.1 579.32C730.123 579.342 730.146 579.309 730.179 579.253Z" fill="#374151"/>
<path d="M729.199 590.646L718.491 590.142L716.733 565.065L727.44 565.568L729.199 590.646Z" fill="#FFB573"/>
<path d="M718.244 588.331L730.36 587.951C730.565 587.936 730.767 588.001 730.923 588.133C731.079 588.265 731.177 588.453 731.194 588.655L732.084 598.148C732.103 598.65 731.92 599.139 731.575 599.508C731.231 599.877 730.754 600.095 730.247 600.115C726.032 600.115 724.003 599.992 718.672 600.115C715.392 600.216 708.945 600.697 704.448 600.115C699.951 599.534 700.638 595.162 702.588 594.995C707.22 594.626 713.431 591.451 716.406 588.98C716.93 588.569 717.576 588.341 718.244 588.331V588.331Z" fill="#263238"/>
<path d="M714.479 590.31C715.448 590.259 716.408 590.101 717.342 589.841C717.389 589.828 717.431 589.803 717.464 589.767C717.496 589.731 717.517 589.687 717.524 589.639C717.532 589.591 717.525 589.543 717.504 589.499C717.484 589.455 717.451 589.419 717.41 589.393C717.06 589.17 713.938 587.157 712.642 587.739C712.494 587.803 712.364 587.903 712.266 588.03C712.167 588.157 712.103 588.307 712.078 588.465C712.012 588.7 712.009 588.947 712.07 589.183C712.132 589.419 712.255 589.634 712.428 589.807C713.023 590.226 713.756 590.406 714.479 590.31V590.31ZM716.632 589.505C714.716 589.941 713.25 589.93 712.777 589.449C712.667 589.333 712.59 589.191 712.552 589.036C712.514 588.881 712.518 588.719 712.563 588.566C712.572 588.488 712.602 588.414 712.65 588.351C712.697 588.288 712.761 588.239 712.833 588.208C713.532 587.906 715.358 588.745 716.632 589.505V589.505Z" fill="#374151"/>
<path d="M717.285 589.852C717.322 589.862 717.361 589.862 717.398 589.852C717.435 589.832 717.466 589.803 717.487 589.768C717.509 589.732 717.521 589.692 717.522 589.651C717.522 589.516 717.68 586.431 716.553 585.424C716.405 585.284 716.225 585.182 716.029 585.128C715.832 585.073 715.625 585.067 715.426 585.111C715.21 585.123 715.005 585.207 714.843 585.349C714.682 585.491 714.573 585.683 714.535 585.894C714.321 587.012 716 589.248 717.094 589.852C717.156 589.872 717.223 589.872 717.285 589.852V589.852ZM715.674 585.559C715.773 585.553 715.872 585.567 715.966 585.602C716.059 585.637 716.144 585.69 716.215 585.76C716.891 586.364 717.026 588.119 717.037 589.114C716.068 588.354 714.941 586.699 715.088 585.927C715.088 585.782 715.189 585.603 715.55 585.547L715.674 585.559Z" fill="#374151"/>
<path opacity="0.2" d="M727.452 565.568L716.733 565.065L717.736 579.409L728.421 579.398L727.452 565.568Z" fill="black"/>
<path d="M781.203 438.905C781.203 438.905 703.681 446.172 706.499 469.327C710.579 502.712 712.585 574.669 712.585 574.669L732.343 575.44C732.343 575.44 740.718 510.594 736.39 476.348C756.452 476.348 805.571 477.779 810.046 465.794C814.002 455.195 812.593 438.961 812.593 438.961L781.203 438.905Z" fill="#374151"/>
<path d="M734.53 576.648L710.816 575.485L709.959 565.244L735.973 567.021L734.53 576.648Z" fill="#263238"/>
<path d="M764.004 371.084C763.858 372.963 763.711 374.595 763.497 376.317C763.283 378.039 763.057 379.671 762.787 381.415C762.257 384.769 761.581 388.123 760.792 391.556C759.255 398.648 756.757 405.5 753.364 411.926C752.351 413.732 751.186 415.448 749.881 417.058C748.422 418.875 746.698 420.466 744.764 421.776C741.045 424.227 736.743 425.669 732.287 425.958C728.386 426.211 724.469 425.834 720.689 424.84C718.906 424.387 717.152 423.827 715.437 423.163C714.58 422.839 713.746 422.481 712.923 422.045C712.101 421.609 711.334 421.251 710.387 420.748L713.352 413.268L715.505 413.536L717.759 413.76C719.269 413.883 720.757 413.961 722.267 413.961C725.005 414.007 727.738 413.695 730.394 413.033C732.522 412.527 734.492 411.509 736.131 410.071C736.833 409.418 737.461 408.691 738.002 407.902C738.667 406.885 739.262 405.824 739.782 404.726C740.974 402.161 741.951 399.502 742.702 396.777C743.558 393.948 744.246 390.986 744.866 387.967C745.486 384.948 745.993 381.896 746.5 378.821L747.165 374.193C747.368 372.672 747.593 371.04 747.74 369.72L764.004 371.084Z" fill="#FFB573"/>
<path d="M764.071 361.972C756.182 354.381 746.376 358.864 742.476 373.153C740.269 380.78 738.76 388.59 737.968 396.486L763.068 401.629C767.633 388 772.187 369.754 764.071 361.972Z" fill="#263238"/>
<path opacity="0.3" d="M755.99 377.513C757.782 375.914 762.877 383.103 765.988 391.969C765.108 395.324 764.105 398.555 763.08 401.585L747.976 398.488C749.182 389.633 751.966 381.113 755.99 377.513Z" fill="black"/>
<path d="M711.65 409.914L706.014 407.779L705.766 419.641C705.766 419.641 715.234 423.699 717.161 419.037L716.485 416.074C716.159 414.769 715.56 413.546 714.727 412.485C713.894 411.424 712.846 410.548 711.65 409.914Z" fill="#FFB573"/>
<path d="M699.365 408.092L696.04 418.042L705.812 419.641L706.06 407.779L699.365 408.092Z" fill="#FFB573"/>
<path d="M707.885 416.018C707.766 416.02 707.649 415.989 707.547 415.927C707.446 415.866 707.364 415.778 707.31 415.672L697.245 396.453C697.166 396.301 697.149 396.125 697.2 395.962C697.25 395.798 697.364 395.661 697.516 395.581C697.67 395.505 697.848 395.492 698.012 395.544C698.176 395.597 698.313 395.71 698.395 395.86L708.426 415.046C708.506 415.197 708.522 415.374 708.472 415.537C708.421 415.7 708.308 415.837 708.156 415.918C708.073 415.969 707.981 416.003 707.885 416.018V416.018Z" fill="#263238"/>
<path d="M763.136 354.358L775.174 351.004L790.638 350.289C792.986 350.177 795.307 350.834 797.242 352.16C799.177 353.485 800.618 355.405 801.345 357.623C804.287 366.567 806.981 379.447 808.976 390.594C811.23 403.105 812.357 421.899 812.594 438.961H754.852C753.533 403.351 748.968 382.298 746.962 370.648C746.562 368.365 746.927 366.015 748.002 363.957C749.077 361.899 750.802 360.248 752.913 359.255L763.136 354.358Z" fill="#263238"/>
<path opacity="0.3" d="M808.976 390.549C807.42 381.773 805.414 371.889 803.182 363.716C792.892 361.995 787.91 384.378 790.964 395.48C794.019 406.582 810.306 399.851 810.306 399.851C809.922 396.508 809.471 393.367 808.976 390.549Z" fill="black"/>
<path d="M773.122 327.693C775.602 333.73 774.114 344.799 769.223 341.669C764.331 338.538 771.612 324.026 773.122 327.693Z" fill="#263238"/>
<path d="M770.417 331.561L765.74 338.65L759.383 348.298C760.204 349.124 760.869 350.09 761.344 351.15C762.471 353.475 763.474 355.208 758.549 358.54C758.02 358.876 757.599 359.357 757.337 359.924C757.076 360.491 756.984 361.12 757.072 361.737C757.365 363.247 758.876 364.711 764.184 363.783C769.301 362.812 773.969 360.242 777.507 356.449C779.276 354.694 778.871 353.374 777.169 351.552C772.3 346.409 770.857 338.191 770.417 331.561Z" fill="#FFB573"/>
<path opacity="0.2" d="M760.905 345.917L764.804 339.041C764.887 339.22 764.977 339.41 765.075 339.611C765.421 340.461 765.7 341.335 765.909 342.228C766.619 345.28 764.23 349.64 761.603 351.72L761.299 351.127C760.826 350.137 760.219 349.216 759.496 348.388C759.45 348.342 759.396 348.305 759.338 348.276L760.905 345.917Z" fill="black"/>
<path d="M737.495 323.221C736.041 326.474 741.192 335.687 747.086 331.964C752.981 328.241 740.064 317.463 737.495 323.221Z" fill="#263238"/>
<path d="M765.909 365.762C765.831 365.764 765.755 365.737 765.695 365.688C765.635 365.639 765.595 365.57 765.582 365.494C765.153 362.732 763.328 361.022 761.265 358.942C758.65 356.404 755.686 353.52 754.716 347.874C754.701 347.791 754.72 347.705 754.769 347.636C754.818 347.567 754.892 347.52 754.976 347.505C755.059 347.49 755.146 347.509 755.215 347.557C755.285 347.605 755.333 347.679 755.348 347.762C756.294 353.207 759.18 356.013 761.716 358.484C763.801 360.508 765.762 362.419 766.224 365.393C766.232 365.435 766.232 365.479 766.222 365.52C766.213 365.562 766.195 365.601 766.169 365.636C766.144 365.67 766.112 365.7 766.075 365.721C766.038 365.743 765.996 365.757 765.954 365.762H765.909Z" fill="white"/>
<path d="M768.31 319.945C770.564 330.075 772.322 335.9 768.682 342.306C763.181 351.999 749.431 350.68 744.201 341.356C739.489 332.97 736.683 317.81 745.441 311.269C747.4 309.824 749.695 308.893 752.114 308.562C754.533 308.231 756.997 308.511 759.277 309.377C761.558 310.242 763.581 311.664 765.16 313.511C766.739 315.359 767.822 317.572 768.31 319.945V319.945Z" fill="#FFB573"/>
<path d="M771.342 326.899C767.825 331.852 758.605 322.762 759.36 316.658C750.208 321.823 740.267 328.722 734.237 322.908C727.272 316.199 729.176 306.584 737.337 305.723C735.894 308.518 744.099 309.76 748.461 305.444C755.844 298.199 767.509 299.708 767.295 305.578C772.92 303.364 779.062 316.021 771.342 326.899Z" fill="#263238"/>
<path d="M766.213 307.222C768.388 305.612 766.946 299.876 761.896 298.199C766.698 298.814 771.668 302.358 766.213 307.222Z" fill="#263238"/>
<path d="M774.599 326.452C774.696 328.768 773.934 331.039 772.458 332.836C770.519 335.128 767.532 333.306 766.822 330.443C766.202 327.883 767.002 323.914 769.55 322.684C772.097 321.454 774.464 323.567 774.599 326.452Z" fill="#FFB573"/>
<path d="M753.657 328.163C753.928 328.979 753.725 329.806 753.184 329.996C752.643 330.186 752.057 329.683 751.73 328.878C751.403 328.073 751.662 327.235 752.203 327.033C752.744 326.832 753.387 327.335 753.657 328.163Z" fill="#263238"/>
<path d="M744.415 331.517C744.696 332.344 744.482 333.171 743.941 333.362C743.4 333.552 742.758 333.048 742.487 332.243C742.217 331.438 742.431 330.6 742.961 330.41C743.49 330.22 744.144 330.701 744.415 331.517Z" fill="#263238"/>
<path d="M747.582 331.047C747.619 333.493 747.331 335.932 746.725 338.303C748.382 338.907 750.208 337.487 750.208 337.487L747.582 331.047Z" fill="#ED893E"/>
<path d="M752.53 342.037C753.49 341.724 754.376 341.221 755.133 340.558C755.891 339.895 756.505 339.086 756.937 338.18C756.964 338.118 756.964 338.048 756.939 337.985C756.914 337.922 756.864 337.872 756.802 337.845C756.737 337.822 756.667 337.825 756.604 337.851C756.541 337.878 756.491 337.928 756.464 337.99C755.98 338.967 755.276 339.819 754.406 340.482C753.536 341.146 752.524 341.601 751.448 341.814C751.413 341.818 751.379 341.83 751.348 341.848C751.318 341.866 751.292 341.89 751.271 341.919C751.25 341.948 751.235 341.98 751.228 342.015C751.22 342.049 751.22 342.085 751.227 342.119C751.234 342.154 751.248 342.187 751.269 342.216C751.289 342.245 751.315 342.269 751.345 342.288C751.375 342.306 751.409 342.318 751.444 342.323C751.479 342.328 751.515 342.326 751.55 342.317C751.882 342.245 752.21 342.152 752.53 342.037V342.037Z" fill="#263238"/>
<path d="M754.503 324.607C754.581 324.57 754.647 324.512 754.694 324.44C754.766 324.325 754.79 324.187 754.761 324.055C754.731 323.924 754.651 323.809 754.536 323.735C753.87 323.289 753.102 323.012 752.302 322.93C751.502 322.849 750.694 322.964 749.949 323.266C749.887 323.293 749.831 323.333 749.784 323.383C749.738 323.432 749.702 323.491 749.679 323.554C749.656 323.618 749.646 323.686 749.649 323.753C749.653 323.821 749.671 323.887 749.701 323.948C749.762 324.068 749.868 324.161 749.996 324.205C750.125 324.249 750.266 324.241 750.389 324.182C750.976 323.957 751.61 323.876 752.236 323.946C752.862 324.016 753.462 324.236 753.984 324.585C754.059 324.637 754.148 324.667 754.24 324.671C754.332 324.675 754.423 324.653 754.503 324.607V324.607Z" fill="#263238"/>
<path d="M742.589 326.217C742.61 326.133 742.61 326.044 742.589 325.96C742.534 325.836 742.433 325.738 742.306 325.688C742.18 325.638 742.038 325.639 741.913 325.692C741.162 325.98 740.495 326.449 739.972 327.056C739.449 327.663 739.086 328.389 738.915 329.169C738.892 329.301 738.923 329.436 739.002 329.545C739.08 329.654 739.199 329.728 739.332 329.75C739.465 329.772 739.601 329.741 739.711 329.664C739.821 329.586 739.895 329.469 739.918 329.337C740.064 328.727 740.359 328.162 740.775 327.691C741.191 327.219 741.717 326.855 742.307 326.631C742.386 326.591 742.453 326.533 742.502 326.46C742.551 326.388 742.581 326.304 742.589 326.217Z" fill="#263238"/>
<path d="M799.35 357.88C800.478 359.691 801.379 361.324 802.315 363.068C803.25 364.812 804.152 366.511 805.031 368.256C806.812 371.733 808.412 375.31 809.968 378.955C811.523 382.6 812.887 386.357 814.059 390.27C815.342 394.377 816.203 398.602 816.629 402.881C816.857 405.379 816.77 407.896 816.37 410.372C816.112 412.006 815.611 413.592 814.882 415.079C814.037 416.759 812.865 418.257 811.433 419.484C810.144 420.596 808.672 421.481 807.082 422.101C805.748 422.62 804.361 422.995 802.946 423.219C800.556 423.589 798.128 423.653 795.721 423.409C793.572 423.227 791.44 422.887 789.342 422.391C787.339 421.939 785.36 421.387 783.413 420.737C779.587 419.48 775.87 417.917 772.3 416.063L775.151 408.539C782.162 409.858 789.691 411.077 796.014 410.696C797.397 410.625 798.766 410.392 800.094 410.003C801.221 409.668 801.796 409.165 801.751 409.008C801.706 408.852 801.684 409.008 801.661 408.896C801.638 408.785 801.661 408.773 801.661 408.203C801.731 406.947 801.655 405.686 801.436 404.447C800.896 401.256 800.055 398.123 798.922 395.089C797.795 391.846 796.431 388.57 794.955 385.328C793.478 382.086 791.889 378.832 790.277 375.59C789.466 373.965 788.628 372.359 787.764 370.771L785.216 366.087L799.35 357.88Z" fill="#FFB573"/>
<path d="M794.087 350.4C783.199 348.757 777.845 358.026 782.974 371.867C785.622 379.354 788.949 386.588 792.915 393.479L816.392 383.271C812.121 369.575 805.223 352.089 794.087 350.4Z" fill="#263238"/>
<path d="M769.11 407.51L764.083 409.008L771.218 419.071C771.218 419.071 781.79 415.314 779.626 410.753L776.966 409.254C774.689 407.946 771.804 406.593 769.11 407.51Z" fill="#FFB573"/>
<path d="M759.631 415.94L764.669 420.927L771.218 419.06L764.083 409.008L759.631 415.94Z" fill="#FFB573"/>
<path d="M770.62 329.65C771.516 329.65 772.243 328.779 772.243 327.704C772.243 326.63 771.516 325.759 770.62 325.759C769.724 325.759 768.997 326.63 768.997 327.704C768.997 328.779 769.724 329.65 770.62 329.65Z" fill="white"/>
<path d="M771.961 332.847L771.026 332.814L770.451 328.33L772.232 327.939L771.961 332.847Z" fill="white"/>
<path d="M778.431 417.36C775.05 417.36 772.052 416.857 770.237 415.225C769.56 414.578 769.033 413.793 768.693 412.924C768.352 412.056 768.206 411.124 768.264 410.193C768.368 405.583 769.092 401.007 770.417 396.587C771.984 390.494 773.224 385.686 769.459 379.749C763.463 370.324 765.255 357.142 769.459 348.88C772.671 342.563 771.544 335.519 771.139 332.925C771.082 332.59 771.037 332.322 771.015 332.143C771.01 332.101 771.014 332.058 771.026 332.018C771.039 331.977 771.059 331.94 771.086 331.907C771.114 331.875 771.148 331.849 771.186 331.829C771.224 331.81 771.265 331.799 771.308 331.796C771.393 331.787 771.478 331.811 771.546 331.863C771.613 331.915 771.657 331.992 771.668 332.076C771.668 332.243 771.725 332.501 771.77 332.825C772.198 335.519 773.314 342.664 770 349.171C765.886 357.276 764.128 370.19 770 379.358C773.911 385.518 772.581 390.695 771.037 396.687C769.739 401.047 769.03 405.559 768.929 410.104C768.868 410.945 768.993 411.788 769.295 412.576C769.597 413.364 770.068 414.077 770.676 414.666C773.72 417.382 780.437 416.689 786.929 416.018C789.837 415.728 792.847 415.415 795.495 415.415C795.582 415.415 795.665 415.449 795.727 415.51C795.788 415.57 795.822 415.653 795.822 415.739C795.822 415.825 795.788 415.907 795.727 415.968C795.665 416.029 795.582 416.063 795.495 416.063C792.881 416.063 789.86 416.365 786.997 416.667C784.155 417.041 781.296 417.272 778.431 417.36V417.36Z" fill="white"/>
<path d="M808.987 414.967H796.16C795.787 414.967 795.484 415.268 795.484 415.638V416.533C795.484 416.903 795.787 417.203 796.16 417.203H808.987C809.36 417.203 809.663 416.903 809.663 416.533V415.638C809.663 415.268 809.36 414.967 808.987 414.967Z" fill="white"/>
<path d="M889.485 424.65H576.96C575.966 424.647 575.013 424.254 574.309 423.556C573.606 422.859 573.21 421.913 573.207 420.927C573.21 419.94 573.606 418.995 574.309 418.298C575.013 417.6 575.966 417.207 576.96 417.204H889.485C890.479 417.207 891.432 417.6 892.136 418.298C892.839 418.995 893.235 419.94 893.238 420.927V420.927C893.235 421.913 892.839 422.859 892.136 423.556C891.432 424.254 890.479 424.647 889.485 424.65V424.65Z" fill="#374151"/>
<path opacity="0.3" d="M889.485 424.65H816.325C815.33 424.647 814.377 424.254 813.674 423.556C812.971 422.859 812.574 421.913 812.571 420.927V420.927C812.574 419.94 812.971 418.995 813.674 418.298C814.377 417.6 815.33 417.207 816.325 417.204H889.485C890.48 417.207 891.433 417.6 892.136 418.298C892.839 418.995 893.236 419.94 893.239 420.927V420.927C893.236 421.913 892.839 422.859 892.136 423.556C891.433 424.254 890.48 424.647 889.485 424.65V424.65Z" fill="#263238"/>
<path d="M886.036 600.071H893.238L884.954 424.65H874.99L886.036 600.071Z" fill="#263238"/>
<path opacity="0.1" d="M886.036 600.071H893.238L884.954 424.65H874.99L886.036 600.071Z" fill="white"/>
<path d="M819.774 600.071H812.571L820.856 424.65H830.819L819.774 600.071Z" fill="#263238"/>
<path opacity="0.2" d="M819.774 600.071H812.571L820.856 424.65H830.819L819.774 600.071Z" fill="white"/>
<path d="M646.683 600.071H653.874L645.59 424.65H635.626L646.683 600.071Z" fill="#263238"/>
<path opacity="0.1" d="M646.683 600.071H653.874L645.59 424.65H635.626L646.683 600.071Z" fill="white"/>
<path d="M580.409 600.071H573.207L581.491 424.65H591.455L580.409 600.071Z" fill="#263238"/>
<path opacity="0.2" d="M580.409 600.071H573.207L581.491 424.65H591.455L580.409 600.071Z" fill="white"/>
<path d="M823.944 433.986H583.588V448.688H823.944V433.986Z" fill="#263238"/>
<path opacity="0.2" d="M823.944 433.986H583.588V448.688H823.944V433.986Z" fill="white"/>
<path d="M623.138 407.32C622.721 407.32 622.322 407.484 622.026 407.775C621.731 408.066 621.563 408.461 621.56 408.874V415.583C621.56 415.998 621.726 416.396 622.022 416.689C622.318 416.983 622.72 417.148 623.138 417.148H674.252C674.388 417.148 674.518 417.095 674.615 417.001C674.712 416.907 674.768 416.779 674.771 416.645V407.767C674.768 407.633 674.712 407.505 674.615 407.411C674.518 407.317 674.388 407.264 674.252 407.264L623.138 407.32Z" fill="#374151"/>
<path opacity="0.9" d="M653.389 408.259H674.804V416.265H653.389C653.147 416.265 652.915 416.169 652.744 415.999C652.573 415.83 652.476 415.599 652.476 415.359V409.154C652.479 408.916 652.577 408.688 652.748 408.521C652.919 408.353 653.149 408.259 653.389 408.259V408.259Z" fill="white"/>
<path d="M649.873 407.32H598.24C597.369 407.32 596.662 408.021 596.662 408.885V415.65C596.662 416.514 597.369 417.215 598.24 417.215H649.873C650.744 417.215 651.451 416.514 651.451 415.65V408.885C651.451 408.021 650.744 407.32 649.873 407.32Z" fill="#374151"/>
<path opacity="0.2" d="M649.873 407.32H598.24C597.369 407.32 596.662 408.021 596.662 408.885V415.65C596.662 416.514 597.369 417.215 598.24 417.215H649.873C650.744 417.215 651.451 416.514 651.451 415.65V408.885C651.451 408.021 650.744 407.32 649.873 407.32Z" fill="black"/>
<path opacity="0.5" d="M624.479 407.32H616.646C616.291 407.32 616.003 407.605 616.003 407.957V416.578C616.003 416.929 616.291 417.215 616.646 417.215H624.479C624.834 417.215 625.122 416.929 625.122 416.578V407.957C625.122 407.605 624.834 407.32 624.479 407.32Z" fill="#374151"/>
<path opacity="0.5" d="M635.784 407.32H627.962C627.607 407.32 627.32 407.605 627.32 407.957V416.578C627.32 416.929 627.607 417.215 627.962 417.215H635.784C636.139 417.215 636.427 416.929 636.427 416.578V407.957C636.427 407.605 636.139 407.32 635.784 407.32Z" fill="#374151"/>
<path d="M613.895 395.133C613.688 395.133 613.483 395.174 613.291 395.253C613.1 395.331 612.926 395.447 612.78 395.592C612.633 395.737 612.517 395.91 612.437 396.1C612.358 396.29 612.317 396.493 612.317 396.699V405.755C612.317 405.96 612.358 406.164 612.437 406.354C612.517 406.544 612.633 406.716 612.78 406.862C612.926 407.007 613.1 407.122 613.291 407.201C613.483 407.28 613.688 407.32 613.895 407.32H669.27C669.406 407.317 669.535 407.262 669.63 407.166C669.724 407.069 669.777 406.94 669.777 406.806V395.625C669.777 395.491 669.724 395.362 669.63 395.266C669.535 395.169 669.406 395.114 669.27 395.111L613.895 395.133Z" fill="#374151"/>
<path opacity="0.9" d="M644.181 396.084H669.812V406.381H644.181C643.939 406.381 643.707 406.286 643.536 406.116C643.365 405.946 643.268 405.716 643.268 405.475V397.012C643.265 396.891 643.287 396.771 643.331 396.658C643.376 396.546 643.443 396.443 643.528 396.357C643.613 396.27 643.714 396.202 643.827 396.155C643.939 396.108 644.059 396.084 644.181 396.084Z" fill="white"/>
<path d="M640.619 395.134H597.203C596.331 395.134 595.625 395.834 595.625 396.699V405.744C595.625 406.608 596.331 407.309 597.203 407.309H640.619C641.491 407.309 642.197 406.608 642.197 405.744V396.699C642.197 395.834 641.491 395.134 640.619 395.134Z" fill="#374151"/>
<path opacity="0.2" d="M640.619 395.134H597.203C596.331 395.134 595.625 395.834 595.625 396.699V405.744C595.625 406.608 596.331 407.309 597.203 407.309H640.619C641.491 407.309 642.197 406.608 642.197 405.744V396.699C642.197 395.834 641.491 395.134 640.619 395.134Z" fill="white"/>
<path opacity="0.6" d="M636.55 397.548H604.755C604.226 397.548 603.797 397.974 603.797 398.499V403.944C603.797 404.469 604.226 404.894 604.755 404.894H636.55C637.08 404.894 637.508 404.469 637.508 403.944V398.499C637.508 397.974 637.08 397.548 636.55 397.548Z" fill="#374151"/>
<path d="M630.137 389.309C629.269 389.309 628.559 389.722 628.559 390.225V394.217C628.559 394.72 629.269 395.134 630.137 395.134H681.263C681.545 395.134 681.77 394.999 681.77 394.843V389.61C681.77 389.443 681.545 389.309 681.263 389.309H630.137Z" fill="#374151"/>
<path opacity="0.9" d="M660.186 389.856H681.77V394.575H660.186C660.001 394.575 659.823 394.501 659.692 394.371C659.561 394.241 659.487 394.065 659.487 393.881V390.527C659.493 390.347 659.569 390.177 659.7 390.051C659.83 389.926 660.005 389.856 660.186 389.856V389.856Z" fill="white"/>
<path d="M657.244 389.309H604.868C604.202 389.309 603.662 389.844 603.662 390.505V393.948C603.662 394.609 604.202 395.145 604.868 395.145H657.244C657.91 395.145 658.45 394.609 658.45 393.948V390.505C658.45 389.844 657.91 389.309 657.244 389.309Z" fill="#374151"/>
<path opacity="0.2" d="M657.244 389.309H604.868C604.202 389.309 603.662 389.844 603.662 390.505V393.948C603.662 394.609 604.202 395.145 604.868 395.145H657.244C657.91 395.145 658.45 394.609 658.45 393.948V390.505C658.45 389.844 657.91 389.309 657.244 389.309Z" fill="black"/>
<path opacity="0.5" d="M611.45 389.309H609.815C609.685 389.309 609.579 389.414 609.579 389.543V394.91C609.579 395.04 609.685 395.145 609.815 395.145H611.45C611.58 395.145 611.686 395.04 611.686 394.91V389.543C611.686 389.414 611.58 389.309 611.45 389.309Z" fill="#374151"/>
<path opacity="0.5" d="M653.964 389.309H652.364C652.233 389.309 652.127 389.414 652.127 389.543V394.91C652.127 395.04 652.233 395.145 652.364 395.145H653.964C654.095 395.145 654.201 395.04 654.201 394.91V389.543C654.201 389.414 654.095 389.309 653.964 389.309Z" fill="#374151"/>
<path d="M620.895 380.879C620.027 380.879 619.317 381.292 619.317 381.795V388.381C619.317 388.895 620.027 389.309 620.895 389.309H676.27C676.552 389.309 676.788 389.174 676.788 389.007V381.18C676.788 381.013 676.552 380.879 676.27 380.879H620.895Z" fill="#374151"/>
<path opacity="0.9" d="M650.944 381.426H676.788V388.75H650.944C650.758 388.75 650.581 388.677 650.45 388.547C650.318 388.417 650.245 388.24 650.245 388.056V382.12C650.245 381.936 650.318 381.759 650.45 381.629C650.581 381.499 650.758 381.426 650.944 381.426V381.426Z" fill="white"/>
<path d="M647.991 380.879H603.831C603.164 380.879 602.625 381.414 602.625 382.075V388.112C602.625 388.773 603.164 389.309 603.831 389.309H647.991C648.657 389.309 649.197 388.773 649.197 388.112V382.075C649.197 381.414 648.657 380.879 647.991 380.879Z" fill="#374151"/>
<path opacity="0.1" d="M647.991 380.879H603.831C603.164 380.879 602.625 381.414 602.625 382.075V388.112C602.625 388.773 603.164 389.309 603.831 389.309H647.991C648.657 389.309 649.197 388.773 649.197 388.112V382.075C649.197 381.414 648.657 380.879 647.991 380.879Z" fill="black"/>
<path d="M744.404 415.348H697.888C697.639 415.348 697.399 415.445 697.222 415.619C697.045 415.793 696.944 416.029 696.941 416.276V416.276C696.944 416.523 697.045 416.759 697.222 416.933C697.399 417.106 697.639 417.204 697.888 417.204H744.404C744.652 417.204 744.89 417.106 745.065 416.932C745.24 416.758 745.339 416.522 745.339 416.276V416.276C745.339 416.03 745.24 415.794 745.065 415.62C744.89 415.446 744.652 415.348 744.404 415.348V415.348Z" fill="white"/>
<path d="M835.406 413.134H865.973L868.735 417.103H832.645L835.406 413.134Z" fill="#263238"/>
<path d="M882.61 345.392C882.61 346.199 882.368 346.988 881.916 347.659C881.464 348.33 880.822 348.853 880.07 349.162C879.318 349.471 878.491 349.552 877.693 349.394C876.895 349.237 876.162 348.848 875.587 348.277C875.011 347.707 874.62 346.98 874.461 346.188C874.302 345.396 874.384 344.576 874.695 343.83C875.006 343.084 875.534 342.447 876.21 341.999C876.887 341.55 877.682 341.311 878.496 341.311C879.036 341.309 879.572 341.414 880.072 341.619C880.572 341.823 881.026 342.124 881.408 342.503C881.79 342.882 882.093 343.333 882.3 343.828C882.506 344.324 882.611 344.855 882.61 345.392V345.392Z" fill="black"/>
<path d="M851.704 415.817C851.49 415.817 851.279 415.764 851.09 415.664C850.901 415.563 850.74 415.418 850.621 415.241C850.502 415.065 850.429 414.862 850.407 414.65C850.386 414.439 850.417 414.225 850.498 414.029L879.95 344.889C880.102 344.6 880.358 344.379 880.667 344.268C880.976 344.158 881.315 344.167 881.618 344.294C881.92 344.421 882.163 344.656 882.299 344.953C882.435 345.249 882.453 345.586 882.35 345.895L852.899 415.024C852.8 415.257 852.634 415.457 852.422 415.598C852.209 415.739 851.96 415.815 851.704 415.817Z" fill="#263238"/>
<path d="M881.144 346.7C880.865 346.697 880.593 346.607 880.367 346.443L826.885 306.652C826.61 306.447 826.429 306.142 826.38 305.805C826.331 305.467 826.42 305.124 826.626 304.852C826.832 304.579 827.14 304.398 827.48 304.35C827.82 304.302 828.166 304.39 828.441 304.594L881.933 344.363C882.15 344.528 882.308 344.755 882.388 345.014C882.467 345.273 882.463 345.549 882.376 345.805C882.289 346.062 882.124 346.285 881.903 346.443C881.682 346.601 881.417 346.687 881.144 346.689V346.7Z" fill="#263238"/>
<path d="M885.259 345.392C885.259 346.199 885.017 346.988 884.565 347.659C884.113 348.33 883.471 348.853 882.719 349.162C881.967 349.471 881.14 349.552 880.342 349.394C879.544 349.237 878.811 348.848 878.236 348.277C877.66 347.707 877.269 346.98 877.11 346.188C876.951 345.396 877.033 344.576 877.344 343.83C877.655 343.084 878.183 342.447 878.859 341.999C879.536 341.55 880.331 341.311 881.145 341.311C881.685 341.309 882.221 341.414 882.721 341.619C883.221 341.823 883.675 342.124 884.057 342.503C884.439 342.882 884.742 343.333 884.949 343.828C885.155 344.324 885.26 344.855 885.259 345.392V345.392Z" fill="#263238"/>
<path d="M827.663 309.693C829.929 309.693 831.766 307.871 831.766 305.623C831.766 303.375 829.929 301.553 827.663 301.553C825.397 301.553 823.561 303.375 823.561 305.623C823.561 307.871 825.397 309.693 827.663 309.693Z" fill="#263238"/>
<path d="M821.915 324.227C820.629 325.503 818.99 326.372 817.206 326.724C815.422 327.076 813.573 326.895 811.892 326.205C810.211 325.514 808.775 324.345 807.764 322.845C806.754 321.344 806.214 319.581 806.214 317.776C806.214 315.972 806.754 314.208 807.764 312.708C808.775 311.207 810.211 310.038 811.892 309.347C813.573 308.657 815.422 308.476 817.206 308.828C818.99 309.18 820.629 310.049 821.915 311.325C823.637 313.037 824.604 315.357 824.604 317.776C824.604 320.195 823.637 322.515 821.915 324.227V324.227Z" fill="#374151"/>
<path opacity="0.7" d="M821.915 324.227C820.629 325.503 818.99 326.372 817.206 326.724C815.422 327.076 813.573 326.895 811.892 326.205C810.211 325.514 808.775 324.345 807.764 322.845C806.754 321.344 806.214 319.581 806.214 317.776C806.214 315.972 806.754 314.208 807.764 312.708C808.775 311.207 810.211 310.038 811.892 309.347C813.573 308.657 815.422 308.476 817.206 308.828C818.99 309.18 820.629 310.049 821.915 311.325C823.637 313.037 824.604 315.357 824.604 317.776C824.604 320.195 823.637 322.515 821.915 324.227V324.227Z" fill="white"/>
<path d="M827.663 305.623C825.834 303.807 823.663 302.366 821.272 301.383C818.882 300.4 816.32 299.895 813.732 299.895C811.144 299.895 808.582 300.4 806.192 301.383C803.801 302.366 801.63 303.807 799.801 305.623L827.663 333.283C829.496 331.468 830.95 329.312 831.942 326.939C832.934 324.566 833.445 322.022 833.445 319.453C833.445 316.884 832.934 314.34 831.942 311.967C830.95 309.594 829.496 307.438 827.663 305.623V305.623Z" fill="#263238"/>
<g opacity="0.2">
<path opacity="0.2" d="M799.79 305.623L682.773 417.204H802.822L827.663 333.272L799.79 305.623Z" fill="#374151"/>
<path opacity="0.7" d="M799.79 305.623L682.773 417.204H802.822L827.663 333.272L799.79 305.623Z" fill="white"/>
</g>
<path d="M540.25 24.75H547.75V57.75H540.25V24.75ZM530.25 35.75H537.75V57.75H530.25V35.75ZM520.25 30.25H527.75V57.75H520.25V30.25ZM510.25 44H517.75V57.75H510.25V44ZM500.25 38.5H507.75V57.75H500.25V38.5Z" fill="#283245"/>
<path d="M504 26.125C506.071 26.125 507.75 24.2782 507.75 22C507.75 19.7218 506.071 17.875 504 17.875C501.929 17.875 500.25 19.7218 500.25 22C500.25 24.2782 501.929 26.125 504 26.125Z" fill="#283245"/>
<path d="M514 28.875C516.071 28.875 517.75 27.0282 517.75 24.75C517.75 22.4718 516.071 20.625 514 20.625C511.929 20.625 510.25 22.4718 510.25 24.75C510.25 27.0282 511.929 28.875 514 28.875Z" fill="#283245"/>
<path d="M524 19.25C526.071 19.25 527.75 17.4032 527.75 15.125C527.75 12.8468 526.071 11 524 11C521.929 11 520.25 12.8468 520.25 15.125C520.25 17.4032 521.929 19.25 524 19.25Z" fill="#283245"/>
<path d="M534 22C536.071 22 537.75 20.1532 537.75 17.875C537.75 15.5968 536.071 13.75 534 13.75C531.929 13.75 530.25 15.5968 530.25 17.875C530.25 20.1532 531.929 22 534 22Z" fill="#283245"/>
<path d="M544 16.5C546.071 16.5 547.75 14.6532 547.75 12.375C547.75 10.0968 546.071 8.25 544 8.25C541.929 8.25 540.25 10.0968 540.25 12.375C540.25 14.6532 541.929 16.5 544 16.5Z" fill="#283245"/>
<path d="M542.875 9.89999L533.75 14.9875L523.375 12.1L513.375 21.725L504.625 19.3875L503.375 24.6125L514.625 27.775L524.625 18.15L534.25 20.7625L545.125 14.85L542.875 9.89999Z" fill="#283245"/>
<path d="M350.156 217L337.25 231.875L334.65 228.879L344.938 217L334.65 205.121L337.25 202.125L350.156 217ZM294.844 217L307.75 202.125L310.35 205.121L300.062 217L310.35 228.879L307.75 231.875L294.844 217ZM315.899 237.154L325.524 195.75L329.086 196.849L319.461 238.25L315.899 237.154Z" fill="#374151"/>
<path d="M282.75 511.5C281.935 511.5 281.253 511.228 280.703 510.684C280.151 510.142 279.875 509.469 279.875 508.667V497.333C279.875 496.531 280.151 495.857 280.703 495.313C281.253 494.771 281.935 494.5 282.75 494.5H294.25C295.065 494.5 295.748 494.771 296.3 495.313C296.85 495.857 297.125 496.531 297.125 497.333V508.667C297.125 509.469 296.85 510.142 296.3 510.684C295.748 511.228 295.065 511.5 294.25 511.5H282.75ZM282.75 528.5C281.935 528.5 281.253 528.228 280.703 527.684C280.151 527.142 279.875 526.469 279.875 525.667V522.833H274.125C272.544 522.833 271.191 522.279 270.065 521.17C268.938 520.059 268.375 518.725 268.375 517.167V511.5H265.5C264.685 511.5 264.003 511.228 263.453 510.684C262.901 510.142 262.625 509.469 262.625 508.667C262.625 507.864 262.901 507.19 263.453 506.646C264.003 506.104 264.685 505.833 265.5 505.833H268.375V500.167H265.5C264.685 500.167 264.003 499.895 263.453 499.351C262.901 498.809 262.625 498.136 262.625 497.333C262.625 496.531 262.901 495.857 263.453 495.313C264.003 494.771 264.685 494.5 265.5 494.5H268.375V488.833C268.375 487.275 268.938 485.941 270.065 484.833C271.191 483.722 272.544 483.167 274.125 483.167H279.875V480.333C279.875 479.531 280.151 478.857 280.703 478.313C281.253 477.771 281.935 477.5 282.75 477.5C283.565 477.5 284.248 477.771 284.8 478.313C285.35 478.857 285.625 479.531 285.625 480.333V483.167H291.375V480.333C291.375 479.531 291.651 478.857 292.203 478.313C292.753 477.771 293.435 477.5 294.25 477.5C295.065 477.5 295.748 477.771 296.3 478.313C296.85 478.857 297.125 479.531 297.125 480.333V483.167H302.875C304.456 483.167 305.81 483.722 306.937 484.833C308.062 485.941 308.625 487.275 308.625 488.833V494.5H311.5C312.315 494.5 312.997 494.771 313.547 495.313C314.099 495.857 314.375 496.531 314.375 497.333C314.375 498.136 314.099 498.809 313.547 499.351C312.997 499.895 312.315 500.167 311.5 500.167H308.625V505.833H311.5C312.315 505.833 312.997 506.104 313.547 506.646C314.099 507.19 314.375 507.864 314.375 508.667C314.375 509.469 314.099 510.142 313.547 510.684C312.997 511.228 312.315 511.5 311.5 511.5H308.625V517.167C308.625 518.725 308.062 520.059 306.937 521.17C305.81 522.279 304.456 522.833 302.875 522.833H297.125V525.667C297.125 526.469 296.85 527.142 296.3 527.684C295.748 528.228 295.065 528.5 294.25 528.5C293.435 528.5 292.753 528.228 292.203 527.684C291.651 527.142 291.375 526.469 291.375 525.667V522.833H285.625V525.667C285.625 526.469 285.35 527.142 284.8 527.684C284.248 528.228 283.565 528.5 282.75 528.5ZM274.125 517.167H302.875V488.833H274.125V517.167ZM285.625 505.833H291.375V500.167H285.625V505.833ZM285.625 505.833V500.167H291.375V505.833H285.625Z" fill="#374151"/>
<path d="M443.299 752.993C443.534 752.738 443.721 752.436 443.849 752.103C443.976 751.771 444.042 751.414 444.042 751.054C444.042 750.694 443.976 750.337 443.849 750.004C443.721 749.672 443.534 749.369 443.299 749.115L436.106 741.333C435.871 741.078 435.591 740.875 435.284 740.737C434.976 740.599 434.647 740.528 434.314 740.528C433.981 740.528 433.651 740.599 433.344 740.737C433.037 740.875 432.757 741.078 432.522 741.333L421.11 753.68L411.223 742.983C409.24 740.838 406.012 740.838 404.03 742.983L399.201 748.208C397.218 750.353 397.218 753.845 399.201 755.99L409.088 766.688L397.625 779.09V790.75H408.402L419.89 778.32L429.777 789.018C432.192 791.63 435.445 790.668 436.97 789.018L441.799 783.793C443.782 781.648 443.782 778.155 441.799 776.01L431.912 765.313L443.299 752.993V752.993ZM402.81 752.085L407.614 746.86L410.842 750.353L407.842 753.625L411.426 757.503L414.451 754.23L417.501 757.53L412.672 762.755L402.81 752.085V752.085ZM431.353 772.545L428.328 775.818L431.912 779.695L434.937 776.423L438.165 779.915L433.335 785.14L423.448 774.443L428.277 769.218L431.353 772.545V772.545ZM406.292 785.25H402.708V781.373L427.134 754.945L430.438 758.52L430.717 758.823L406.292 785.25ZM430.717 751.04L434.301 747.163L437.885 751.04L434.301 754.918L430.717 751.04Z" fill="#374151"/>
<rect y="349" width="248" height="45" rx="20" fill="url(#paint0_linear_22_309)"/>
<path d="M70.72 379.24C68.96 379.24 67.6067 378.867 66.66 378.12C65.7267 377.36 65.26 376.307 65.26 374.96V365H67.62V374.96C67.62 375.76 67.88 376.367 68.4 376.78C68.9333 377.193 69.7067 377.4 70.72 377.4C71.7333 377.4 72.5 377.193 73.02 376.78C73.5533 376.367 73.82 375.76 73.82 374.96V365H76.18V374.96C76.18 376.307 75.7067 377.36 74.76 378.12C73.8267 378.867 72.48 379.24 70.72 379.24ZM84.177 369.36C85.057 369.36 85.8037 369.573 86.417 370C87.0304 370.413 87.4904 370.973 87.797 371.68C88.1037 372.373 88.257 373.14 88.257 373.98V374.62C88.257 375.46 88.1037 376.233 87.797 376.94C87.4904 377.633 87.0304 378.193 86.417 378.62C85.8037 379.033 85.057 379.24 84.177 379.24C83.4037 379.24 82.7837 379.127 82.317 378.9C81.8637 378.66 81.4837 378.327 81.177 377.9V383.38H78.997V372.1C78.997 371.78 78.9304 371.52 78.797 371.32C78.677 371.107 78.4637 370.88 78.157 370.64L79.617 369.36C80.0304 369.573 80.3504 369.813 80.577 370.08C80.8037 370.333 80.957 370.633 81.037 370.98C81.7304 369.9 82.777 369.36 84.177 369.36ZM86.077 373.98C86.077 373.14 85.857 372.447 85.417 371.9C84.977 371.34 84.3637 371.06 83.577 371.06C82.3504 371.06 81.5504 371.667 81.177 372.88V375.72C81.5504 376.933 82.3504 377.54 83.577 377.54C84.3637 377.54 84.977 377.267 85.417 376.72C85.857 376.16 86.077 375.46 86.077 374.62V373.98ZM99.3163 376.5C99.3163 376.82 99.3763 377.08 99.4963 377.28C99.6163 377.48 99.8363 377.707 100.156 377.96L98.7163 379.24C97.9963 378.867 97.5296 378.333 97.3163 377.64C96.9696 378.173 96.5363 378.573 96.0163 378.84C95.5096 379.107 94.8896 379.24 94.1562 379.24C92.9029 379.24 91.9029 378.827 91.1563 378C90.4229 377.16 90.0563 376.033 90.0563 374.62V373.98C90.0563 373.113 90.2163 372.333 90.5363 371.64C90.8563 370.933 91.3229 370.38 91.9363 369.98C92.5496 369.567 93.2896 369.36 94.1562 369.36C95.4763 369.36 96.4696 369.793 97.1363 370.66V366.9C97.1363 366.58 97.0763 366.32 96.9563 366.12C96.8363 365.92 96.6163 365.693 96.2963 365.44L97.7563 364.18C98.3429 364.487 98.7496 364.84 98.9763 365.24C99.2029 365.627 99.3163 366.167 99.3163 366.86V376.5ZM97.1363 372.88C96.7763 371.667 95.9763 371.06 94.7363 371.06C93.9496 371.06 93.3363 371.34 92.8963 371.9C92.4563 372.447 92.2363 373.14 92.2363 373.98V374.62C92.2363 375.46 92.4563 376.16 92.8963 376.72C93.3363 377.267 93.9496 377.54 94.7363 377.54C95.9763 377.54 96.7763 376.933 97.1363 375.72V372.88ZM109.88 376.5C109.88 376.82 109.94 377.08 110.06 377.28C110.18 377.48 110.4 377.707 110.72 377.96L109.26 379.24C108.513 378.867 108.04 378.373 107.84 377.76C107.533 378.187 107.113 378.54 106.58 378.82C106.047 379.1 105.413 379.24 104.68 379.24C103.72 379.24 102.96 379 102.4 378.52C101.84 378.027 101.56 377.333 101.56 376.44C101.56 375.413 101.913 374.687 102.62 374.26C103.327 373.833 104.227 373.56 105.32 373.44L106.48 373.32C106.907 373.28 107.207 373.207 107.38 373.1C107.567 372.98 107.673 372.807 107.7 372.58C107.62 371.46 106.947 370.9 105.68 370.9C105.187 370.9 104.76 370.987 104.4 371.16C104.053 371.32 103.72 371.593 103.4 371.98L101.9 370.92C102.26 370.427 102.74 370.047 103.34 369.78C103.94 369.5 104.72 369.36 105.68 369.36C107.08 369.36 108.127 369.653 108.82 370.24C109.527 370.813 109.88 371.653 109.88 372.76V376.5ZM105.22 377.64C105.993 377.64 106.6 377.447 107.04 377.06C107.48 376.673 107.7 376.187 107.7 375.6V374.52C107.447 374.627 107.007 374.713 106.38 374.78L105.48 374.88C104.253 375.013 103.64 375.5 103.64 376.34C103.64 376.767 103.773 377.093 104.04 377.32C104.32 377.533 104.713 377.64 105.22 377.64ZM114.593 371.3V375.74C114.593 376.313 114.693 376.727 114.893 376.98C115.093 377.233 115.419 377.36 115.873 377.36H117.313V379.04H115.873C114.619 379.04 113.726 378.793 113.193 378.3C112.673 377.793 112.413 376.94 112.413 375.74V367.9C112.413 367.58 112.353 367.32 112.233 367.12C112.113 366.92 111.893 366.693 111.573 366.44L113.033 365.16C113.619 365.467 114.026 365.82 114.253 366.22C114.479 366.607 114.593 367.153 114.593 367.86V369.6H117.313V371.3H114.593ZM123.147 377.56C123.667 377.56 124.101 377.493 124.447 377.36C124.807 377.213 125.167 376.967 125.527 376.62L126.827 377.82C126.427 378.287 125.927 378.64 125.327 378.88C124.727 379.12 123.987 379.24 123.107 379.24C121.667 379.24 120.601 378.947 119.907 378.36C119.214 377.76 118.867 376.847 118.867 375.62V372.7C118.867 371.673 119.227 370.867 119.947 370.28C120.681 369.68 121.681 369.38 122.947 369.38C124.241 369.38 125.247 369.7 125.967 370.34C126.687 370.967 127.047 371.873 127.047 373.06C127.047 373.607 126.994 374.033 126.887 374.34C126.781 374.647 126.587 374.873 126.307 375.02C126.027 375.153 125.614 375.22 125.067 375.22H121.027V375.62C121.027 376.913 121.734 377.56 123.147 377.56ZM122.927 371.04C122.341 371.04 121.874 371.207 121.527 371.54C121.194 371.873 121.027 372.313 121.027 372.86V373.72H123.887C124.261 373.72 124.521 373.66 124.667 373.54C124.814 373.407 124.887 373.18 124.887 372.86C124.887 372.273 124.714 371.827 124.367 371.52C124.034 371.2 123.554 371.04 122.927 371.04ZM137.91 376.5C137.91 376.82 137.97 377.08 138.09 377.28C138.21 377.48 138.43 377.707 138.75 377.96L137.31 379.24C136.59 378.867 136.123 378.333 135.91 377.64C135.563 378.173 135.13 378.573 134.61 378.84C134.103 379.107 133.483 379.24 132.75 379.24C131.497 379.24 130.497 378.827 129.75 378C129.017 377.16 128.65 376.033 128.65 374.62V373.98C128.65 373.113 128.81 372.333 129.13 371.64C129.45 370.933 129.917 370.38 130.53 369.98C131.143 369.567 131.883 369.36 132.75 369.36C134.07 369.36 135.063 369.793 135.73 370.66V366.9C135.73 366.58 135.67 366.32 135.55 366.12C135.43 365.92 135.21 365.693 134.89 365.44L136.35 364.18C136.937 364.487 137.343 364.84 137.57 365.24C137.797 365.627 137.91 366.167 137.91 366.86V376.5ZM135.73 372.88C135.37 371.667 134.57 371.06 133.33 371.06C132.543 371.06 131.93 371.34 131.49 371.9C131.05 372.447 130.83 373.14 130.83 373.98V374.62C130.83 375.46 131.05 376.16 131.49 376.72C131.93 377.267 132.543 377.54 133.33 377.54C134.57 377.54 135.37 376.933 135.73 375.72V372.88ZM151.951 365H153.211C153.838 365 154.345 365.087 154.731 365.26C155.118 365.433 155.458 365.707 155.751 366.08C156.045 366.453 156.371 367 156.731 367.72L158.491 371.18L160.251 367.72C160.611 367 160.938 366.453 161.231 366.08C161.525 365.707 161.865 365.433 162.251 365.26C162.638 365.087 163.145 365 163.771 365H165.031V379H162.871V367.44C162.698 367.453 162.545 367.533 162.411 367.68C162.291 367.813 162.145 368.047 161.971 368.38L158.491 374.86L155.011 368.38C154.825 368.033 154.671 367.793 154.551 367.66C154.431 367.513 154.285 367.433 154.111 367.42V379H151.951V365ZM176.013 376.5C176.013 376.82 176.073 377.08 176.193 377.28C176.313 377.48 176.533 377.707 176.853 377.96L175.393 379.24C174.646 378.867 174.173 378.373 173.973 377.76C173.666 378.187 173.246 378.54 172.713 378.82C172.18 379.1 171.546 379.24 170.813 379.24C169.853 379.24 169.093 379 168.533 378.52C167.973 378.027 167.693 377.333 167.693 376.44C167.693 375.413 168.046 374.687 168.753 374.26C169.46 373.833 170.36 373.56 171.453 373.44L172.613 373.32C173.04 373.28 173.34 373.207 173.513 373.1C173.7 372.98 173.806 372.807 173.833 372.58C173.753 371.46 173.08 370.9 171.813 370.9C171.32 370.9 170.893 370.987 170.533 371.16C170.186 371.32 169.853 371.593 169.533 371.98L168.033 370.92C168.393 370.427 168.873 370.047 169.473 369.78C170.073 369.5 170.853 369.36 171.813 369.36C173.213 369.36 174.26 369.653 174.953 370.24C175.66 370.813 176.013 371.653 176.013 372.76V376.5ZM171.353 377.64C172.126 377.64 172.733 377.447 173.173 377.06C173.613 376.673 173.833 376.187 173.833 375.6V374.52C173.58 374.627 173.14 374.713 172.513 374.78L171.613 374.88C170.386 375.013 169.773 375.5 169.773 376.34C169.773 376.767 169.906 377.093 170.173 377.32C170.453 377.533 170.846 377.64 171.353 377.64ZM180.725 371.3V375.74C180.725 376.313 180.825 376.727 181.025 376.98C181.225 377.233 181.552 377.36 182.005 377.36H183.445V379.04H182.005C180.752 379.04 179.859 378.793 179.325 378.3C178.805 377.793 178.545 376.94 178.545 375.74V367.9C178.545 367.58 178.485 367.32 178.365 367.12C178.245 366.92 178.025 366.693 177.705 366.44L179.165 365.16C179.752 365.467 180.159 365.82 180.385 366.22C180.612 366.607 180.725 367.153 180.725 367.86V369.6H183.445V371.3H180.725ZM189.28 377.56C189.8 377.56 190.233 377.493 190.58 377.36C190.94 377.213 191.3 376.967 191.66 376.62L192.96 377.82C192.56 378.287 192.06 378.64 191.46 378.88C190.86 379.12 190.12 379.24 189.24 379.24C187.8 379.24 186.733 378.947 186.04 378.36C185.347 377.76 185 376.847 185 375.62V372.7C185 371.673 185.36 370.867 186.08 370.28C186.813 369.68 187.813 369.38 189.08 369.38C190.373 369.38 191.38 369.7 192.1 370.34C192.82 370.967 193.18 371.873 193.18 373.06C193.18 373.607 193.127 374.033 193.02 374.34C192.913 374.647 192.72 374.873 192.44 375.02C192.16 375.153 191.747 375.22 191.2 375.22H187.16V375.62C187.16 376.913 187.867 377.56 189.28 377.56ZM189.06 371.04C188.473 371.04 188.007 371.207 187.66 371.54C187.327 371.873 187.16 372.313 187.16 372.86V373.72H190.02C190.393 373.72 190.653 373.66 190.8 373.54C190.947 373.407 191.02 373.18 191.02 372.86C191.02 372.273 190.847 371.827 190.5 371.52C190.167 371.2 189.687 371.04 189.06 371.04ZM200.225 369.36C200.838 369.36 201.378 369.527 201.845 369.86L201.285 371.7C201.045 371.54 200.798 371.427 200.545 371.36C200.305 371.28 200.025 371.24 199.705 371.24C198.665 371.24 197.932 372.007 197.505 373.54V379H195.325V372.1C195.325 371.78 195.265 371.52 195.145 371.32C195.025 371.12 194.805 370.893 194.485 370.64L195.945 369.36C196.412 369.6 196.758 369.867 196.985 370.16C197.225 370.44 197.378 370.793 197.445 371.22C197.725 370.647 198.098 370.193 198.565 369.86C199.032 369.527 199.585 369.36 200.225 369.36ZM204.609 368.06C204.249 368.06 203.936 367.933 203.669 367.68C203.416 367.413 203.289 367.1 203.289 366.74C203.289 366.393 203.416 366.093 203.669 365.84C203.936 365.573 204.249 365.44 204.609 365.44C204.956 365.44 205.256 365.573 205.509 365.84C205.776 366.093 205.909 366.393 205.909 366.74C205.909 367.1 205.776 367.413 205.509 367.68C205.256 367.933 204.956 368.06 204.609 368.06ZM205.089 379.24C204.503 378.933 204.089 378.58 203.849 378.18C203.623 377.78 203.509 377.233 203.509 376.54V369.6H205.689V376.5C205.689 376.82 205.749 377.08 205.869 377.28C205.989 377.48 206.209 377.707 206.529 377.96L205.089 379.24ZM216.443 376.5C216.443 376.82 216.503 377.08 216.623 377.28C216.743 377.48 216.963 377.707 217.283 377.96L215.823 379.24C215.076 378.867 214.603 378.373 214.403 377.76C214.096 378.187 213.676 378.54 213.143 378.82C212.609 379.1 211.976 379.24 211.243 379.24C210.283 379.24 209.523 379 208.963 378.52C208.403 378.027 208.123 377.333 208.123 376.44C208.123 375.413 208.476 374.687 209.183 374.26C209.889 373.833 210.789 373.56 211.883 373.44L213.043 373.32C213.469 373.28 213.769 373.207 213.943 373.1C214.129 372.98 214.236 372.807 214.263 372.58C214.183 371.46 213.509 370.9 212.243 370.9C211.749 370.9 211.323 370.987 210.963 371.16C210.616 371.32 210.283 371.593 209.963 371.98L208.463 370.92C208.823 370.427 209.303 370.047 209.903 369.78C210.503 369.5 211.283 369.36 212.243 369.36C213.643 369.36 214.689 369.653 215.383 370.24C216.089 370.813 216.443 371.653 216.443 372.76V376.5ZM211.783 377.64C212.556 377.64 213.163 377.447 213.603 377.06C214.043 376.673 214.263 376.187 214.263 375.6V374.52C214.009 374.627 213.569 374.713 212.943 374.78L212.043 374.88C210.816 375.013 210.203 375.5 210.203 376.34C210.203 376.767 210.336 377.093 210.603 377.32C210.883 377.533 211.276 377.64 211.783 377.64ZM220.558 379.24C219.971 378.933 219.558 378.58 219.318 378.18C219.091 377.78 218.978 377.233 218.978 376.54V366.9C218.978 366.567 218.918 366.3 218.798 366.1C218.678 365.9 218.458 365.68 218.138 365.44L219.598 364.16C220.184 364.467 220.591 364.82 220.818 365.22C221.044 365.607 221.158 366.153 221.158 366.86V376.5C221.158 376.82 221.218 377.08 221.338 377.28C221.471 377.48 221.698 377.707 222.018 377.96L220.558 379.24ZM227.091 379.24C226.118 379.24 225.364 379.107 224.831 378.84C224.311 378.56 223.824 378.12 223.371 377.52L224.731 376.36C225.104 376.8 225.458 377.107 225.791 377.28C226.124 377.453 226.558 377.54 227.091 377.54C227.744 377.54 228.224 377.447 228.531 377.26C228.838 377.073 228.991 376.787 228.991 376.4C228.991 376.16 228.918 375.967 228.771 375.82C228.638 375.66 228.384 375.52 228.011 375.4C227.651 375.28 227.124 375.16 226.431 375.04C224.564 374.693 223.631 373.72 223.631 372.12C223.631 371.267 223.958 370.593 224.611 370.1C225.278 369.607 226.164 369.36 227.271 369.36C228.938 369.36 230.098 369.887 230.751 370.94L229.411 372.08C229.078 371.72 228.751 371.46 228.431 371.3C228.111 371.14 227.724 371.06 227.271 371.06C226.764 371.06 226.371 371.16 226.091 371.36C225.824 371.56 225.691 371.833 225.691 372.18C225.691 372.513 225.844 372.773 226.151 372.96C226.458 373.133 226.878 373.273 227.411 373.38C228.251 373.567 228.924 373.767 229.431 373.98C229.938 374.18 230.338 374.48 230.631 374.88C230.924 375.267 231.071 375.787 231.071 376.44C231.071 378.307 229.744 379.24 227.091 379.24Z" fill="#374151"/>
<path d="M24.8889 359.622H40.8889V361H24.8889V359.622Z" fill="#374151"/>
<path d="M41.7778 362.111H24.7645C24.5376 362.108 24.3138 362.059 24.1064 361.967C23.8991 361.875 23.7126 361.742 23.5581 361.575C23.4036 361.409 23.2843 361.214 23.2075 361C23.1307 360.787 23.0979 360.56 23.1111 360.333C23.11 359.883 23.2802 359.448 23.5871 359.118C23.894 358.788 24.3149 358.587 24.7645 358.556H41.7778C42.0135 358.556 42.2396 358.462 42.4063 358.295C42.573 358.129 42.6667 357.902 42.6667 357.667C42.6667 357.431 42.573 357.205 42.4063 357.038C42.2396 356.871 42.0135 356.778 41.7778 356.778H24.7645C23.8432 356.81 22.9705 357.199 22.3304 357.862C21.6903 358.525 21.3328 359.412 21.3334 360.333C21.3248 360.478 21.3248 360.624 21.3334 360.769C21.3248 360.84 21.3248 360.911 21.3334 360.982V381.667C21.3328 382.588 21.6903 383.474 22.3304 384.138C22.9705 384.801 23.8432 385.19 24.7645 385.222H41.7778C42.0135 385.222 42.2396 385.129 42.4063 384.962C42.573 384.795 42.6667 384.569 42.6667 384.333V363.062C42.6672 362.82 42.5756 362.587 42.4105 362.411C42.2453 362.234 42.0191 362.127 41.7778 362.111V362.111ZM40.8889 383.444H24.7645C24.3149 383.413 23.894 383.212 23.5871 382.882C23.2802 382.552 23.11 382.117 23.1111 381.667V363.489C23.6165 363.768 24.1875 363.906 24.7645 363.889H40.8889V383.444Z" fill="#374151"/>
<rect x="48" y="93" width="304" height="45" rx="20" fill="url(#paint1_linear_22_309)"/>
<path d="M118.48 114.44C119.933 114.44 121.087 114.833 121.94 115.62C122.807 116.393 123.24 117.44 123.24 118.76C123.24 120.147 122.787 121.24 121.88 122.04C120.973 122.84 119.733 123.24 118.16 123.24C116.587 123.24 115.34 122.78 114.42 121.86C113.513 120.94 113.06 119.613 113.06 117.88C113.06 115.413 113.693 113.413 114.96 111.88C116.24 110.333 118.107 109.293 120.56 108.76L121.3 110.36C119.74 110.64 118.467 111.22 117.48 112.1C116.507 112.98 115.847 114.127 115.5 115.54C116.273 114.807 117.267 114.44 118.48 114.44ZM118.16 121.54C119.067 121.54 119.773 121.3 120.28 120.82C120.8 120.34 121.06 119.653 121.06 118.76C121.06 117.92 120.807 117.273 120.3 116.82C119.807 116.367 119.1 116.14 118.18 116.14C116.9 116.14 115.92 116.633 115.24 117.62V117.88C115.24 118.987 115.48 119.873 115.96 120.54C116.44 121.207 117.173 121.54 118.16 121.54ZM130.288 123.24C128.688 123.24 127.461 122.787 126.608 121.88C125.755 120.96 125.328 119.647 125.328 117.94V113.9C125.328 112.247 125.755 110.98 126.608 110.1C127.461 109.207 128.688 108.76 130.288 108.76C131.901 108.76 133.135 109.2 133.988 110.08C134.841 110.96 135.268 112.233 135.268 113.9V117.94C135.268 119.647 134.841 120.96 133.988 121.88C133.135 122.787 131.901 123.24 130.288 123.24ZM130.288 121.54C131.195 121.54 131.888 121.233 132.368 120.62C132.848 120.007 133.088 119.113 133.088 117.94V113.9C133.088 112.78 132.848 111.927 132.368 111.34C131.888 110.753 131.195 110.46 130.288 110.46C129.395 110.46 128.708 110.76 128.228 111.36C127.748 111.947 127.508 112.793 127.508 113.9V117.94C127.508 119.113 127.741 120.007 128.208 120.62C128.688 121.233 129.381 121.54 130.288 121.54ZM148.854 117.86H144.154V122.6H142.374V117.86H137.674V116.18H142.374V111.44H144.154V116.18H148.854V117.86ZM157.217 109H162.977C164.564 109 165.744 109.36 166.517 110.08C167.29 110.787 167.677 111.867 167.677 113.32C167.677 114.787 167.29 115.88 166.517 116.6C165.744 117.307 164.564 117.66 162.977 117.66H159.577V123H157.217V109ZM162.997 115.8C163.69 115.8 164.25 115.593 164.677 115.18C165.104 114.753 165.317 114.133 165.317 113.32C165.317 112.507 165.104 111.893 164.677 111.48C164.25 111.067 163.69 110.86 162.997 110.86H159.577V115.8H162.997ZM174.573 113.36C175.186 113.36 175.726 113.527 176.193 113.86L175.633 115.7C175.393 115.54 175.146 115.427 174.893 115.36C174.653 115.28 174.373 115.24 174.053 115.24C173.013 115.24 172.279 116.007 171.853 117.54V123H169.673V116.1C169.673 115.78 169.613 115.52 169.493 115.32C169.373 115.12 169.153 114.893 168.833 114.64L170.293 113.36C170.759 113.6 171.106 113.867 171.333 114.16C171.573 114.44 171.726 114.793 171.793 115.22C172.073 114.647 172.446 114.193 172.913 113.86C173.379 113.527 173.933 113.36 174.573 113.36ZM181.106 123.24C179.773 123.24 178.74 122.92 178.006 122.28C177.273 121.64 176.906 120.733 176.906 119.56V117.04C176.906 115.867 177.273 114.96 178.006 114.32C178.74 113.68 179.773 113.36 181.106 113.36C182.453 113.36 183.493 113.68 184.226 114.32C184.96 114.96 185.326 115.867 185.326 117.04V119.56C185.326 120.733 184.96 121.64 184.226 122.28C183.493 122.92 182.453 123.24 181.106 123.24ZM181.106 121.54C181.76 121.54 182.26 121.373 182.606 121.04C182.966 120.693 183.146 120.2 183.146 119.56V117.04C183.146 116.4 182.966 115.913 182.606 115.58C182.26 115.233 181.76 115.06 181.106 115.06C180.466 115.06 179.966 115.233 179.606 115.58C179.26 115.913 179.086 116.4 179.086 117.04V119.56C179.086 120.2 179.26 120.693 179.606 121.04C179.966 121.373 180.466 121.54 181.106 121.54ZM191.741 110.06C191.141 110.06 190.674 110.253 190.341 110.64C190.021 111.013 189.861 111.553 189.861 112.26V113.6H192.581V115.3H189.861V123H187.681V112.26C187.681 111.007 188.027 110.047 188.721 109.38C189.427 108.7 190.434 108.36 191.741 108.36H192.581V110.06H191.741ZM197.964 121.56C198.484 121.56 198.917 121.493 199.264 121.36C199.624 121.213 199.984 120.967 200.344 120.62L201.644 121.82C201.244 122.287 200.744 122.64 200.144 122.88C199.544 123.12 198.804 123.24 197.924 123.24C196.484 123.24 195.417 122.947 194.724 122.36C194.03 121.76 193.684 120.847 193.684 119.62V116.7C193.684 115.673 194.044 114.867 194.764 114.28C195.497 113.68 196.497 113.38 197.764 113.38C199.057 113.38 200.064 113.7 200.784 114.34C201.504 114.967 201.864 115.873 201.864 117.06C201.864 117.607 201.81 118.033 201.704 118.34C201.597 118.647 201.404 118.873 201.124 119.02C200.844 119.153 200.43 119.22 199.884 119.22H195.844V119.62C195.844 120.913 196.55 121.56 197.964 121.56ZM197.744 115.04C197.157 115.04 196.69 115.207 196.344 115.54C196.01 115.873 195.844 116.313 195.844 116.86V117.72H198.704C199.077 117.72 199.337 117.66 199.484 117.54C199.63 117.407 199.704 117.18 199.704 116.86C199.704 116.273 199.53 115.827 199.184 115.52C198.85 115.2 198.37 115.04 197.744 115.04ZM207.083 123.24C206.11 123.24 205.356 123.107 204.823 122.84C204.303 122.56 203.816 122.12 203.363 121.52L204.723 120.36C205.096 120.8 205.45 121.107 205.783 121.28C206.116 121.453 206.55 121.54 207.083 121.54C207.736 121.54 208.216 121.447 208.523 121.26C208.83 121.073 208.983 120.787 208.983 120.4C208.983 120.16 208.91 119.967 208.763 119.82C208.63 119.66 208.376 119.52 208.003 119.4C207.643 119.28 207.116 119.16 206.423 119.04C204.556 118.693 203.623 117.72 203.623 116.12C203.623 115.267 203.95 114.593 204.603 114.1C205.27 113.607 206.156 113.36 207.263 113.36C208.93 113.36 210.09 113.887 210.743 114.94L209.403 116.08C209.07 115.72 208.743 115.46 208.423 115.3C208.103 115.14 207.716 115.06 207.263 115.06C206.756 115.06 206.363 115.16 206.083 115.36C205.816 115.56 205.683 115.833 205.683 116.18C205.683 116.513 205.836 116.773 206.143 116.96C206.45 117.133 206.87 117.273 207.403 117.38C208.243 117.567 208.916 117.767 209.423 117.98C209.93 118.18 210.33 118.48 210.623 118.88C210.916 119.267 211.063 119.787 211.063 120.44C211.063 122.307 209.736 123.24 207.083 123.24ZM216.185 123.24C215.211 123.24 214.458 123.107 213.925 122.84C213.405 122.56 212.918 122.12 212.465 121.52L213.825 120.36C214.198 120.8 214.551 121.107 214.885 121.28C215.218 121.453 215.651 121.54 216.185 121.54C216.838 121.54 217.318 121.447 217.625 121.26C217.931 121.073 218.085 120.787 218.085 120.4C218.085 120.16 218.011 119.967 217.865 119.82C217.731 119.66 217.478 119.52 217.105 119.4C216.745 119.28 216.218 119.16 215.525 119.04C213.658 118.693 212.725 117.72 212.725 116.12C212.725 115.267 213.051 114.593 213.705 114.1C214.371 113.607 215.258 113.36 216.365 113.36C218.031 113.36 219.191 113.887 219.845 114.94L218.505 116.08C218.171 115.72 217.845 115.46 217.525 115.3C217.205 115.14 216.818 115.06 216.365 115.06C215.858 115.06 215.465 115.16 215.185 115.36C214.918 115.56 214.785 115.833 214.785 116.18C214.785 116.513 214.938 116.773 215.245 116.96C215.551 117.133 215.971 117.273 216.505 117.38C217.345 117.567 218.018 117.767 218.525 117.98C219.031 118.18 219.431 118.48 219.725 118.88C220.018 119.267 220.165 119.787 220.165 120.44C220.165 122.307 218.838 123.24 216.185 123.24ZM223.176 112.06C222.816 112.06 222.502 111.933 222.236 111.68C221.982 111.413 221.856 111.1 221.856 110.74C221.856 110.393 221.982 110.093 222.236 109.84C222.502 109.573 222.816 109.44 223.176 109.44C223.522 109.44 223.822 109.573 224.076 109.84C224.342 110.093 224.476 110.393 224.476 110.74C224.476 111.1 224.342 111.413 224.076 111.68C223.822 111.933 223.522 112.06 223.176 112.06ZM223.656 123.24C223.069 122.933 222.656 122.58 222.416 122.18C222.189 121.78 222.076 121.233 222.076 120.54V113.6H224.256V120.5C224.256 120.82 224.316 121.08 224.436 121.28C224.556 121.48 224.776 121.707 225.096 121.96L223.656 123.24ZM231.087 123.24C229.753 123.24 228.72 122.92 227.987 122.28C227.253 121.64 226.887 120.733 226.887 119.56V117.04C226.887 115.867 227.253 114.96 227.987 114.32C228.72 113.68 229.753 113.36 231.087 113.36C232.433 113.36 233.473 113.68 234.207 114.32C234.94 114.96 235.307 115.867 235.307 117.04V119.56C235.307 120.733 234.94 121.64 234.207 122.28C233.473 122.92 232.433 123.24 231.087 123.24ZM231.087 121.54C231.74 121.54 232.24 121.373 232.587 121.04C232.947 120.693 233.127 120.2 233.127 119.56V117.04C233.127 116.4 232.947 115.913 232.587 115.58C232.24 115.233 231.74 115.06 231.087 115.06C230.447 115.06 229.947 115.233 229.587 115.58C229.24 115.913 229.067 116.4 229.067 117.04V119.56C229.067 120.2 229.24 120.693 229.587 121.04C229.947 121.373 230.447 121.54 231.087 121.54ZM242.819 113.36C243.832 113.36 244.605 113.647 245.139 114.22C245.685 114.78 245.959 115.573 245.959 116.6V123H243.779V116.82C243.779 116.273 243.639 115.847 243.359 115.54C243.092 115.22 242.712 115.06 242.219 115.06C241.645 115.06 241.172 115.247 240.799 115.62C240.425 115.98 240.139 116.46 239.939 117.06V123H237.759V116.1C237.759 115.78 237.699 115.52 237.579 115.32C237.459 115.12 237.239 114.893 236.919 114.64L238.379 113.36C238.805 113.587 239.132 113.833 239.359 114.1C239.585 114.353 239.745 114.66 239.839 115.02C240.119 114.513 240.512 114.113 241.019 113.82C241.525 113.513 242.125 113.36 242.819 113.36ZM256.474 120.5C256.474 120.82 256.534 121.08 256.654 121.28C256.774 121.48 256.994 121.707 257.314 121.96L255.854 123.24C255.107 122.867 254.634 122.373 254.434 121.76C254.127 122.187 253.707 122.54 253.174 122.82C252.641 123.1 252.007 123.24 251.274 123.24C250.314 123.24 249.554 123 248.994 122.52C248.434 122.027 248.154 121.333 248.154 120.44C248.154 119.413 248.507 118.687 249.214 118.26C249.921 117.833 250.821 117.56 251.914 117.44L253.074 117.32C253.501 117.28 253.801 117.207 253.974 117.1C254.161 116.98 254.267 116.807 254.294 116.58C254.214 115.46 253.541 114.9 252.274 114.9C251.781 114.9 251.354 114.987 250.994 115.16C250.647 115.32 250.314 115.593 249.994 115.98L248.494 114.92C248.854 114.427 249.334 114.047 249.934 113.78C250.534 113.5 251.314 113.36 252.274 113.36C253.674 113.36 254.721 113.653 255.414 114.24C256.121 114.813 256.474 115.653 256.474 116.76V120.5ZM251.814 121.64C252.587 121.64 253.194 121.447 253.634 121.06C254.074 120.673 254.294 120.187 254.294 119.6V118.52C254.041 118.627 253.601 118.713 252.974 118.78L252.074 118.88C250.847 119.013 250.234 119.5 250.234 120.34C250.234 120.767 250.367 121.093 250.634 121.32C250.914 121.533 251.307 121.64 251.814 121.64ZM260.589 123.24C260.002 122.933 259.589 122.58 259.349 122.18C259.122 121.78 259.009 121.233 259.009 120.54V110.9C259.009 110.567 258.949 110.3 258.829 110.1C258.709 109.9 258.489 109.68 258.169 109.44L259.629 108.16C260.215 108.467 260.622 108.82 260.849 109.22C261.075 109.607 261.189 110.153 261.189 110.86V120.5C261.189 120.82 261.249 121.08 261.369 121.28C261.502 121.48 261.729 121.707 262.049 121.96L260.589 123.24ZM272.913 110.86H268.573V109H279.593V110.86H275.273V123H272.913V110.86ZM282.319 121.56C282.839 121.56 283.272 121.493 283.619 121.36C283.979 121.213 284.339 120.967 284.699 120.62L285.999 121.82C285.599 122.287 285.099 122.64 284.499 122.88C283.899 123.12 283.159 123.24 282.279 123.24C280.839 123.24 279.772 122.947 279.079 122.36C278.386 121.76 278.039 120.847 278.039 119.62V116.7C278.039 115.673 278.399 114.867 279.119 114.28C279.852 113.68 280.852 113.38 282.119 113.38C283.412 113.38 284.419 113.7 285.139 114.34C285.859 114.967 286.219 115.873 286.219 117.06C286.219 117.607 286.166 118.033 286.059 118.34C285.952 118.647 285.759 118.873 285.479 119.02C285.199 119.153 284.786 119.22 284.239 119.22H280.199V119.62C280.199 120.913 280.906 121.56 282.319 121.56ZM282.099 115.04C281.512 115.04 281.046 115.207 280.699 115.54C280.366 115.873 280.199 116.313 280.199 116.86V117.72H283.059C283.432 117.72 283.692 117.66 283.839 117.54C283.986 117.407 284.059 117.18 284.059 116.86C284.059 116.273 283.886 115.827 283.539 115.52C283.206 115.2 282.726 115.04 282.099 115.04ZM296.044 120.5C296.044 120.82 296.104 121.08 296.224 121.28C296.344 121.48 296.564 121.707 296.884 121.96L295.424 123.24C294.678 122.867 294.204 122.373 294.004 121.76C293.698 122.187 293.278 122.54 292.744 122.82C292.211 123.1 291.578 123.24 290.844 123.24C289.884 123.24 289.124 123 288.564 122.52C288.004 122.027 287.724 121.333 287.724 120.44C287.724 119.413 288.078 118.687 288.784 118.26C289.491 117.833 290.391 117.56 291.484 117.44L292.644 117.32C293.071 117.28 293.371 117.207 293.544 117.1C293.731 116.98 293.838 116.807 293.864 116.58C293.784 115.46 293.111 114.9 291.844 114.9C291.351 114.9 290.924 114.987 290.564 115.16C290.218 115.32 289.884 115.593 289.564 115.98L288.064 114.92C288.424 114.427 288.904 114.047 289.504 113.78C290.104 113.5 290.884 113.36 291.844 113.36C293.244 113.36 294.291 113.653 294.984 114.24C295.691 114.813 296.044 115.653 296.044 116.76V120.5ZM291.384 121.64C292.158 121.64 292.764 121.447 293.204 121.06C293.644 120.673 293.864 120.187 293.864 119.6V118.52C293.611 118.627 293.171 118.713 292.544 118.78L291.644 118.88C290.418 119.013 289.804 119.5 289.804 120.34C289.804 120.767 289.938 121.093 290.204 121.32C290.484 121.533 290.878 121.64 291.384 121.64ZM302.611 123.24C301.251 123.24 300.204 122.927 299.471 122.3C298.738 121.673 298.371 120.773 298.371 119.6V117C298.371 115.84 298.738 114.947 299.471 114.32C300.218 113.68 301.264 113.36 302.611 113.36C304.278 113.36 305.498 113.887 306.271 114.94L304.771 116.16C304.438 115.76 304.111 115.48 303.791 115.32C303.484 115.147 303.091 115.06 302.611 115.06C301.958 115.06 301.451 115.233 301.091 115.58C300.731 115.913 300.551 116.387 300.551 117V119.6C300.551 120.227 300.724 120.707 301.071 121.04C301.431 121.373 301.944 121.54 302.611 121.54C303.104 121.54 303.511 121.46 303.831 121.3C304.164 121.127 304.484 120.847 304.791 120.46L306.291 121.68C305.904 122.2 305.418 122.593 304.831 122.86C304.244 123.113 303.504 123.24 302.611 123.24ZM313.308 113.36C314.308 113.36 315.074 113.647 315.608 114.22C316.154 114.78 316.428 115.573 316.428 116.6V123H314.248V116.82C314.248 116.273 314.108 115.847 313.828 115.54C313.561 115.22 313.181 115.06 312.688 115.06C312.114 115.06 311.641 115.247 311.268 115.62C310.894 115.993 310.608 116.487 310.408 117.1V123H308.228V110.9C308.228 110.567 308.168 110.3 308.048 110.1C307.928 109.9 307.708 109.68 307.388 109.44L308.848 108.16C309.434 108.467 309.841 108.82 310.068 109.22C310.294 109.607 310.408 110.153 310.408 110.86V114.86C310.701 114.393 311.088 114.027 311.568 113.76C312.061 113.493 312.641 113.36 313.308 113.36ZM323.003 121.56C323.523 121.56 323.956 121.493 324.303 121.36C324.663 121.213 325.023 120.967 325.383 120.62L326.683 121.82C326.283 122.287 325.783 122.64 325.183 122.88C324.583 123.12 323.843 123.24 322.963 123.24C321.523 123.24 320.456 122.947 319.763 122.36C319.069 121.76 318.723 120.847 318.723 119.62V116.7C318.723 115.673 319.083 114.867 319.803 114.28C320.536 113.68 321.536 113.38 322.803 113.38C324.096 113.38 325.103 113.7 325.823 114.34C326.543 114.967 326.903 115.873 326.903 117.06C326.903 117.607 326.849 118.033 326.743 118.34C326.636 118.647 326.443 118.873 326.163 119.02C325.883 119.153 325.469 119.22 324.923 119.22H320.883V119.62C320.883 120.913 321.589 121.56 323.003 121.56ZM322.783 115.04C322.196 115.04 321.729 115.207 321.383 115.54C321.049 115.873 320.883 116.313 320.883 116.86V117.72H323.743C324.116 117.72 324.376 117.66 324.523 117.54C324.669 117.407 324.743 117.18 324.743 116.86C324.743 116.273 324.569 115.827 324.223 115.52C323.889 115.2 323.409 115.04 322.783 115.04ZM333.948 113.36C334.561 113.36 335.101 113.527 335.568 113.86L335.008 115.7C334.768 115.54 334.521 115.427 334.268 115.36C334.028 115.28 333.748 115.24 333.428 115.24C332.388 115.24 331.654 116.007 331.228 117.54V123H329.048V116.1C329.048 115.78 328.988 115.52 328.868 115.32C328.748 115.12 328.528 114.893 328.208 114.64L329.668 113.36C330.134 113.6 330.481 113.867 330.708 114.16C330.948 114.44 331.101 114.793 331.168 115.22C331.448 114.647 331.821 114.193 332.288 113.86C332.754 113.527 333.308 113.36 333.948 113.36Z" fill="#374151"/>
<path d="M68 106V108H90V124H76V126H94V124H92V106H68ZM72.002 109C70.9421 109.004 69.9266 109.426 69.1769 110.176C68.4273 110.925 68.0042 111.94 68 113C68 115.199 69.804 117 72.002 117C73.0614 116.996 74.0761 116.573 74.8251 115.824C75.574 115.074 75.9963 114.059 76 113C76 110.803 74.198 109 72.002 109ZM78 110V112H83V110H78ZM85 110V112H88V110H85ZM72.002 111C73.116 111 74 111.883 74 113C74 114.12 73.117 115 72.002 115C70.882 115 70 114.12 70 113C70 111.883 70.883 111 72.002 111V111ZM78 114V116H88V114H78ZM68 118V126H70V120H73V126H75V120.658L77.064 121.75C77.649 122.06 78.352 122.059 78.936 121.75V121.752L82.466 119.885L81.533 118.115L78.002 119.982L74.906 118.348C74.4739 118.12 73.9927 118 73.504 118H68Z" fill="#374151"/>
<rect x="48" y="626" width="304" height="45" rx="20" fill="url(#paint2_linear_22_309)"/>
<path d="M123 654.3V656H112.88V654.38L117.24 650.54C118.093 649.793 118.747 649.167 119.2 648.66C119.667 648.14 119.993 647.667 120.18 647.24C120.38 646.813 120.48 646.36 120.48 645.88C120.48 645.12 120.2 644.533 119.64 644.12C119.093 643.707 118.373 643.5 117.48 643.5C116.093 643.5 114.987 644.007 114.16 645.02L113.2 643.5C113.8 642.873 114.467 642.433 115.2 642.18C115.947 641.927 116.76 641.8 117.64 641.8C119.093 641.8 120.293 642.127 121.24 642.78C122.187 643.42 122.66 644.44 122.66 645.84C122.66 647.453 121.74 649.073 119.9 650.7L115.84 654.3H123ZM129.915 656.24C128.875 656.24 127.928 656.093 127.075 655.8C126.222 655.493 125.475 654.953 124.835 654.18L126.075 652.92C126.542 653.547 127.095 653.973 127.735 654.2C128.388 654.427 129.108 654.54 129.895 654.54C130.962 654.54 131.788 654.293 132.375 653.8C132.975 653.307 133.275 652.607 133.275 651.7C133.275 650.713 132.968 649.987 132.355 649.52C131.742 649.053 130.828 648.82 129.615 648.82C128.775 648.82 127.835 648.953 126.795 649.22L125.635 647.9L126.215 642H134.635V643.7H127.975L127.655 647.28C128.202 647.147 128.862 647.08 129.635 647.08C131.528 647.08 132.968 647.473 133.955 648.26C134.955 649.047 135.455 650.193 135.455 651.7C135.455 653.127 134.962 654.24 133.975 655.04C133.002 655.84 131.648 656.24 129.915 656.24ZM146.729 656H144.489L143.609 652.78C143.489 652.34 143.303 652.02 143.049 651.82C142.809 651.62 142.416 651.493 141.869 651.44L140.329 653V656H138.149V643.9C138.149 643.58 138.089 643.32 137.969 643.12C137.849 642.92 137.629 642.693 137.309 642.44L138.769 641.18C139.356 641.473 139.763 641.82 139.989 642.22C140.216 642.607 140.329 643.153 140.329 643.86V650.34L143.989 646.6H146.649L143.429 649.86C144.069 649.993 144.569 650.287 144.929 650.74C145.289 651.193 145.596 651.873 145.849 652.78L146.729 656ZM162.324 652.32H156.584L155.484 656H153.124L156.624 644.66C156.851 643.913 157.084 643.333 157.324 642.92C157.577 642.507 157.871 642.213 158.204 642.04C158.537 641.853 158.957 641.76 159.464 641.76C159.957 641.76 160.371 641.853 160.704 642.04C161.037 642.213 161.331 642.507 161.584 642.92C161.837 643.333 162.077 643.913 162.304 644.66L165.784 656H163.424L162.324 652.32ZM161.804 650.56L160.064 644.7C159.984 644.433 159.897 644.24 159.804 644.12C159.724 644 159.611 643.94 159.464 643.94C159.317 643.94 159.197 644 159.104 644.12C159.011 644.24 158.924 644.433 158.844 644.7L157.104 650.56H161.804ZM171.166 656.24C169.806 656.24 168.759 655.927 168.026 655.3C167.292 654.673 166.926 653.773 166.926 652.6V650C166.926 648.84 167.292 647.947 168.026 647.32C168.772 646.68 169.819 646.36 171.166 646.36C172.832 646.36 174.052 646.887 174.826 647.94L173.326 649.16C172.992 648.76 172.666 648.48 172.346 648.32C172.039 648.147 171.646 648.06 171.166 648.06C170.512 648.06 170.006 648.233 169.646 648.58C169.286 648.913 169.106 649.387 169.106 650V652.6C169.106 653.227 169.279 653.707 169.626 654.04C169.986 654.373 170.499 654.54 171.166 654.54C171.659 654.54 172.066 654.46 172.386 654.3C172.719 654.127 173.039 653.847 173.346 653.46L174.846 654.68C174.459 655.2 173.972 655.593 173.386 655.86C172.799 656.113 172.059 656.24 171.166 656.24ZM178.96 648.3V652.74C178.96 653.313 179.06 653.727 179.26 653.98C179.46 654.233 179.787 654.36 180.24 654.36H181.68V656.04H180.24C178.987 656.04 178.093 655.793 177.56 655.3C177.04 654.793 176.78 653.94 176.78 652.74V644.9C176.78 644.58 176.72 644.32 176.6 644.12C176.48 643.92 176.26 643.693 175.94 643.44L177.4 642.16C177.987 642.467 178.393 642.82 178.62 643.22C178.847 643.607 178.96 644.153 178.96 644.86V646.6H181.68V648.3H178.96ZM184.797 645.06C184.437 645.06 184.123 644.933 183.857 644.68C183.603 644.413 183.477 644.1 183.477 643.74C183.477 643.393 183.603 643.093 183.857 642.84C184.123 642.573 184.437 642.44 184.797 642.44C185.143 642.44 185.443 642.573 185.697 642.84C185.963 643.093 186.097 643.393 186.097 643.74C186.097 644.1 185.963 644.413 185.697 644.68C185.443 644.933 185.143 645.06 184.797 645.06ZM185.277 656.24C184.69 655.933 184.277 655.58 184.037 655.18C183.81 654.78 183.697 654.233 183.697 653.54V646.6H185.877V653.5C185.877 653.82 185.937 654.08 186.057 654.28C186.177 654.48 186.397 654.707 186.717 654.96L185.277 656.24ZM192.448 656.24C191.821 656.24 191.321 656.08 190.948 655.76C190.574 655.427 190.274 654.88 190.048 654.12L187.708 646.6H189.828L192.028 653.92C192.108 654.173 192.168 654.34 192.208 654.42C192.261 654.5 192.341 654.54 192.448 654.54C192.541 654.54 192.614 654.5 192.668 654.42C192.734 654.327 192.801 654.16 192.868 653.92L195.048 646.6H197.148L194.848 654.12C194.621 654.88 194.321 655.427 193.948 655.76C193.588 656.08 193.088 656.24 192.448 656.24ZM202.436 654.56C202.956 654.56 203.39 654.493 203.736 654.36C204.096 654.213 204.456 653.967 204.816 653.62L206.116 654.82C205.716 655.287 205.216 655.64 204.616 655.88C204.016 656.12 203.276 656.24 202.396 656.24C200.956 656.24 199.89 655.947 199.196 655.36C198.503 654.76 198.156 653.847 198.156 652.62V649.7C198.156 648.673 198.516 647.867 199.236 647.28C199.97 646.68 200.97 646.38 202.236 646.38C203.53 646.38 204.536 646.7 205.256 647.34C205.976 647.967 206.336 648.873 206.336 650.06C206.336 650.607 206.283 651.033 206.176 651.34C206.07 651.647 205.876 651.873 205.596 652.02C205.316 652.153 204.903 652.22 204.356 652.22H200.316V652.62C200.316 653.913 201.023 654.56 202.436 654.56ZM202.216 648.04C201.63 648.04 201.163 648.207 200.816 648.54C200.483 648.873 200.316 649.313 200.316 649.86V650.72H203.176C203.55 650.72 203.81 650.66 203.956 650.54C204.103 650.407 204.176 650.18 204.176 649.86C204.176 649.273 204.003 648.827 203.656 648.52C203.323 648.2 202.843 648.04 202.216 648.04ZM218.51 656.24C217.59 656.24 216.81 656.147 216.17 655.96C215.543 655.76 215.003 655.473 214.55 655.1C214.097 654.727 213.637 654.233 213.17 653.62L214.77 652.28C215.317 653.04 215.863 653.58 216.41 653.9C216.97 654.22 217.663 654.38 218.49 654.38C219.61 654.38 220.443 654.2 220.99 653.84C221.537 653.48 221.81 652.927 221.81 652.18C221.81 651.767 221.69 651.433 221.45 651.18C221.223 650.913 220.817 650.687 220.23 650.5C219.657 650.3 218.797 650.08 217.65 649.84C216.343 649.573 215.37 649.107 214.73 648.44C214.09 647.773 213.77 646.887 213.77 645.78C213.77 644.967 213.977 644.26 214.39 643.66C214.803 643.047 215.39 642.58 216.15 642.26C216.91 641.927 217.803 641.76 218.83 641.76C220.083 641.76 221.103 641.953 221.89 642.34C222.69 642.727 223.323 643.3 223.79 644.06L222.23 645.34C221.71 644.74 221.197 644.307 220.69 644.04C220.197 643.76 219.57 643.62 218.81 643.62C217.957 643.62 217.297 643.813 216.83 644.2C216.363 644.573 216.13 645.107 216.13 645.8C216.13 646.427 216.39 646.907 216.91 647.24C217.43 647.56 218.15 647.82 219.07 648.02C220.257 648.26 221.203 648.527 221.91 648.82C222.617 649.1 223.17 649.507 223.57 650.04C223.97 650.573 224.17 651.287 224.17 652.18C224.17 654.887 222.283 656.24 218.51 656.24ZM228.608 648.3V652.74C228.608 653.313 228.708 653.727 228.908 653.98C229.108 654.233 229.435 654.36 229.888 654.36H231.328V656.04H229.888C228.635 656.04 227.742 655.793 227.208 655.3C226.688 654.793 226.428 653.94 226.428 652.74V644.9C226.428 644.58 226.368 644.32 226.248 644.12C226.128 643.92 225.908 643.693 225.588 643.44L227.048 642.16C227.635 642.467 228.042 642.82 228.268 643.22C228.495 643.607 228.608 644.153 228.608 644.86V646.6H231.328V648.3H228.608ZM241.58 653.48C241.58 653.8 241.64 654.067 241.76 654.28C241.88 654.48 242.107 654.7 242.44 654.94L240.98 656.2C240.54 655.973 240.207 655.733 239.98 655.48C239.754 655.213 239.594 654.893 239.5 654.52C239.194 655.053 238.794 655.473 238.3 655.78C237.807 656.087 237.207 656.24 236.5 656.24C235.474 656.24 234.68 655.96 234.12 655.4C233.56 654.827 233.28 654.013 233.28 652.96V646.6H235.46V652.78C235.46 653.327 235.607 653.76 235.9 654.08C236.194 654.387 236.607 654.54 237.14 654.54C237.7 654.54 238.167 654.347 238.54 653.96C238.914 653.573 239.2 653.06 239.4 652.42V646.6H241.58V653.48ZM253.195 653.5C253.195 653.82 253.255 654.08 253.375 654.28C253.495 654.48 253.715 654.707 254.035 654.96L252.595 656.24C251.875 655.867 251.408 655.333 251.195 654.64C250.848 655.173 250.415 655.573 249.895 655.84C249.388 656.107 248.768 656.24 248.035 656.24C246.782 656.24 245.782 655.827 245.035 655C244.302 654.16 243.935 653.033 243.935 651.62V650.98C243.935 650.113 244.095 649.333 244.415 648.64C244.735 647.933 245.202 647.38 245.815 646.98C246.428 646.567 247.168 646.36 248.035 646.36C249.355 646.36 250.348 646.793 251.015 647.66V643.9C251.015 643.58 250.955 643.32 250.835 643.12C250.715 642.92 250.495 642.693 250.175 642.44L251.635 641.18C252.222 641.487 252.628 641.84 252.855 642.24C253.082 642.627 253.195 643.167 253.195 643.86V653.5ZM251.015 649.88C250.655 648.667 249.855 648.06 248.615 648.06C247.828 648.06 247.215 648.34 246.775 648.9C246.335 649.447 246.115 650.14 246.115 650.98V651.62C246.115 652.46 246.335 653.16 246.775 653.72C247.215 654.267 247.828 654.54 248.615 654.54C249.855 654.54 250.655 653.933 251.015 652.72V649.88ZM259.819 654.56C260.339 654.56 260.772 654.493 261.119 654.36C261.479 654.213 261.839 653.967 262.199 653.62L263.499 654.82C263.099 655.287 262.599 655.64 261.999 655.88C261.399 656.12 260.659 656.24 259.779 656.24C258.339 656.24 257.272 655.947 256.579 655.36C255.886 654.76 255.539 653.847 255.539 652.62V649.7C255.539 648.673 255.899 647.867 256.619 647.28C257.352 646.68 258.352 646.38 259.619 646.38C260.912 646.38 261.919 646.7 262.639 647.34C263.359 647.967 263.719 648.873 263.719 650.06C263.719 650.607 263.666 651.033 263.559 651.34C263.452 651.647 263.259 651.873 262.979 652.02C262.699 652.153 262.286 652.22 261.739 652.22H257.699V652.62C257.699 653.913 258.406 654.56 259.819 654.56ZM259.599 648.04C259.012 648.04 258.546 648.207 258.199 648.54C257.866 648.873 257.699 649.313 257.699 649.86V650.72H260.559C260.932 650.72 261.192 650.66 261.339 650.54C261.486 650.407 261.559 650.18 261.559 649.86C261.559 649.273 261.386 648.827 261.039 648.52C260.706 648.2 260.226 648.04 259.599 648.04ZM270.924 646.36C271.938 646.36 272.711 646.647 273.244 647.22C273.791 647.78 274.064 648.573 274.064 649.6V656H271.884V649.82C271.884 649.273 271.744 648.847 271.464 648.54C271.198 648.22 270.818 648.06 270.324 648.06C269.751 648.06 269.278 648.247 268.904 648.62C268.531 648.98 268.244 649.46 268.044 650.06V656H265.864V649.1C265.864 648.78 265.804 648.52 265.684 648.32C265.564 648.12 265.344 647.893 265.024 647.64L266.484 646.36C266.911 646.587 267.238 646.833 267.464 647.1C267.691 647.353 267.851 647.66 267.944 648.02C268.224 647.513 268.618 647.113 269.124 646.82C269.631 646.513 270.231 646.36 270.924 646.36ZM278.725 648.3V652.74C278.725 653.313 278.825 653.727 279.025 653.98C279.225 654.233 279.552 654.36 280.005 654.36H281.445V656.04H280.005C278.752 656.04 277.859 655.793 277.325 655.3C276.805 654.793 276.545 653.94 276.545 652.74V644.9C276.545 644.58 276.485 644.32 276.365 644.12C276.245 643.92 276.025 643.693 275.705 643.44L277.165 642.16C277.752 642.467 278.159 642.82 278.385 643.22C278.612 643.607 278.725 644.153 278.725 644.86V646.6H281.445V648.3H278.725ZM286.478 656.24C285.504 656.24 284.751 656.107 284.218 655.84C283.698 655.56 283.211 655.12 282.758 654.52L284.118 653.36C284.491 653.8 284.844 654.107 285.178 654.28C285.511 654.453 285.944 654.54 286.478 654.54C287.131 654.54 287.611 654.447 287.918 654.26C288.224 654.073 288.378 653.787 288.378 653.4C288.378 653.16 288.304 652.967 288.158 652.82C288.024 652.66 287.771 652.52 287.398 652.4C287.038 652.28 286.511 652.16 285.818 652.04C283.951 651.693 283.018 650.72 283.018 649.12C283.018 648.267 283.344 647.593 283.998 647.1C284.664 646.607 285.551 646.36 286.658 646.36C288.324 646.36 289.484 646.887 290.138 647.94L288.798 649.08C288.464 648.72 288.138 648.46 287.818 648.3C287.498 648.14 287.111 648.06 286.658 648.06C286.151 648.06 285.758 648.16 285.478 648.36C285.211 648.56 285.078 648.833 285.078 649.18C285.078 649.513 285.231 649.773 285.538 649.96C285.844 650.133 286.264 650.273 286.798 650.38C287.638 650.567 288.311 650.767 288.818 650.98C289.324 651.18 289.724 651.48 290.018 651.88C290.311 652.267 290.458 652.787 290.458 653.44C290.458 655.307 289.131 656.24 286.478 656.24Z" fill="#374151"/>
<path d="M70 661C70 661 68 661 68 659C68 657 70 651 80 651C90 651 92 657 92 659C92 661 90 661 90 661H70ZM80 649C81.5913 649 83.1174 648.368 84.2426 647.243C85.3679 646.117 86 644.591 86 643C86 641.409 85.3679 639.883 84.2426 638.757C83.1174 637.632 81.5913 637 80 637C78.4087 637 76.8826 637.632 75.7574 638.757C74.6321 639.883 74 641.409 74 643C74 644.591 74.6321 646.117 75.7574 647.243C76.8826 648.368 78.4087 649 80 649V649Z" fill="#374151"/>
<defs>
<linearGradient id="paint0_linear_22_309" x1="0" y1="349" x2="243.776" y2="410.69" gradientUnits="userSpaceOnUse">
<stop stop-color="#FFFBFB" stop-opacity="0.6"/>
<stop offset="1" stop-color="white" stop-opacity="0.6"/>
</linearGradient>
<linearGradient id="paint1_linear_22_309" x1="48" y1="93" x2="338.049" y2="182.974" gradientUnits="userSpaceOnUse">
<stop stop-color="#FFFBFB" stop-opacity="0.6"/>
<stop offset="1" stop-color="white" stop-opacity="0.6"/>
</linearGradient>
<linearGradient id="paint2_linear_22_309" x1="48" y1="626" x2="338.049" y2="715.974" gradientUnits="userSpaceOnUse">
<stop stop-color="#FFFBFB" stop-opacity="0.6"/>
<stop offset="1" stop-color="white" stop-opacity="0.6"/>
</linearGradient>
</defs>
</svg>
