<svg width="1103" height="799" viewBox="0 0 1103 799" fill="none" xmlns="http://www.w3.org/2000/svg">
<circle cx="743" cy="406" r="360" fill="white"/>
<path d="M1025 564.047H461.445V564.327H1025V564.047Z" fill="#EBEBEB"/>
<path d="M963.302 576.849H905.932V577.129H963.302V576.849Z" fill="#EBEBEB"/>
<path d="M573.784 573.54H520.573V573.819H573.784V573.54Z" fill="#EBEBEB"/>
<path d="M910.035 571.661H888.406V571.941H910.035V571.661Z" fill="#EBEBEB"/>
<path d="M834.766 579.074H818.897V579.353H834.766V579.074Z" fill="#EBEBEB"/>
<path d="M808.854 579.074H768.909V579.353H808.854V579.074Z" fill="#EBEBEB"/>
<path d="M745.713 574.356H681.479V574.635H745.713V574.356Z" fill="#EBEBEB"/>
<path d="M728.57 514.183H510.937C509.232 514.18 507.598 513.506 506.393 512.309C505.189 511.112 504.512 509.49 504.512 507.799V204.328C504.527 202.647 505.21 201.039 506.413 199.854C507.616 198.669 509.242 198.003 510.937 198H728.57C730.277 198 731.914 198.673 733.121 199.87C734.328 201.067 735.006 202.691 735.006 204.384V507.799C735.006 509.492 734.328 511.116 733.121 512.313C731.914 513.51 730.277 514.183 728.57 514.183V514.183ZM510.937 198.224C509.307 198.227 507.744 198.871 506.592 200.016C505.441 201.16 504.794 202.711 504.794 204.328V507.799C504.794 509.416 505.441 510.967 506.592 512.111C507.744 513.256 509.307 513.9 510.937 513.903H728.57C730.202 513.9 731.765 513.256 732.919 512.112C734.072 510.968 734.721 509.417 734.724 507.799V204.328C734.721 202.71 734.072 201.159 732.919 200.015C731.765 198.871 730.202 198.227 728.57 198.224H510.937Z" fill="#EBEBEB"/>
<path d="M972.375 514.183H754.73C753.024 514.18 751.389 513.506 750.183 512.31C748.976 511.113 748.297 509.491 748.294 507.799V204.328C748.312 202.646 748.998 201.038 750.202 199.853C751.407 198.669 753.034 198.003 754.73 198H972.375C974.068 198.006 975.691 198.673 976.892 199.858C978.092 201.042 978.773 202.649 978.788 204.328V507.799C978.788 509.488 978.113 511.108 976.911 512.305C975.709 513.502 974.078 514.177 972.375 514.183V514.183ZM754.73 198.224C753.099 198.227 751.535 198.871 750.382 200.015C749.229 201.159 748.579 202.71 748.576 204.328V507.799C748.579 509.417 749.229 510.968 750.382 512.112C751.535 513.256 753.099 513.9 754.73 513.903H972.375C974.006 513.9 975.57 513.256 976.723 512.112C977.877 510.968 978.526 509.417 978.529 507.799V204.328C978.526 202.71 977.877 201.159 976.723 200.015C975.57 198.871 974.006 198.227 972.375 198.224H754.73Z" fill="#EBEBEB"/>
<path d="M901.435 232.29H786.695V564.047H901.435V232.29Z" fill="#EBEBEB"/>
<path d="M893.692 557.339V238.999H794.438V557.339H893.692Z" fill="#FAFAFA"/>
<path d="M783.258 232.29H668.518V564.047H783.258V232.29Z" fill="#EBEBEB"/>
<path d="M783.257 562.75H786.695V233.599H783.257V562.75Z" fill="#E0E0E0"/>
<path d="M775.514 557.328V238.988H676.261V557.328H775.514Z" fill="#FAFAFA"/>
<path d="M953.845 229.797H616.107C615.711 229.794 615.331 229.637 615.05 229.358C614.77 229.08 614.611 228.704 614.608 228.31V228.31C614.611 227.917 614.77 227.54 615.05 227.262C615.331 226.984 615.711 226.826 616.107 226.823H953.845C954.242 226.826 954.622 226.984 954.902 227.262C955.183 227.54 955.342 227.917 955.345 228.31V228.31C955.342 228.704 955.183 229.08 954.902 229.358C954.622 229.637 954.242 229.794 953.845 229.797V229.797Z" fill="#E0E0E0"/>
<path d="M893.692 245.338V238.999H794.438V245.338H893.692Z" fill="#E0E0E0"/>
<path d="M893.692 249.676V238.988H794.438V249.676H893.692Z" fill="#E0E0E0"/>
<path d="M775.514 262.343V238.988H676.261V262.343H775.514Z" fill="#E0E0E0"/>
<g opacity="0.8">
<path opacity="0.8" d="M916.166 219.869H884.382V559.966H916.166V219.869Z" fill="#F5F5F5"/>
<path opacity="0.8" d="M907.78 219.869H892.779V559.966H907.78V219.869Z" fill="#F0F0F0"/>
<path opacity="0.8" d="M933.22 219.869H901.435V559.966H933.22V219.869Z" fill="#F5F5F5"/>
<path opacity="0.8" d="M924.834 219.869H909.832V559.966H924.834V219.869Z" fill="#F0F0F0"/>
<path opacity="0.8" d="M949.112 219.869H917.327V559.966H949.112V219.869Z" fill="#F5F5F5"/>
</g>
<g opacity="0.8">
<path opacity="0.8" d="M665.97 219.869H619.838V559.966H665.97V219.869Z" fill="#F5F5F5"/>
<path opacity="0.8" d="M653.786 219.869H632.011V559.966H653.786V219.869Z" fill="#F0F0F0"/>
<path opacity="0.8" d="M690.71 219.869H644.578V559.966H690.71V219.869Z" fill="#F5F5F5"/>
<path opacity="0.8" d="M678.526 219.869H656.751V559.966H678.526V219.869Z" fill="#F0F0F0"/>
<path opacity="0.8" d="M713.771 219.869H667.639V559.966H713.771V219.869Z" fill="#F5F5F5"/>
</g>
<path d="M597.938 254.719H523.515V420.938H597.938V254.719Z" fill="#F0F0F0"/>
<path d="M597.938 420.949H600.283V254.729H597.938V420.949Z" fill="#E6E6E6"/>
<path d="M591.176 414.23V261.427H530.278V414.23H591.176Z" fill="#FAFAFA"/>
<path d="M602.627 503.304H526.232C524.552 503.301 522.941 502.639 521.752 501.461C520.563 500.284 519.892 498.687 519.886 497.021V497.021C519.892 495.354 520.563 493.758 521.752 492.58C522.941 491.403 524.552 490.74 526.232 490.737H602.627C604.305 490.743 605.913 491.407 607.1 492.584C608.286 493.761 608.956 495.356 608.961 497.021V497.021C608.956 498.685 608.286 500.28 607.1 501.457C605.913 502.634 604.305 503.298 602.627 503.304Z" fill="#F5F5F5"/>
<path d="M544.603 503.304H532.059L517.801 564.047H530.334L544.603 503.304Z" fill="#E6E6E6"/>
<path d="M569.625 503.304H557.092L550.07 564.047H562.604L569.625 503.304Z" fill="#E6E6E6"/>
<path d="M584.255 503.304H596.789L611.058 564.047H598.513L584.255 503.304Z" fill="#E6E6E6"/>
<g filter="url(#filter0_d_22_309)">
<path d="M743.223 614.538C863.916 614.538 961.758 608.872 961.758 601.882C961.758 594.892 863.916 589.226 743.223 589.226C622.529 589.226 524.688 594.892 524.688 601.882C524.688 608.872 622.529 614.538 743.223 614.538Z" fill="#F5F5F5"/>
</g>
<g filter="url(#filter1_d_22_309)">
<path d="M816 470.087H719.824C718 470.087 716.521 471.554 716.521 473.363V477.119C716.521 478.929 718 480.395 719.824 480.395H816C817.824 480.395 819.302 478.929 819.302 477.119V473.363C819.302 471.554 817.824 470.087 816 470.087Z" fill="#263238"/>
<path d="M815.087 595.174H819.302L814.456 480.395H808.617L815.087 595.174Z" fill="#374151"/>
<path opacity="0.6" d="M815.087 595.174H819.302L814.456 480.395H808.617L815.087 595.174Z" fill="#A3B5CA"/>
<path d="M776.281 595.174H772.065L776.912 480.395H782.75L776.281 595.174Z" fill="#374151"/>
<path opacity="0.6" d="M776.281 595.174H772.065L776.912 480.395H782.75L776.281 595.174Z" fill="#A3B5CA"/>
<path d="M759.555 595.174H763.77L758.912 480.395H753.085L759.555 595.174Z" fill="#374151"/>
<path opacity="0.6" d="M759.555 595.174H763.77L758.912 480.395H753.085L759.555 595.174Z" fill="#A3B5CA"/>
<path d="M720.737 595.174H716.521L721.379 480.395H727.206L720.737 595.174Z" fill="#374151"/>
<path opacity="0.6" d="M720.737 595.174H716.521L721.379 480.395H727.206L720.737 595.174Z" fill="#A3B5CA"/>
<g opacity="0.3">
<path opacity="0.3" d="M814.456 480.384H808.617L808.888 485.27H814.659L814.456 480.384Z" fill="#374151"/>
<path opacity="0.3" d="M776.709 485.27H782.468L782.75 480.384H776.912L776.709 485.27Z" fill="#374151"/>
<path opacity="0.3" d="M753.085 480.384L753.355 485.27H759.126L758.912 480.384H753.085Z" fill="#374151"/>
<path opacity="0.3" d="M721.165 485.27H726.947L727.218 480.384H721.379L721.165 485.27Z" fill="#374151"/>
</g>
<path d="M756.838 578.302L747.303 583.333L732.267 563.197L741.814 558.166L756.838 578.302Z" fill="#FFB573"/>
<path d="M743.854 580.225L753.818 573.361C753.899 573.292 753.994 573.241 754.097 573.21C754.2 573.18 754.307 573.172 754.414 573.185C754.52 573.199 754.622 573.235 754.713 573.29C754.805 573.345 754.884 573.419 754.945 573.506L760.907 580.986C761.194 581.398 761.306 581.905 761.22 582.399C761.133 582.892 760.855 583.332 760.445 583.624C756.94 585.95 755.362 586.766 750.774 589.472C747.945 591.126 741.183 595.062 737.024 596.862C732.865 598.662 731.196 594.525 732.797 593.396C736.595 590.735 741.622 585.503 742.761 581.824C742.936 581.186 743.321 580.623 743.854 580.225V580.225Z" fill="#263238"/>
<path opacity="0.2" d="M741.825 558.177L732.267 563.198L739.515 572.902L748.847 567.58L741.825 558.177Z" fill="black"/>
<path d="M764.852 438.905C764.852 438.905 690.756 436.613 690.463 467.325C690.102 511.466 732.335 569.436 732.335 569.436L748.858 558.535C748.858 558.535 719.914 516.396 719.666 481.938C741.498 475.822 792.928 479.702 799.589 461.702C805.045 447.01 802.193 438.905 802.193 438.905H764.852Z" fill="#374151"/>
<path opacity="0.2" d="M764.852 438.905C764.852 438.905 690.756 436.613 690.463 467.325C690.102 511.466 732.335 569.436 732.335 569.436L748.858 558.535C748.858 558.535 719.914 516.396 719.666 481.938C741.498 475.822 792.928 479.702 799.589 461.702C805.045 447.01 802.193 438.905 802.193 438.905H764.852Z" fill="black"/>
<path d="M753.344 561.342L733.687 573.282L727.522 567.077L749.117 553.583L753.344 561.342Z" fill="#263238"/>
<path d="M741.791 583.926C742.578 583.361 743.297 582.709 743.933 581.981C743.966 581.945 743.989 581.9 743.996 581.852C744.004 581.804 743.997 581.754 743.977 581.71C743.956 581.666 743.923 581.628 743.881 581.603C743.839 581.577 743.79 581.565 743.741 581.567C743.324 581.567 739.627 581.567 738.838 582.763C738.748 582.897 738.693 583.051 738.679 583.211C738.666 583.372 738.693 583.533 738.759 583.68C738.834 583.912 738.969 584.12 739.151 584.283C739.334 584.446 739.556 584.558 739.796 584.608C740.523 584.632 741.234 584.389 741.791 583.926V583.926ZM743.155 582.081C741.791 583.49 740.585 584.239 739.886 584.116C739.73 584.082 739.586 584.005 739.47 583.895C739.355 583.784 739.273 583.644 739.233 583.49C739.191 583.423 739.169 583.345 739.169 583.266C739.169 583.187 739.191 583.11 739.233 583.043C739.684 582.417 741.679 582.137 743.155 582.081V582.081Z" fill="#374151"/>
<path d="M743.888 582.026C743.92 582.001 743.946 581.971 743.966 581.936C743.988 581.899 744 581.856 744 581.813C744 581.77 743.988 581.727 743.966 581.69C743.899 581.578 742.321 578.917 740.833 578.671C740.633 578.633 740.426 578.642 740.23 578.698C740.034 578.755 739.854 578.857 739.706 578.996C739.536 579.121 739.413 579.299 739.356 579.501C739.299 579.704 739.311 579.919 739.39 580.114C739.864 581.232 742.467 582.137 743.718 582.059L743.888 582.026ZM740.179 579.253C740.261 579.193 740.354 579.15 740.453 579.127C740.552 579.104 740.654 579.101 740.754 579.119C741.645 579.264 742.727 580.661 743.29 581.511C742.062 581.399 740.213 580.617 739.909 579.89C739.852 579.756 739.819 579.566 740.1 579.32C740.123 579.342 740.146 579.309 740.179 579.253Z" fill="#374151"/>
<path d="M739.199 590.646L728.491 590.142L726.733 565.065L737.44 565.568L739.199 590.646Z" fill="#FFB573"/>
<path d="M728.244 588.331L740.36 587.951C740.565 587.935 740.767 588.001 740.923 588.133C741.079 588.265 741.177 588.453 741.194 588.655L742.084 598.148C742.103 598.65 741.92 599.139 741.575 599.508C741.231 599.876 740.754 600.095 740.247 600.115C736.032 600.115 734.003 599.992 728.672 600.115C725.392 600.216 718.945 600.697 714.448 600.115C709.951 599.534 710.638 595.162 712.588 594.995C717.22 594.626 723.431 591.45 726.406 588.98C726.93 588.569 727.576 588.341 728.244 588.331V588.331Z" fill="#263238"/>
<path d="M724.479 590.31C725.448 590.258 726.408 590.101 727.342 589.84C727.389 589.828 727.431 589.803 727.464 589.767C727.496 589.731 727.517 589.687 727.524 589.639C727.532 589.591 727.525 589.543 727.504 589.499C727.484 589.455 727.451 589.419 727.41 589.393C727.06 589.17 723.938 587.157 722.642 587.739C722.494 587.803 722.364 587.903 722.266 588.03C722.167 588.157 722.103 588.307 722.078 588.465C722.012 588.7 722.009 588.947 722.07 589.183C722.132 589.419 722.255 589.634 722.428 589.807C723.023 590.226 723.756 590.406 724.479 590.31V590.31ZM726.632 589.505C724.716 589.941 723.25 589.93 722.777 589.449C722.667 589.333 722.59 589.191 722.552 589.036C722.514 588.881 722.518 588.719 722.563 588.566C722.572 588.488 722.602 588.414 722.65 588.351C722.697 588.288 722.761 588.239 722.833 588.208C723.532 587.906 725.358 588.745 726.632 589.505V589.505Z" fill="#374151"/>
<path d="M727.285 589.852C727.322 589.862 727.361 589.862 727.398 589.852C727.435 589.832 727.466 589.803 727.487 589.768C727.509 589.732 727.521 589.692 727.522 589.651C727.522 589.516 727.68 586.431 726.553 585.424C726.405 585.284 726.225 585.182 726.029 585.128C725.832 585.073 725.625 585.067 725.426 585.111C725.21 585.123 725.005 585.207 724.843 585.349C724.682 585.491 724.573 585.683 724.535 585.894C724.321 587.012 726 589.248 727.094 589.852C727.156 589.872 727.223 589.872 727.285 589.852V589.852ZM725.674 585.559C725.773 585.553 725.872 585.567 725.966 585.602C726.059 585.637 726.144 585.69 726.215 585.76C726.891 586.364 727.026 588.119 727.037 589.114C726.068 588.354 724.941 586.699 725.088 585.927C725.088 585.782 725.189 585.603 725.55 585.547L725.674 585.559Z" fill="#374151"/>
<path opacity="0.2" d="M737.452 565.568L726.733 565.065L727.736 579.409L738.421 579.398L737.452 565.568Z" fill="black"/>
<path d="M791.203 438.905C791.203 438.905 713.681 446.172 716.499 469.327C720.579 502.712 722.585 574.669 722.585 574.669L742.343 575.44C742.343 575.44 750.718 510.594 746.39 476.348C766.452 476.348 815.571 477.779 820.046 465.794C824.002 455.195 822.593 438.961 822.593 438.961L791.203 438.905Z" fill="#374151"/>
<path d="M744.53 576.648L720.816 575.485L719.959 565.244L745.973 567.021L744.53 576.648Z" fill="#263238"/>
<path d="M774.004 371.084C773.858 372.963 773.711 374.595 773.497 376.317C773.283 378.038 773.057 379.671 772.787 381.415C772.257 384.769 771.581 388.123 770.792 391.556C769.255 398.648 766.757 405.5 763.364 411.926C762.351 413.732 761.186 415.448 759.881 417.058C758.422 418.875 756.698 420.466 754.764 421.776C751.045 424.227 746.743 425.668 742.287 425.958C738.386 426.211 734.469 425.834 730.689 424.84C728.906 424.387 727.152 423.827 725.437 423.163C724.58 422.838 723.746 422.481 722.923 422.045C722.101 421.609 721.334 421.251 720.387 420.748L723.352 413.268L725.505 413.536L727.759 413.76C729.269 413.883 730.757 413.961 732.267 413.961C735.005 414.007 737.738 413.695 740.394 413.033C742.522 412.527 744.492 411.509 746.131 410.07C746.833 409.418 747.461 408.691 748.002 407.901C748.667 406.884 749.262 405.824 749.782 404.726C750.974 402.161 751.951 399.502 752.702 396.777C753.558 393.948 754.246 390.985 754.866 387.967C755.486 384.948 755.993 381.896 756.5 378.821L757.165 374.192C757.368 372.672 757.593 371.04 757.74 369.72L774.004 371.084Z" fill="#FFB573"/>
<path d="M774.071 361.972C766.182 354.381 756.376 358.864 752.476 373.152C750.269 380.78 748.76 388.59 747.968 396.486L773.068 401.629C777.633 388 782.187 369.754 774.071 361.972Z" fill="#263238"/>
<path opacity="0.3" d="M765.99 377.513C767.782 375.914 772.877 383.103 775.988 391.969C775.108 395.323 774.105 398.554 773.08 401.584L757.976 398.487C759.182 389.632 761.966 381.113 765.99 377.513Z" fill="black"/>
<path d="M721.65 409.914L716.014 407.779L715.766 419.641C715.766 419.641 725.234 423.699 727.161 419.037L726.485 416.074C726.159 414.769 725.56 413.546 724.727 412.485C723.894 411.424 722.846 410.548 721.65 409.914Z" fill="#FFB573"/>
<path d="M709.365 408.092L706.04 418.042L715.812 419.641L716.06 407.779L709.365 408.092Z" fill="#FFB573"/>
<path d="M717.885 416.018C717.766 416.02 717.649 415.989 717.547 415.927C717.446 415.866 717.364 415.778 717.31 415.672L707.245 396.453C707.166 396.301 707.149 396.125 707.2 395.962C707.25 395.798 707.364 395.661 707.516 395.581C707.67 395.505 707.848 395.492 708.012 395.544C708.176 395.597 708.313 395.71 708.395 395.86L718.426 415.046C718.506 415.197 718.522 415.374 718.472 415.537C718.421 415.7 718.308 415.837 718.156 415.918C718.073 415.969 717.981 416.003 717.885 416.018V416.018Z" fill="#263238"/>
<path d="M773.136 354.358L785.174 351.004L800.638 350.289C802.986 350.177 805.307 350.834 807.242 352.16C809.177 353.485 810.618 355.405 811.345 357.623C814.287 366.567 816.981 379.447 818.976 390.594C821.23 403.105 822.357 421.899 822.594 438.961H764.852C763.533 403.351 758.968 382.298 756.962 370.648C756.562 368.365 756.927 366.015 758.002 363.957C759.077 361.899 760.802 360.248 762.913 359.255L773.136 354.358Z" fill="#263238"/>
<path opacity="0.3" d="M818.976 390.549C817.42 381.773 815.414 371.889 813.182 363.716C802.892 361.994 797.91 384.378 800.964 395.48C804.019 406.582 820.306 399.851 820.306 399.851C819.922 396.508 819.471 393.367 818.976 390.549Z" fill="black"/>
<path d="M783.122 327.693C785.602 333.73 784.114 344.799 779.223 341.668C774.331 338.538 781.612 324.026 783.122 327.693Z" fill="#263238"/>
<path d="M780.417 331.561L775.74 338.65L769.383 348.298C770.204 349.124 770.869 350.09 771.344 351.149C772.471 353.475 773.474 355.208 768.549 358.54C768.02 358.876 767.599 359.357 767.337 359.923C767.076 360.49 766.984 361.12 767.072 361.737C767.365 363.247 768.876 364.711 774.184 363.783C779.301 362.812 783.969 360.242 787.507 356.449C789.276 354.694 788.871 353.374 787.169 351.552C782.3 346.409 780.857 338.191 780.417 331.561Z" fill="#FFB573"/>
<path opacity="0.2" d="M770.905 345.917L774.804 339.041C774.887 339.22 774.977 339.41 775.075 339.611C775.421 340.46 775.7 341.335 775.909 342.227C776.619 345.28 774.23 349.64 771.603 351.72L771.299 351.127C770.826 350.137 770.219 349.216 769.496 348.388C769.45 348.342 769.396 348.305 769.338 348.276L770.905 345.917Z" fill="black"/>
<path d="M747.495 323.221C746.041 326.474 751.192 335.687 757.086 331.964C762.981 328.241 750.064 317.463 747.495 323.221Z" fill="#263238"/>
<path d="M775.909 365.762C775.831 365.764 775.755 365.737 775.695 365.688C775.635 365.639 775.595 365.57 775.582 365.494C775.153 362.732 773.328 361.022 771.265 358.942C768.65 356.404 765.686 353.52 764.716 347.874C764.701 347.791 764.72 347.705 764.769 347.636C764.818 347.567 764.892 347.52 764.976 347.505C765.059 347.49 765.146 347.509 765.215 347.557C765.285 347.605 765.333 347.679 765.348 347.762C766.294 353.207 769.18 356.013 771.716 358.484C773.801 360.508 775.762 362.419 776.224 365.393C776.232 365.435 776.232 365.479 776.222 365.52C776.213 365.562 776.195 365.601 776.169 365.636C776.144 365.67 776.112 365.7 776.075 365.721C776.038 365.743 775.996 365.757 775.954 365.762H775.909Z" fill="#A3B5CA"/>
<path d="M778.31 319.945C780.564 330.075 782.322 335.9 778.682 342.306C773.181 351.999 759.431 350.68 754.201 341.356C749.489 332.97 746.683 317.81 755.441 311.269C757.4 309.824 759.695 308.893 762.114 308.562C764.533 308.231 766.997 308.511 769.277 309.377C771.558 310.242 773.581 311.664 775.16 313.511C776.739 315.359 777.822 317.572 778.31 319.945V319.945Z" fill="#FFB573"/>
<path d="M781.342 326.899C777.825 331.852 768.605 322.762 769.36 316.658C760.208 321.823 750.267 328.721 744.237 322.908C737.272 316.199 739.176 306.584 747.337 305.723C745.894 308.518 754.099 309.759 758.461 305.444C765.844 298.199 777.509 299.708 777.295 305.578C782.92 303.364 789.062 316.02 781.342 326.899Z" fill="#263238"/>
<path d="M776.213 307.222C778.388 305.612 776.946 299.876 771.896 298.199C776.698 298.814 781.668 302.358 776.213 307.222Z" fill="#263238"/>
<path d="M784.599 326.452C784.696 328.768 783.934 331.039 782.458 332.836C780.519 335.128 777.532 333.305 776.822 330.443C776.202 327.883 777.002 323.914 779.55 322.684C782.097 321.454 784.464 323.567 784.599 326.452Z" fill="#FFB573"/>
<path d="M763.657 328.163C763.928 328.979 763.725 329.806 763.184 329.996C762.643 330.186 762.057 329.683 761.73 328.878C761.403 328.073 761.662 327.235 762.203 327.033C762.744 326.832 763.387 327.335 763.657 328.163Z" fill="#263238"/>
<path d="M754.415 331.517C754.696 332.344 754.482 333.171 753.941 333.361C753.4 333.552 752.758 333.048 752.487 332.243C752.217 331.438 752.431 330.6 752.961 330.41C753.49 330.22 754.144 330.701 754.415 331.517Z" fill="#263238"/>
<path d="M757.582 331.047C757.619 333.493 757.331 335.932 756.725 338.303C758.382 338.907 760.208 337.487 760.208 337.487L757.582 331.047Z" fill="#ED893E"/>
<path d="M762.53 342.037C763.49 341.724 764.376 341.221 765.133 340.558C765.891 339.895 766.505 339.086 766.937 338.18C766.964 338.118 766.964 338.048 766.939 337.985C766.914 337.922 766.864 337.872 766.802 337.845C766.737 337.822 766.667 337.825 766.604 337.851C766.541 337.878 766.491 337.928 766.464 337.99C765.98 338.967 765.276 339.819 764.406 340.482C763.536 341.146 762.524 341.601 761.448 341.814C761.413 341.818 761.379 341.83 761.348 341.848C761.318 341.866 761.292 341.89 761.271 341.919C761.25 341.948 761.235 341.98 761.228 342.015C761.22 342.049 761.22 342.085 761.227 342.119C761.234 342.154 761.248 342.187 761.269 342.216C761.289 342.245 761.315 342.269 761.345 342.288C761.375 342.306 761.409 342.318 761.444 342.323C761.479 342.328 761.515 342.326 761.55 342.317C761.882 342.245 762.21 342.152 762.53 342.037V342.037Z" fill="#263238"/>
<path d="M764.503 324.607C764.581 324.57 764.647 324.512 764.694 324.439C764.766 324.325 764.79 324.187 764.761 324.055C764.731 323.923 764.651 323.808 764.536 323.735C763.87 323.289 763.102 323.012 762.302 322.93C761.502 322.849 760.694 322.964 759.949 323.266C759.887 323.293 759.831 323.333 759.784 323.383C759.738 323.432 759.702 323.491 759.679 323.554C759.656 323.618 759.646 323.686 759.649 323.753C759.653 323.821 759.671 323.887 759.701 323.948C759.762 324.068 759.868 324.161 759.996 324.205C760.125 324.248 760.266 324.24 760.389 324.182C760.976 323.957 761.61 323.876 762.236 323.946C762.862 324.016 763.462 324.235 763.984 324.585C764.059 324.637 764.148 324.667 764.24 324.671C764.332 324.675 764.423 324.653 764.503 324.607V324.607Z" fill="#263238"/>
<path d="M752.589 326.217C752.61 326.133 752.61 326.044 752.589 325.96C752.534 325.836 752.433 325.738 752.306 325.688C752.18 325.638 752.038 325.639 751.913 325.692C751.162 325.98 750.495 326.449 749.972 327.056C749.449 327.662 749.086 328.388 748.915 329.169C748.892 329.301 748.923 329.436 749.002 329.545C749.08 329.654 749.199 329.728 749.332 329.75C749.465 329.772 749.601 329.741 749.711 329.664C749.821 329.586 749.895 329.468 749.918 329.336C750.064 328.727 750.359 328.162 750.775 327.69C751.191 327.219 751.717 326.855 752.307 326.631C752.386 326.591 752.453 326.533 752.502 326.46C752.551 326.388 752.581 326.304 752.589 326.217Z" fill="#263238"/>
<path d="M809.35 357.88C810.478 359.691 811.379 361.324 812.315 363.068C813.25 364.812 814.152 366.511 815.031 368.256C816.812 371.733 818.412 375.31 819.968 378.955C821.523 382.6 822.887 386.357 824.059 390.27C825.342 394.377 826.203 398.602 826.629 402.881C826.857 405.379 826.77 407.896 826.37 410.372C826.112 412.006 825.611 413.592 824.882 415.079C824.037 416.759 822.865 418.257 821.433 419.484C820.144 420.596 818.672 421.481 817.082 422.101C815.748 422.62 814.361 422.995 812.946 423.219C810.556 423.589 808.128 423.653 805.721 423.409C803.572 423.227 801.44 422.887 799.342 422.391C797.339 421.939 795.36 421.387 793.413 420.737C789.587 419.48 785.87 417.917 782.3 416.063L785.151 408.539C792.162 409.858 799.691 411.077 806.014 410.696C807.397 410.625 808.766 410.392 810.094 410.003C811.221 409.668 811.796 409.165 811.751 409.008C811.706 408.852 811.684 409.008 811.661 408.896C811.638 408.785 811.661 408.773 811.661 408.203C811.731 406.947 811.655 405.686 811.436 404.447C810.896 401.256 810.055 398.123 808.922 395.089C807.795 391.846 806.431 388.57 804.955 385.328C803.478 382.086 801.889 378.832 800.277 375.59C799.466 373.965 798.628 372.359 797.764 370.771L795.216 366.087L809.35 357.88Z" fill="#FFB573"/>
<path d="M804.087 350.4C793.199 348.757 787.845 358.025 792.974 371.867C795.622 379.354 798.949 386.588 802.915 393.479L826.392 383.271C822.121 369.575 815.223 352.089 804.087 350.4Z" fill="#263238"/>
<path d="M779.11 407.51L774.083 409.008L781.218 419.071C781.218 419.071 791.79 415.314 789.626 410.752L786.966 409.254C784.689 407.946 781.804 406.593 779.11 407.51Z" fill="#FFB573"/>
<path d="M769.631 415.94L774.669 420.927L781.218 419.06L774.083 409.008L769.631 415.94Z" fill="#FFB573"/>
<path d="M780.62 329.65C781.516 329.65 782.243 328.779 782.243 327.704C782.243 326.63 781.516 325.759 780.62 325.759C779.724 325.759 778.997 326.63 778.997 327.704C778.997 328.779 779.724 329.65 780.62 329.65Z" fill="#A3B5CA"/>
<path d="M781.961 332.847L781.026 332.814L780.451 328.33L782.232 327.939L781.961 332.847Z" fill="#A3B5CA"/>
<path d="M788.431 417.36C785.05 417.36 782.052 416.857 780.237 415.225C779.56 414.578 779.033 413.793 778.693 412.924C778.352 412.056 778.206 411.124 778.264 410.193C778.368 405.583 779.092 401.007 780.417 396.587C781.984 390.494 783.224 385.686 779.459 379.749C773.463 370.324 775.255 357.142 779.459 348.88C782.671 342.563 781.544 335.519 781.139 332.925C781.082 332.59 781.037 332.322 781.015 332.143C781.01 332.101 781.014 332.058 781.026 332.018C781.039 331.977 781.059 331.94 781.086 331.907C781.114 331.875 781.148 331.849 781.186 331.829C781.224 331.81 781.265 331.799 781.308 331.796C781.393 331.787 781.478 331.811 781.546 331.863C781.613 331.915 781.657 331.992 781.668 332.076C781.668 332.243 781.725 332.501 781.77 332.825C782.198 335.519 783.314 342.664 780 349.171C775.886 357.276 774.128 370.19 780 379.358C783.911 385.518 782.581 390.695 781.037 396.687C779.739 401.047 779.03 405.559 778.929 410.104C778.868 410.945 778.993 411.788 779.295 412.576C779.597 413.364 780.068 414.077 780.676 414.666C783.72 417.382 790.437 416.689 796.929 416.018C799.837 415.728 802.847 415.415 805.495 415.415C805.582 415.415 805.665 415.449 805.727 415.51C805.788 415.57 805.822 415.653 805.822 415.739C805.822 415.825 805.788 415.907 805.727 415.968C805.665 416.029 805.582 416.063 805.495 416.063C802.881 416.063 799.86 416.365 796.997 416.667C794.155 417.041 791.296 417.272 788.431 417.36V417.36Z" fill="#A3B5CA"/>
<path d="M818.987 414.967H806.16C805.787 414.967 805.484 415.268 805.484 415.638V416.533C805.484 416.903 805.787 417.203 806.16 417.203H818.987C819.36 417.203 819.663 416.903 819.663 416.533V415.638C819.663 415.268 819.36 414.967 818.987 414.967Z" fill="#A3B5CA"/>
</g>
<path d="M899.485 424.65H586.96C585.966 424.647 585.013 424.254 584.309 423.556C583.606 422.859 583.21 421.913 583.207 420.927C583.21 419.94 583.606 418.995 584.309 418.298C585.013 417.6 585.966 417.207 586.96 417.204H899.485C900.479 417.207 901.432 417.6 902.136 418.298C902.839 418.995 903.235 419.94 903.238 420.927V420.927C903.235 421.913 902.839 422.859 902.136 423.556C901.432 424.254 900.479 424.647 899.485 424.65V424.65Z" fill="#374151"/>
<path opacity="0.3" d="M899.485 424.65H826.325C825.33 424.647 824.377 424.254 823.674 423.556C822.971 422.859 822.574 421.913 822.571 420.927V420.927C822.574 419.94 822.971 418.995 823.674 418.298C824.377 417.6 825.33 417.207 826.325 417.204H899.485C900.48 417.207 901.433 417.6 902.136 418.298C902.839 418.995 903.236 419.94 903.239 420.927V420.927C903.236 421.913 902.839 422.859 902.136 423.556C901.433 424.254 900.48 424.647 899.485 424.65V424.65Z" fill="#263238"/>
<path d="M896.036 600.071H903.238L894.954 424.65H884.99L896.036 600.071Z" fill="#263238"/>
<path opacity="0.1" d="M896.036 600.071H903.238L894.954 424.65H884.99L896.036 600.071Z" fill="#A3B5CA"/>
<path d="M829.774 600.071H822.571L830.856 424.65H840.819L829.774 600.071Z" fill="#263238"/>
<path opacity="0.2" d="M829.774 600.071H822.571L830.856 424.65H840.819L829.774 600.071Z" fill="#A3B5CA"/>
<path d="M656.683 600.071H663.874L655.59 424.65H645.626L656.683 600.071Z" fill="#263238"/>
<path opacity="0.1" d="M656.683 600.071H663.874L655.59 424.65H645.626L656.683 600.071Z" fill="#A3B5CA"/>
<path d="M590.409 600.071H583.207L591.491 424.65H601.455L590.409 600.071Z" fill="#263238"/>
<path opacity="0.2" d="M590.409 600.071H583.207L591.491 424.65H601.455L590.409 600.071Z" fill="#A3B5CA"/>
<path d="M833.944 433.986H593.588V448.688H833.944V433.986Z" fill="#263238"/>
<path opacity="0.2" d="M833.944 433.986H593.588V448.688H833.944V433.986Z" fill="#A3B5CA"/>
<path d="M633.138 407.32C632.721 407.32 632.322 407.484 632.026 407.775C631.731 408.066 631.563 408.461 631.56 408.874V415.583C631.56 415.998 631.726 416.396 632.022 416.689C632.318 416.983 632.72 417.148 633.138 417.148H684.252C684.388 417.148 684.518 417.095 684.615 417.001C684.712 416.907 684.768 416.779 684.771 416.645V407.768C684.768 407.633 684.712 407.505 684.615 407.411C684.518 407.317 684.388 407.264 684.252 407.264L633.138 407.32Z" fill="#374151"/>
<path opacity="0.9" d="M663.389 408.26H684.804V416.265H663.389C663.147 416.265 662.915 416.169 662.744 415.999C662.573 415.83 662.476 415.599 662.476 415.359V409.154C662.479 408.916 662.577 408.688 662.748 408.521C662.919 408.353 663.149 408.26 663.389 408.26V408.26Z" fill="#A3B5CA"/>
<path d="M659.873 407.32H608.24C607.369 407.32 606.662 408.021 606.662 408.886V415.65C606.662 416.514 607.369 417.215 608.24 417.215H659.873C660.744 417.215 661.451 416.514 661.451 415.65V408.886C661.451 408.021 660.744 407.32 659.873 407.32Z" fill="#374151"/>
<path opacity="0.2" d="M659.873 407.32H608.24C607.369 407.32 606.662 408.021 606.662 408.886V415.65C606.662 416.514 607.369 417.215 608.24 417.215H659.873C660.744 417.215 661.451 416.514 661.451 415.65V408.886C661.451 408.021 660.744 407.32 659.873 407.32Z" fill="black"/>
<path opacity="0.5" d="M634.479 407.32H626.646C626.291 407.32 626.003 407.606 626.003 407.958V416.578C626.003 416.93 626.291 417.215 626.646 417.215H634.479C634.834 417.215 635.122 416.93 635.122 416.578V407.958C635.122 407.606 634.834 407.32 634.479 407.32Z" fill="#374151"/>
<path opacity="0.5" d="M645.784 407.32H637.962C637.607 407.32 637.32 407.606 637.32 407.958V416.578C637.32 416.93 637.607 417.215 637.962 417.215H645.784C646.139 417.215 646.427 416.93 646.427 416.578V407.958C646.427 407.606 646.139 407.32 645.784 407.32Z" fill="#374151"/>
<path d="M623.895 395.133C623.688 395.133 623.483 395.174 623.291 395.253C623.1 395.331 622.926 395.447 622.78 395.592C622.633 395.737 622.517 395.91 622.437 396.1C622.358 396.29 622.317 396.493 622.317 396.699V405.755C622.317 405.96 622.358 406.164 622.437 406.354C622.517 406.544 622.633 406.716 622.78 406.862C622.926 407.007 623.1 407.122 623.291 407.201C623.483 407.28 623.688 407.32 623.895 407.32H679.27C679.406 407.317 679.535 407.262 679.63 407.166C679.724 407.069 679.777 406.94 679.777 406.806V395.625C679.777 395.491 679.724 395.362 679.63 395.266C679.535 395.169 679.406 395.114 679.27 395.111L623.895 395.133Z" fill="#374151"/>
<path opacity="0.9" d="M654.181 396.084H679.812V406.381H654.181C653.939 406.381 653.707 406.286 653.536 406.116C653.365 405.946 653.268 405.716 653.268 405.476V397.012C653.265 396.891 653.287 396.771 653.331 396.659C653.376 396.546 653.443 396.444 653.528 396.357C653.613 396.271 653.714 396.202 653.827 396.155C653.939 396.108 654.059 396.084 654.181 396.084Z" fill="#A3B5CA"/>
<path d="M650.619 395.134H607.203C606.331 395.134 605.625 395.834 605.625 396.699V405.744C605.625 406.608 606.331 407.309 607.203 407.309H650.619C651.491 407.309 652.197 406.608 652.197 405.744V396.699C652.197 395.834 651.491 395.134 650.619 395.134Z" fill="#374151"/>
<path opacity="0.2" d="M650.619 395.134H607.203C606.331 395.134 605.625 395.834 605.625 396.699V405.744C605.625 406.608 606.331 407.309 607.203 407.309H650.619C651.491 407.309 652.197 406.608 652.197 405.744V396.699C652.197 395.834 651.491 395.134 650.619 395.134Z" fill="#A3B5CA"/>
<path opacity="0.6" d="M646.55 397.549H614.755C614.226 397.549 613.797 397.974 613.797 398.499V403.944C613.797 404.469 614.226 404.894 614.755 404.894H646.55C647.08 404.894 647.508 404.469 647.508 403.944V398.499C647.508 397.974 647.08 397.549 646.55 397.549Z" fill="#374151"/>
<path d="M640.137 389.309C639.269 389.309 638.559 389.722 638.559 390.225V394.217C638.559 394.72 639.269 395.134 640.137 395.134H691.263C691.545 395.134 691.77 394.999 691.77 394.843V389.61C691.77 389.443 691.545 389.309 691.263 389.309H640.137Z" fill="#374151"/>
<path opacity="0.9" d="M670.186 389.856H691.77V394.575H670.186C670.001 394.575 669.823 394.502 669.692 394.372C669.561 394.242 669.487 394.065 669.487 393.881V390.527C669.493 390.347 669.569 390.177 669.7 390.051C669.83 389.926 670.005 389.856 670.186 389.856V389.856Z" fill="#A3B5CA"/>
<path d="M667.244 389.309H614.868C614.202 389.309 613.662 389.844 613.662 390.505V393.948C613.662 394.609 614.202 395.145 614.868 395.145H667.244C667.91 395.145 668.45 394.609 668.45 393.948V390.505C668.45 389.844 667.91 389.309 667.244 389.309Z" fill="#374151"/>
<path opacity="0.2" d="M667.244 389.309H614.868C614.202 389.309 613.662 389.844 613.662 390.505V393.948C613.662 394.609 614.202 395.145 614.868 395.145H667.244C667.91 395.145 668.45 394.609 668.45 393.948V390.505C668.45 389.844 667.91 389.309 667.244 389.309Z" fill="black"/>
<path opacity="0.5" d="M621.45 389.309H619.815C619.685 389.309 619.579 389.414 619.579 389.543V394.91C619.579 395.04 619.685 395.145 619.815 395.145H621.45C621.58 395.145 621.686 395.04 621.686 394.91V389.543C621.686 389.414 621.58 389.309 621.45 389.309Z" fill="#374151"/>
<path opacity="0.5" d="M663.964 389.309H662.364C662.233 389.309 662.127 389.414 662.127 389.543V394.91C662.127 395.04 662.233 395.145 662.364 395.145H663.964C664.095 395.145 664.201 395.04 664.201 394.91V389.543C664.201 389.414 664.095 389.309 663.964 389.309Z" fill="#374151"/>
<path d="M630.895 380.879C630.027 380.879 629.317 381.292 629.317 381.795V388.381C629.317 388.895 630.027 389.309 630.895 389.309H686.27C686.552 389.309 686.788 389.175 686.788 389.007V381.181C686.788 381.013 686.552 380.879 686.27 380.879H630.895Z" fill="#374151"/>
<path opacity="0.9" d="M660.944 381.427H686.788V388.75H660.944C660.758 388.75 660.581 388.677 660.45 388.547C660.318 388.417 660.245 388.24 660.245 388.057V382.12C660.245 381.936 660.318 381.76 660.45 381.63C660.581 381.5 660.758 381.427 660.944 381.427V381.427Z" fill="#A3B5CA"/>
<path d="M657.991 380.879H613.831C613.164 380.879 612.625 381.414 612.625 382.075V388.112C612.625 388.773 613.164 389.309 613.831 389.309H657.991C658.657 389.309 659.197 388.773 659.197 388.112V382.075C659.197 381.414 658.657 380.879 657.991 380.879Z" fill="#374151"/>
<path opacity="0.1" d="M657.991 380.879H613.831C613.164 380.879 612.625 381.414 612.625 382.075V388.112C612.625 388.773 613.164 389.309 613.831 389.309H657.991C658.657 389.309 659.197 388.773 659.197 388.112V382.075C659.197 381.414 658.657 380.879 657.991 380.879Z" fill="black"/>
<path d="M754.404 415.348H707.888C707.639 415.348 707.399 415.445 707.222 415.619C707.045 415.793 706.944 416.029 706.941 416.276V416.276C706.944 416.523 707.045 416.759 707.222 416.933C707.399 417.106 707.639 417.204 707.888 417.204H754.404C754.652 417.204 754.89 417.106 755.065 416.932C755.24 416.758 755.339 416.522 755.339 416.276V416.276C755.339 416.03 755.24 415.794 755.065 415.62C754.89 415.446 754.652 415.348 754.404 415.348V415.348Z" fill="#A3B5CA"/>
<path d="M845.406 413.134H875.973L878.735 417.103H842.645L845.406 413.134Z" fill="#263238"/>
<path d="M892.61 345.392C892.61 346.199 892.368 346.988 891.916 347.659C891.464 348.33 890.822 348.853 890.07 349.162C889.318 349.471 888.491 349.552 887.693 349.394C886.895 349.237 886.162 348.848 885.587 348.278C885.011 347.707 884.62 346.98 884.461 346.188C884.302 345.396 884.384 344.576 884.695 343.83C885.006 343.085 885.534 342.447 886.21 341.999C886.887 341.55 887.682 341.311 888.496 341.311C889.036 341.31 889.572 341.414 890.072 341.619C890.572 341.823 891.026 342.124 891.408 342.503C891.79 342.882 892.093 343.333 892.3 343.828C892.506 344.324 892.611 344.856 892.61 345.392V345.392Z" fill="black"/>
<path d="M861.704 415.817C861.49 415.817 861.279 415.764 861.09 415.663C860.901 415.563 860.74 415.418 860.621 415.241C860.502 415.065 860.429 414.862 860.407 414.65C860.386 414.439 860.417 414.225 860.498 414.028L889.95 344.889C890.102 344.6 890.358 344.378 890.667 344.268C890.976 344.158 891.315 344.167 891.618 344.294C891.92 344.421 892.163 344.656 892.299 344.953C892.435 345.249 892.453 345.586 892.35 345.895L862.899 415.024C862.8 415.257 862.634 415.457 862.422 415.598C862.209 415.739 861.96 415.815 861.704 415.817Z" fill="#263238"/>
<path d="M891.144 346.7C890.865 346.697 890.593 346.607 890.367 346.443L836.885 306.652C836.61 306.447 836.429 306.143 836.38 305.805C836.331 305.467 836.42 305.125 836.626 304.852C836.832 304.579 837.14 304.399 837.48 304.35C837.82 304.302 838.166 304.39 838.441 304.595L891.933 344.363C892.15 344.528 892.308 344.756 892.388 345.014C892.467 345.273 892.463 345.549 892.376 345.806C892.289 346.062 892.124 346.285 891.903 346.443C891.682 346.601 891.417 346.687 891.144 346.689V346.7Z" fill="#263238"/>
<path d="M895.259 345.392C895.259 346.199 895.017 346.988 894.565 347.659C894.113 348.33 893.471 348.853 892.719 349.162C891.967 349.471 891.14 349.552 890.342 349.394C889.544 349.237 888.811 348.848 888.236 348.278C887.66 347.707 887.269 346.98 887.11 346.188C886.951 345.396 887.033 344.576 887.344 343.83C887.655 343.085 888.183 342.447 888.859 341.999C889.536 341.55 890.331 341.311 891.145 341.311C891.685 341.31 892.221 341.414 892.721 341.619C893.221 341.823 893.675 342.124 894.057 342.503C894.439 342.882 894.742 343.333 894.949 343.828C895.155 344.324 895.26 344.856 895.259 345.392V345.392Z" fill="#263238"/>
<path d="M837.663 309.693C839.929 309.693 841.766 307.871 841.766 305.623C841.766 303.376 839.929 301.553 837.663 301.553C835.397 301.553 833.561 303.376 833.561 305.623C833.561 307.871 835.397 309.693 837.663 309.693Z" fill="#263238"/>
<path d="M831.915 324.227C830.629 325.503 828.99 326.372 827.206 326.724C825.422 327.076 823.573 326.895 821.892 326.205C820.211 325.514 818.775 324.345 817.764 322.845C816.754 321.344 816.214 319.58 816.214 317.776C816.214 315.972 816.754 314.208 817.764 312.707C818.775 311.207 820.211 310.038 821.892 309.347C823.573 308.657 825.422 308.476 827.206 308.828C828.99 309.18 830.629 310.049 831.915 311.325C833.637 313.037 834.604 315.357 834.604 317.776C834.604 320.195 833.637 322.515 831.915 324.227V324.227Z" fill="#374151"/>
<path opacity="0.7" d="M831.915 324.227C830.629 325.503 828.99 326.372 827.206 326.724C825.422 327.076 823.573 326.895 821.892 326.205C820.211 325.514 818.775 324.345 817.764 322.845C816.754 321.344 816.214 319.58 816.214 317.776C816.214 315.972 816.754 314.208 817.764 312.707C818.775 311.207 820.211 310.038 821.892 309.347C823.573 308.657 825.422 308.476 827.206 308.828C828.99 309.18 830.629 310.049 831.915 311.325C833.637 313.037 834.604 315.357 834.604 317.776C834.604 320.195 833.637 322.515 831.915 324.227V324.227Z" fill="#A3B5CA"/>
<path d="M837.663 305.623C835.834 303.807 833.663 302.366 831.272 301.383C828.882 300.4 826.32 299.895 823.732 299.895C821.144 299.895 818.582 300.4 816.192 301.383C813.801 302.366 811.63 303.807 809.801 305.623L837.663 333.283C839.496 331.468 840.95 329.312 841.942 326.939C842.934 324.566 843.445 322.022 843.445 319.453C843.445 316.884 842.934 314.34 841.942 311.967C840.95 309.594 839.496 307.438 837.663 305.623V305.623Z" fill="#263238"/>
<path d="M550.25 24.75H557.75V57.75H550.25V24.75ZM540.25 35.75H547.75V57.75H540.25V35.75ZM530.25 30.25H537.75V57.75H530.25V30.25ZM520.25 44H527.75V57.75H520.25V44ZM510.25 38.5H517.75V57.75H510.25V38.5Z" fill="#283245"/>
<path d="M514 26.125C516.071 26.125 517.75 24.2782 517.75 22C517.75 19.7218 516.071 17.875 514 17.875C511.929 17.875 510.25 19.7218 510.25 22C510.25 24.2782 511.929 26.125 514 26.125Z" fill="#283245"/>
<path d="M524 28.875C526.071 28.875 527.75 27.0282 527.75 24.75C527.75 22.4718 526.071 20.625 524 20.625C521.929 20.625 520.25 22.4718 520.25 24.75C520.25 27.0282 521.929 28.875 524 28.875Z" fill="#283245"/>
<path d="M534 19.25C536.071 19.25 537.75 17.4032 537.75 15.125C537.75 12.8468 536.071 11 534 11C531.929 11 530.25 12.8468 530.25 15.125C530.25 17.4032 531.929 19.25 534 19.25Z" fill="#283245"/>
<path d="M544 22C546.071 22 547.75 20.1532 547.75 17.875C547.75 15.5968 546.071 13.75 544 13.75C541.929 13.75 540.25 15.5968 540.25 17.875C540.25 20.1532 541.929 22 544 22Z" fill="#283245"/>
<path d="M554 16.5C556.071 16.5 557.75 14.6532 557.75 12.375C557.75 10.0968 556.071 8.25 554 8.25C551.929 8.25 550.25 10.0968 550.25 12.375C550.25 14.6532 551.929 16.5 554 16.5Z" fill="#283245"/>
<path d="M552.875 9.90002L543.75 14.9875L533.375 12.1L523.375 21.725L514.625 19.3875L513.375 24.6125L524.625 27.775L534.625 18.15L544.25 20.7625L555.125 14.85L552.875 9.90002Z" fill="#283245"/>
<path d="M360.156 217L347.25 231.875L344.65 228.879L354.938 217L344.65 205.121L347.25 202.125L360.156 217ZM304.844 217L317.75 202.125L320.35 205.121L310.062 217L320.35 228.879L317.75 231.875L304.844 217ZM325.899 237.154L335.524 195.75L339.086 196.849L329.461 238.25L325.899 237.154Z" fill="#374151"/>
<path d="M292.75 511.5C291.935 511.5 291.253 511.228 290.703 510.684C290.151 510.142 289.875 509.469 289.875 508.667V497.333C289.875 496.531 290.151 495.857 290.703 495.313C291.253 494.771 291.935 494.5 292.75 494.5H304.25C305.065 494.5 305.748 494.771 306.3 495.313C306.85 495.857 307.125 496.531 307.125 497.333V508.667C307.125 509.469 306.85 510.142 306.3 510.684C305.748 511.228 305.065 511.5 304.25 511.5H292.75ZM292.75 528.5C291.935 528.5 291.253 528.228 290.703 527.684C290.151 527.142 289.875 526.469 289.875 525.667V522.833H284.125C282.544 522.833 281.191 522.279 280.065 521.17C278.938 520.059 278.375 518.725 278.375 517.167V511.5H275.5C274.685 511.5 274.003 511.228 273.453 510.684C272.901 510.142 272.625 509.469 272.625 508.667C272.625 507.864 272.901 507.19 273.453 506.646C274.003 506.104 274.685 505.833 275.5 505.833H278.375V500.167H275.5C274.685 500.167 274.003 499.895 273.453 499.351C272.901 498.809 272.625 498.136 272.625 497.333C272.625 496.531 272.901 495.857 273.453 495.313C274.003 494.771 274.685 494.5 275.5 494.5H278.375V488.833C278.375 487.275 278.938 485.941 280.065 484.833C281.191 483.722 282.544 483.167 284.125 483.167H289.875V480.333C289.875 479.531 290.151 478.857 290.703 478.313C291.253 477.771 291.935 477.5 292.75 477.5C293.565 477.5 294.248 477.771 294.8 478.313C295.35 478.857 295.625 479.531 295.625 480.333V483.167H301.375V480.333C301.375 479.531 301.651 478.857 302.203 478.313C302.753 477.771 303.435 477.5 304.25 477.5C305.065 477.5 305.748 477.771 306.3 478.313C306.85 478.857 307.125 479.531 307.125 480.333V483.167H312.875C314.456 483.167 315.81 483.722 316.937 484.833C318.062 485.941 318.625 487.275 318.625 488.833V494.5H321.5C322.315 494.5 322.997 494.771 323.547 495.313C324.099 495.857 324.375 496.531 324.375 497.333C324.375 498.136 324.099 498.809 323.547 499.351C322.997 499.895 322.315 500.167 321.5 500.167H318.625V505.833H321.5C322.315 505.833 322.997 506.104 323.547 506.646C324.099 507.19 324.375 507.864 324.375 508.667C324.375 509.469 324.099 510.142 323.547 510.684C322.997 511.228 322.315 511.5 321.5 511.5H318.625V517.167C318.625 518.725 318.062 520.059 316.937 521.17C315.81 522.279 314.456 522.833 312.875 522.833H307.125V525.667C307.125 526.469 306.85 527.142 306.3 527.684C305.748 528.228 305.065 528.5 304.25 528.5C303.435 528.5 302.753 528.228 302.203 527.684C301.651 527.142 301.375 526.469 301.375 525.667V522.833H295.625V525.667C295.625 526.469 295.35 527.142 294.8 527.684C294.248 528.228 293.565 528.5 292.75 528.5ZM284.125 517.167H312.875V488.833H284.125V517.167ZM295.625 505.833H301.375V500.167H295.625V505.833ZM295.625 505.833V500.167H301.375V505.833H295.625Z" fill="#374151"/>
<rect x="264.5" y="469.5" width="68" height="67" rx="9.5" stroke="black"/>
<path d="M453.299 752.993C453.534 752.738 453.721 752.436 453.849 752.103C453.976 751.771 454.042 751.414 454.042 751.054C454.042 750.694 453.976 750.337 453.849 750.004C453.721 749.672 453.534 749.369 453.299 749.115L446.106 741.333C445.871 741.078 445.591 740.875 445.284 740.737C444.976 740.599 444.647 740.528 444.314 740.528C443.981 740.528 443.651 740.599 443.344 740.737C443.037 740.875 442.757 741.078 442.522 741.333L431.11 753.68L421.223 742.983C419.24 740.838 416.012 740.838 414.03 742.983L409.201 748.208C407.218 750.353 407.218 753.845 409.201 755.99L419.088 766.688L407.625 779.09V790.75H418.402L429.89 778.32L439.777 789.018C442.192 791.63 445.445 790.668 446.97 789.018L451.799 783.793C453.782 781.648 453.782 778.155 451.799 776.01L441.912 765.313L453.299 752.993V752.993ZM412.81 752.085L417.614 746.86L420.842 750.353L417.842 753.625L421.426 757.503L424.451 754.23L427.501 757.53L422.672 762.755L412.81 752.085V752.085ZM441.353 772.545L438.328 775.818L441.912 779.695L444.937 776.423L448.165 779.915L443.335 785.14L433.448 774.443L438.277 769.218L441.353 772.545V772.545ZM416.292 785.25H412.708V781.373L437.134 754.945L440.438 758.52L440.717 758.823L416.292 785.25ZM440.717 751.04L444.301 747.163L447.885 751.04L444.301 754.918L440.717 751.04Z" fill="#374151"/>
<g filter="url(#filter2_dd_22_309)">
<rect x="10" y="349" width="248" height="45" rx="20" fill="url(#paint0_linear_22_309)"/>
<path d="M80.72 379.24C78.96 379.24 77.6067 378.867 76.66 378.12C75.7267 377.36 75.26 376.307 75.26 374.96V365H77.62V374.96C77.62 375.76 77.88 376.367 78.4 376.78C78.9333 377.193 79.7067 377.4 80.72 377.4C81.7333 377.4 82.5 377.193 83.02 376.78C83.5533 376.367 83.82 375.76 83.82 374.96V365H86.18V374.96C86.18 376.307 85.7067 377.36 84.76 378.12C83.8267 378.867 82.48 379.24 80.72 379.24ZM94.177 369.36C95.057 369.36 95.8037 369.573 96.417 370C97.0304 370.413 97.4904 370.973 97.797 371.68C98.1037 372.373 98.257 373.14 98.257 373.98V374.62C98.257 375.46 98.1037 376.233 97.797 376.94C97.4904 377.633 97.0304 378.193 96.417 378.62C95.8037 379.033 95.057 379.24 94.177 379.24C93.4037 379.24 92.7837 379.127 92.317 378.9C91.8637 378.66 91.4837 378.327 91.177 377.9V383.38H88.997V372.1C88.997 371.78 88.9304 371.52 88.797 371.32C88.677 371.107 88.4637 370.88 88.157 370.64L89.617 369.36C90.0304 369.573 90.3504 369.813 90.577 370.08C90.8037 370.333 90.957 370.633 91.037 370.98C91.7304 369.9 92.777 369.36 94.177 369.36ZM96.077 373.98C96.077 373.14 95.857 372.447 95.417 371.9C94.977 371.34 94.3637 371.06 93.577 371.06C92.3504 371.06 91.5504 371.667 91.177 372.88V375.72C91.5504 376.933 92.3504 377.54 93.577 377.54C94.3637 377.54 94.977 377.267 95.417 376.72C95.857 376.16 96.077 375.46 96.077 374.62V373.98ZM109.316 376.5C109.316 376.82 109.376 377.08 109.496 377.28C109.616 377.48 109.836 377.707 110.156 377.96L108.716 379.24C107.996 378.867 107.53 378.333 107.316 377.64C106.97 378.173 106.536 378.573 106.016 378.84C105.51 379.107 104.89 379.24 104.156 379.24C102.903 379.24 101.903 378.827 101.156 378C100.423 377.16 100.056 376.033 100.056 374.62V373.98C100.056 373.113 100.216 372.333 100.536 371.64C100.856 370.933 101.323 370.38 101.936 369.98C102.55 369.567 103.29 369.36 104.156 369.36C105.476 369.36 106.47 369.793 107.136 370.66V366.9C107.136 366.58 107.076 366.32 106.956 366.12C106.836 365.92 106.616 365.693 106.296 365.44L107.756 364.18C108.343 364.487 108.75 364.84 108.976 365.24C109.203 365.627 109.316 366.167 109.316 366.86V376.5ZM107.136 372.88C106.776 371.667 105.976 371.06 104.736 371.06C103.95 371.06 103.336 371.34 102.896 371.9C102.456 372.447 102.236 373.14 102.236 373.98V374.62C102.236 375.46 102.456 376.16 102.896 376.72C103.336 377.267 103.95 377.54 104.736 377.54C105.976 377.54 106.776 376.933 107.136 375.72V372.88ZM119.88 376.5C119.88 376.82 119.94 377.08 120.06 377.28C120.18 377.48 120.4 377.707 120.72 377.96L119.26 379.24C118.513 378.867 118.04 378.373 117.84 377.76C117.533 378.187 117.113 378.54 116.58 378.82C116.047 379.1 115.413 379.24 114.68 379.24C113.72 379.24 112.96 379 112.4 378.52C111.84 378.027 111.56 377.333 111.56 376.44C111.56 375.413 111.913 374.687 112.62 374.26C113.327 373.833 114.227 373.56 115.32 373.44L116.48 373.32C116.907 373.28 117.207 373.207 117.38 373.1C117.567 372.98 117.673 372.807 117.7 372.58C117.62 371.46 116.947 370.9 115.68 370.9C115.187 370.9 114.76 370.987 114.4 371.16C114.053 371.32 113.72 371.593 113.4 371.98L111.9 370.92C112.26 370.427 112.74 370.047 113.34 369.78C113.94 369.5 114.72 369.36 115.68 369.36C117.08 369.36 118.127 369.653 118.82 370.24C119.527 370.813 119.88 371.653 119.88 372.76V376.5ZM115.22 377.64C115.993 377.64 116.6 377.447 117.04 377.06C117.48 376.673 117.7 376.187 117.7 375.6V374.52C117.447 374.627 117.007 374.713 116.38 374.78L115.48 374.88C114.253 375.013 113.64 375.5 113.64 376.34C113.64 376.767 113.773 377.093 114.04 377.32C114.32 377.533 114.713 377.64 115.22 377.64ZM124.593 371.3V375.74C124.593 376.313 124.693 376.727 124.893 376.98C125.093 377.233 125.419 377.36 125.873 377.36H127.313V379.04H125.873C124.619 379.04 123.726 378.793 123.193 378.3C122.673 377.793 122.413 376.94 122.413 375.74V367.9C122.413 367.58 122.353 367.32 122.233 367.12C122.113 366.92 121.893 366.693 121.573 366.44L123.033 365.16C123.619 365.467 124.026 365.82 124.253 366.22C124.479 366.607 124.593 367.153 124.593 367.86V369.6H127.313V371.3H124.593ZM133.147 377.56C133.667 377.56 134.101 377.493 134.447 377.36C134.807 377.213 135.167 376.967 135.527 376.62L136.827 377.82C136.427 378.287 135.927 378.64 135.327 378.88C134.727 379.12 133.987 379.24 133.107 379.24C131.667 379.24 130.601 378.947 129.907 378.36C129.214 377.76 128.867 376.847 128.867 375.62V372.7C128.867 371.673 129.227 370.867 129.947 370.28C130.681 369.68 131.681 369.38 132.947 369.38C134.241 369.38 135.247 369.7 135.967 370.34C136.687 370.967 137.047 371.873 137.047 373.06C137.047 373.607 136.994 374.033 136.887 374.34C136.781 374.647 136.587 374.873 136.307 375.02C136.027 375.153 135.614 375.22 135.067 375.22H131.027V375.62C131.027 376.913 131.734 377.56 133.147 377.56ZM132.927 371.04C132.341 371.04 131.874 371.207 131.527 371.54C131.194 371.873 131.027 372.313 131.027 372.86V373.72H133.887C134.261 373.72 134.521 373.66 134.667 373.54C134.814 373.407 134.887 373.18 134.887 372.86C134.887 372.273 134.714 371.827 134.367 371.52C134.034 371.2 133.554 371.04 132.927 371.04ZM147.91 376.5C147.91 376.82 147.97 377.08 148.09 377.28C148.21 377.48 148.43 377.707 148.75 377.96L147.31 379.24C146.59 378.867 146.123 378.333 145.91 377.64C145.563 378.173 145.13 378.573 144.61 378.84C144.103 379.107 143.483 379.24 142.75 379.24C141.497 379.24 140.497 378.827 139.75 378C139.017 377.16 138.65 376.033 138.65 374.62V373.98C138.65 373.113 138.81 372.333 139.13 371.64C139.45 370.933 139.917 370.38 140.53 369.98C141.143 369.567 141.883 369.36 142.75 369.36C144.07 369.36 145.063 369.793 145.73 370.66V366.9C145.73 366.58 145.67 366.32 145.55 366.12C145.43 365.92 145.21 365.693 144.89 365.44L146.35 364.18C146.937 364.487 147.343 364.84 147.57 365.24C147.797 365.627 147.91 366.167 147.91 366.86V376.5ZM145.73 372.88C145.37 371.667 144.57 371.06 143.33 371.06C142.543 371.06 141.93 371.34 141.49 371.9C141.05 372.447 140.83 373.14 140.83 373.98V374.62C140.83 375.46 141.05 376.16 141.49 376.72C141.93 377.267 142.543 377.54 143.33 377.54C144.57 377.54 145.37 376.933 145.73 375.72V372.88ZM161.951 365H163.211C163.838 365 164.345 365.087 164.731 365.26C165.118 365.433 165.458 365.707 165.751 366.08C166.045 366.453 166.371 367 166.731 367.72L168.491 371.18L170.251 367.72C170.611 367 170.938 366.453 171.231 366.08C171.525 365.707 171.865 365.433 172.251 365.26C172.638 365.087 173.145 365 173.771 365H175.031V379H172.871V367.44C172.698 367.453 172.545 367.533 172.411 367.68C172.291 367.813 172.145 368.047 171.971 368.38L168.491 374.86L165.011 368.38C164.825 368.033 164.671 367.793 164.551 367.66C164.431 367.513 164.285 367.433 164.111 367.42V379H161.951V365ZM186.013 376.5C186.013 376.82 186.073 377.08 186.193 377.28C186.313 377.48 186.533 377.707 186.853 377.96L185.393 379.24C184.646 378.867 184.173 378.373 183.973 377.76C183.666 378.187 183.246 378.54 182.713 378.82C182.18 379.1 181.546 379.24 180.813 379.24C179.853 379.24 179.093 379 178.533 378.52C177.973 378.027 177.693 377.333 177.693 376.44C177.693 375.413 178.046 374.687 178.753 374.26C179.46 373.833 180.36 373.56 181.453 373.44L182.613 373.32C183.04 373.28 183.34 373.207 183.513 373.1C183.7 372.98 183.806 372.807 183.833 372.58C183.753 371.46 183.08 370.9 181.813 370.9C181.32 370.9 180.893 370.987 180.533 371.16C180.186 371.32 179.853 371.593 179.533 371.98L178.033 370.92C178.393 370.427 178.873 370.047 179.473 369.78C180.073 369.5 180.853 369.36 181.813 369.36C183.213 369.36 184.26 369.653 184.953 370.24C185.66 370.813 186.013 371.653 186.013 372.76V376.5ZM181.353 377.64C182.126 377.64 182.733 377.447 183.173 377.06C183.613 376.673 183.833 376.187 183.833 375.6V374.52C183.58 374.627 183.14 374.713 182.513 374.78L181.613 374.88C180.386 375.013 179.773 375.5 179.773 376.34C179.773 376.767 179.906 377.093 180.173 377.32C180.453 377.533 180.846 377.64 181.353 377.64ZM190.725 371.3V375.74C190.725 376.313 190.825 376.727 191.025 376.98C191.225 377.233 191.552 377.36 192.005 377.36H193.445V379.04H192.005C190.752 379.04 189.859 378.793 189.325 378.3C188.805 377.793 188.545 376.94 188.545 375.74V367.9C188.545 367.58 188.485 367.32 188.365 367.12C188.245 366.92 188.025 366.693 187.705 366.44L189.165 365.16C189.752 365.467 190.159 365.82 190.385 366.22C190.612 366.607 190.725 367.153 190.725 367.86V369.6H193.445V371.3H190.725ZM199.28 377.56C199.8 377.56 200.233 377.493 200.58 377.36C200.94 377.213 201.3 376.967 201.66 376.62L202.96 377.82C202.56 378.287 202.06 378.64 201.46 378.88C200.86 379.12 200.12 379.24 199.24 379.24C197.8 379.24 196.733 378.947 196.04 378.36C195.347 377.76 195 376.847 195 375.62V372.7C195 371.673 195.36 370.867 196.08 370.28C196.813 369.68 197.813 369.38 199.08 369.38C200.373 369.38 201.38 369.7 202.1 370.34C202.82 370.967 203.18 371.873 203.18 373.06C203.18 373.607 203.127 374.033 203.02 374.34C202.913 374.647 202.72 374.873 202.44 375.02C202.16 375.153 201.747 375.22 201.2 375.22H197.16V375.62C197.16 376.913 197.867 377.56 199.28 377.56ZM199.06 371.04C198.473 371.04 198.007 371.207 197.66 371.54C197.327 371.873 197.16 372.313 197.16 372.86V373.72H200.02C200.393 373.72 200.653 373.66 200.8 373.54C200.947 373.407 201.02 373.18 201.02 372.86C201.02 372.273 200.847 371.827 200.5 371.52C200.167 371.2 199.687 371.04 199.06 371.04ZM210.225 369.36C210.838 369.36 211.378 369.527 211.845 369.86L211.285 371.7C211.045 371.54 210.798 371.427 210.545 371.36C210.305 371.28 210.025 371.24 209.705 371.24C208.665 371.24 207.932 372.007 207.505 373.54V379H205.325V372.1C205.325 371.78 205.265 371.52 205.145 371.32C205.025 371.12 204.805 370.893 204.485 370.64L205.945 369.36C206.412 369.6 206.758 369.867 206.985 370.16C207.225 370.44 207.378 370.793 207.445 371.22C207.725 370.647 208.098 370.193 208.565 369.86C209.032 369.527 209.585 369.36 210.225 369.36ZM214.609 368.06C214.249 368.06 213.936 367.933 213.669 367.68C213.416 367.413 213.289 367.1 213.289 366.74C213.289 366.393 213.416 366.093 213.669 365.84C213.936 365.573 214.249 365.44 214.609 365.44C214.956 365.44 215.256 365.573 215.509 365.84C215.776 366.093 215.909 366.393 215.909 366.74C215.909 367.1 215.776 367.413 215.509 367.68C215.256 367.933 214.956 368.06 214.609 368.06ZM215.089 379.24C214.503 378.933 214.089 378.58 213.849 378.18C213.623 377.78 213.509 377.233 213.509 376.54V369.6H215.689V376.5C215.689 376.82 215.749 377.08 215.869 377.28C215.989 377.48 216.209 377.707 216.529 377.96L215.089 379.24ZM226.443 376.5C226.443 376.82 226.503 377.08 226.623 377.28C226.743 377.48 226.963 377.707 227.283 377.96L225.823 379.24C225.076 378.867 224.603 378.373 224.403 377.76C224.096 378.187 223.676 378.54 223.143 378.82C222.609 379.1 221.976 379.24 221.243 379.24C220.283 379.24 219.523 379 218.963 378.52C218.403 378.027 218.123 377.333 218.123 376.44C218.123 375.413 218.476 374.687 219.183 374.26C219.889 373.833 220.789 373.56 221.883 373.44L223.043 373.32C223.469 373.28 223.769 373.207 223.943 373.1C224.129 372.98 224.236 372.807 224.263 372.58C224.183 371.46 223.509 370.9 222.243 370.9C221.749 370.9 221.323 370.987 220.963 371.16C220.616 371.32 220.283 371.593 219.963 371.98L218.463 370.92C218.823 370.427 219.303 370.047 219.903 369.78C220.503 369.5 221.283 369.36 222.243 369.36C223.643 369.36 224.689 369.653 225.383 370.24C226.089 370.813 226.443 371.653 226.443 372.76V376.5ZM221.783 377.64C222.556 377.64 223.163 377.447 223.603 377.06C224.043 376.673 224.263 376.187 224.263 375.6V374.52C224.009 374.627 223.569 374.713 222.943 374.78L222.043 374.88C220.816 375.013 220.203 375.5 220.203 376.34C220.203 376.767 220.336 377.093 220.603 377.32C220.883 377.533 221.276 377.64 221.783 377.64ZM230.558 379.24C229.971 378.933 229.558 378.58 229.318 378.18C229.091 377.78 228.978 377.233 228.978 376.54V366.9C228.978 366.567 228.918 366.3 228.798 366.1C228.678 365.9 228.458 365.68 228.138 365.44L229.598 364.16C230.184 364.467 230.591 364.82 230.818 365.22C231.044 365.607 231.158 366.153 231.158 366.86V376.5C231.158 376.82 231.218 377.08 231.338 377.28C231.471 377.48 231.698 377.707 232.018 377.96L230.558 379.24ZM237.091 379.24C236.118 379.24 235.364 379.107 234.831 378.84C234.311 378.56 233.824 378.12 233.371 377.52L234.731 376.36C235.104 376.8 235.458 377.107 235.791 377.28C236.124 377.453 236.558 377.54 237.091 377.54C237.744 377.54 238.224 377.447 238.531 377.26C238.838 377.073 238.991 376.787 238.991 376.4C238.991 376.16 238.918 375.967 238.771 375.82C238.638 375.66 238.384 375.52 238.011 375.4C237.651 375.28 237.124 375.16 236.431 375.04C234.564 374.693 233.631 373.72 233.631 372.12C233.631 371.267 233.958 370.593 234.611 370.1C235.278 369.607 236.164 369.36 237.271 369.36C238.938 369.36 240.098 369.887 240.751 370.94L239.411 372.08C239.078 371.72 238.751 371.46 238.431 371.3C238.111 371.14 237.724 371.06 237.271 371.06C236.764 371.06 236.371 371.16 236.091 371.36C235.824 371.56 235.691 371.833 235.691 372.18C235.691 372.513 235.844 372.773 236.151 372.96C236.458 373.133 236.878 373.273 237.411 373.38C238.251 373.567 238.924 373.767 239.431 373.98C239.938 374.18 240.338 374.48 240.631 374.88C240.924 375.267 241.071 375.787 241.071 376.44C241.071 378.307 239.744 379.24 237.091 379.24Z" fill="#374151"/>
<path d="M34.8889 359.622H50.8889V361H34.8889V359.622Z" fill="#374151"/>
<path d="M51.7778 362.111H34.7645C34.5376 362.108 34.3138 362.059 34.1064 361.967C33.8991 361.875 33.7126 361.742 33.5581 361.575C33.4036 361.409 33.2843 361.214 33.2075 361C33.1307 360.787 33.0979 360.56 33.1111 360.333C33.11 359.883 33.2802 359.448 33.5871 359.118C33.894 358.788 34.3149 358.587 34.7645 358.556H51.7778C52.0135 358.556 52.2396 358.462 52.4063 358.295C52.573 358.129 52.6667 357.902 52.6667 357.667C52.6667 357.431 52.573 357.205 52.4063 357.038C52.2396 356.871 52.0135 356.778 51.7778 356.778H34.7645C33.8432 356.81 32.9705 357.199 32.3304 357.862C31.6903 358.526 31.3328 359.412 31.3334 360.333C31.3248 360.478 31.3248 360.624 31.3334 360.769C31.3248 360.84 31.3248 360.911 31.3334 360.982V381.667C31.3328 382.589 31.6903 383.475 32.3304 384.138C32.9705 384.801 33.8432 385.19 34.7645 385.222H51.7778C52.0135 385.222 52.2396 385.129 52.4063 384.962C52.573 384.795 52.6667 384.569 52.6667 384.333V363.062C52.6672 362.82 52.5756 362.587 52.4105 362.411C52.2453 362.234 52.0191 362.127 51.7778 362.111V362.111ZM50.8889 383.445H34.7645C34.3149 383.413 33.894 383.212 33.5871 382.882C33.2802 382.552 33.11 382.117 33.1111 381.667V363.489C33.6165 363.768 34.1875 363.906 34.7645 363.889H50.8889V383.445Z" fill="#374151"/>
</g>
<g filter="url(#filter3_dd_22_309)">
<rect x="58" y="93" width="304" height="45" rx="20" fill="url(#paint1_linear_22_309)"/>
<path d="M128.48 114.44C129.933 114.44 131.087 114.833 131.94 115.62C132.807 116.393 133.24 117.44 133.24 118.76C133.24 120.147 132.787 121.24 131.88 122.04C130.973 122.84 129.733 123.24 128.16 123.24C126.587 123.24 125.34 122.78 124.42 121.86C123.513 120.94 123.06 119.613 123.06 117.88C123.06 115.413 123.693 113.413 124.96 111.88C126.24 110.333 128.107 109.293 130.56 108.76L131.3 110.36C129.74 110.64 128.467 111.22 127.48 112.1C126.507 112.98 125.847 114.127 125.5 115.54C126.273 114.807 127.267 114.44 128.48 114.44ZM128.16 121.54C129.067 121.54 129.773 121.3 130.28 120.82C130.8 120.34 131.06 119.653 131.06 118.76C131.06 117.92 130.807 117.273 130.3 116.82C129.807 116.367 129.1 116.14 128.18 116.14C126.9 116.14 125.92 116.633 125.24 117.62V117.88C125.24 118.987 125.48 119.873 125.96 120.54C126.44 121.207 127.173 121.54 128.16 121.54ZM140.288 123.24C138.688 123.24 137.461 122.787 136.608 121.88C135.755 120.96 135.328 119.647 135.328 117.94V113.9C135.328 112.247 135.755 110.98 136.608 110.1C137.461 109.207 138.688 108.76 140.288 108.76C141.901 108.76 143.135 109.2 143.988 110.08C144.841 110.96 145.268 112.233 145.268 113.9V117.94C145.268 119.647 144.841 120.96 143.988 121.88C143.135 122.787 141.901 123.24 140.288 123.24ZM140.288 121.54C141.195 121.54 141.888 121.233 142.368 120.62C142.848 120.007 143.088 119.113 143.088 117.94V113.9C143.088 112.78 142.848 111.927 142.368 111.34C141.888 110.753 141.195 110.46 140.288 110.46C139.395 110.46 138.708 110.76 138.228 111.36C137.748 111.947 137.508 112.793 137.508 113.9V117.94C137.508 119.113 137.741 120.007 138.208 120.62C138.688 121.233 139.381 121.54 140.288 121.54ZM158.854 117.86H154.154V122.6H152.374V117.86H147.674V116.18H152.374V111.44H154.154V116.18H158.854V117.86ZM167.217 109H172.977C174.564 109 175.744 109.36 176.517 110.08C177.29 110.787 177.677 111.867 177.677 113.32C177.677 114.787 177.29 115.88 176.517 116.6C175.744 117.307 174.564 117.66 172.977 117.66H169.577V123H167.217V109ZM172.997 115.8C173.69 115.8 174.25 115.593 174.677 115.18C175.104 114.753 175.317 114.133 175.317 113.32C175.317 112.507 175.104 111.893 174.677 111.48C174.25 111.067 173.69 110.86 172.997 110.86H169.577V115.8H172.997ZM184.573 113.36C185.186 113.36 185.726 113.527 186.193 113.86L185.633 115.7C185.393 115.54 185.146 115.427 184.893 115.36C184.653 115.28 184.373 115.24 184.053 115.24C183.013 115.24 182.279 116.007 181.853 117.54V123H179.673V116.1C179.673 115.78 179.613 115.52 179.493 115.32C179.373 115.12 179.153 114.893 178.833 114.64L180.293 113.36C180.759 113.6 181.106 113.867 181.333 114.16C181.573 114.44 181.726 114.793 181.793 115.22C182.073 114.647 182.446 114.193 182.913 113.86C183.379 113.527 183.933 113.36 184.573 113.36ZM191.106 123.24C189.773 123.24 188.74 122.92 188.006 122.28C187.273 121.64 186.906 120.733 186.906 119.56V117.04C186.906 115.867 187.273 114.96 188.006 114.32C188.74 113.68 189.773 113.36 191.106 113.36C192.453 113.36 193.493 113.68 194.226 114.32C194.96 114.96 195.326 115.867 195.326 117.04V119.56C195.326 120.733 194.96 121.64 194.226 122.28C193.493 122.92 192.453 123.24 191.106 123.24ZM191.106 121.54C191.76 121.54 192.26 121.373 192.606 121.04C192.966 120.693 193.146 120.2 193.146 119.56V117.04C193.146 116.4 192.966 115.913 192.606 115.58C192.26 115.233 191.76 115.06 191.106 115.06C190.466 115.06 189.966 115.233 189.606 115.58C189.26 115.913 189.086 116.4 189.086 117.04V119.56C189.086 120.2 189.26 120.693 189.606 121.04C189.966 121.373 190.466 121.54 191.106 121.54ZM201.741 110.06C201.141 110.06 200.674 110.253 200.341 110.64C200.021 111.013 199.861 111.553 199.861 112.26V113.6H202.581V115.3H199.861V123H197.681V112.26C197.681 111.007 198.027 110.047 198.721 109.38C199.427 108.7 200.434 108.36 201.741 108.36H202.581V110.06H201.741ZM207.964 121.56C208.484 121.56 208.917 121.493 209.264 121.36C209.624 121.213 209.984 120.967 210.344 120.62L211.644 121.82C211.244 122.287 210.744 122.64 210.144 122.88C209.544 123.12 208.804 123.24 207.924 123.24C206.484 123.24 205.417 122.947 204.724 122.36C204.03 121.76 203.684 120.847 203.684 119.62V116.7C203.684 115.673 204.044 114.867 204.764 114.28C205.497 113.68 206.497 113.38 207.764 113.38C209.057 113.38 210.064 113.7 210.784 114.34C211.504 114.967 211.864 115.873 211.864 117.06C211.864 117.607 211.81 118.033 211.704 118.34C211.597 118.647 211.404 118.873 211.124 119.02C210.844 119.153 210.43 119.22 209.884 119.22H205.844V119.62C205.844 120.913 206.55 121.56 207.964 121.56ZM207.744 115.04C207.157 115.04 206.69 115.207 206.344 115.54C206.01 115.873 205.844 116.313 205.844 116.86V117.72H208.704C209.077 117.72 209.337 117.66 209.484 117.54C209.63 117.407 209.704 117.18 209.704 116.86C209.704 116.273 209.53 115.827 209.184 115.52C208.85 115.2 208.37 115.04 207.744 115.04ZM217.083 123.24C216.11 123.24 215.356 123.107 214.823 122.84C214.303 122.56 213.816 122.12 213.363 121.52L214.723 120.36C215.096 120.8 215.45 121.107 215.783 121.28C216.116 121.453 216.55 121.54 217.083 121.54C217.736 121.54 218.216 121.447 218.523 121.26C218.83 121.073 218.983 120.787 218.983 120.4C218.983 120.16 218.91 119.967 218.763 119.82C218.63 119.66 218.376 119.52 218.003 119.4C217.643 119.28 217.116 119.16 216.423 119.04C214.556 118.693 213.623 117.72 213.623 116.12C213.623 115.267 213.95 114.593 214.603 114.1C215.27 113.607 216.156 113.36 217.263 113.36C218.93 113.36 220.09 113.887 220.743 114.94L219.403 116.08C219.07 115.72 218.743 115.46 218.423 115.3C218.103 115.14 217.716 115.06 217.263 115.06C216.756 115.06 216.363 115.16 216.083 115.36C215.816 115.56 215.683 115.833 215.683 116.18C215.683 116.513 215.836 116.773 216.143 116.96C216.45 117.133 216.87 117.273 217.403 117.38C218.243 117.567 218.916 117.767 219.423 117.98C219.93 118.18 220.33 118.48 220.623 118.88C220.916 119.267 221.063 119.787 221.063 120.44C221.063 122.307 219.736 123.24 217.083 123.24ZM226.185 123.24C225.211 123.24 224.458 123.107 223.925 122.84C223.405 122.56 222.918 122.12 222.465 121.52L223.825 120.36C224.198 120.8 224.551 121.107 224.885 121.28C225.218 121.453 225.651 121.54 226.185 121.54C226.838 121.54 227.318 121.447 227.625 121.26C227.931 121.073 228.085 120.787 228.085 120.4C228.085 120.16 228.011 119.967 227.865 119.82C227.731 119.66 227.478 119.52 227.105 119.4C226.745 119.28 226.218 119.16 225.525 119.04C223.658 118.693 222.725 117.72 222.725 116.12C222.725 115.267 223.051 114.593 223.705 114.1C224.371 113.607 225.258 113.36 226.365 113.36C228.031 113.36 229.191 113.887 229.845 114.94L228.505 116.08C228.171 115.72 227.845 115.46 227.525 115.3C227.205 115.14 226.818 115.06 226.365 115.06C225.858 115.06 225.465 115.16 225.185 115.36C224.918 115.56 224.785 115.833 224.785 116.18C224.785 116.513 224.938 116.773 225.245 116.96C225.551 117.133 225.971 117.273 226.505 117.38C227.345 117.567 228.018 117.767 228.525 117.98C229.031 118.18 229.431 118.48 229.725 118.88C230.018 119.267 230.165 119.787 230.165 120.44C230.165 122.307 228.838 123.24 226.185 123.24ZM233.176 112.06C232.816 112.06 232.502 111.933 232.236 111.68C231.982 111.413 231.856 111.1 231.856 110.74C231.856 110.393 231.982 110.093 232.236 109.84C232.502 109.573 232.816 109.44 233.176 109.44C233.522 109.44 233.822 109.573 234.076 109.84C234.342 110.093 234.476 110.393 234.476 110.74C234.476 111.1 234.342 111.413 234.076 111.68C233.822 111.933 233.522 112.06 233.176 112.06ZM233.656 123.24C233.069 122.933 232.656 122.58 232.416 122.18C232.189 121.78 232.076 121.233 232.076 120.54V113.6H234.256V120.5C234.256 120.82 234.316 121.08 234.436 121.28C234.556 121.48 234.776 121.707 235.096 121.96L233.656 123.24ZM241.087 123.24C239.753 123.24 238.72 122.92 237.987 122.28C237.253 121.64 236.887 120.733 236.887 119.56V117.04C236.887 115.867 237.253 114.96 237.987 114.32C238.72 113.68 239.753 113.36 241.087 113.36C242.433 113.36 243.473 113.68 244.207 114.32C244.94 114.96 245.307 115.867 245.307 117.04V119.56C245.307 120.733 244.94 121.64 244.207 122.28C243.473 122.92 242.433 123.24 241.087 123.24ZM241.087 121.54C241.74 121.54 242.24 121.373 242.587 121.04C242.947 120.693 243.127 120.2 243.127 119.56V117.04C243.127 116.4 242.947 115.913 242.587 115.58C242.24 115.233 241.74 115.06 241.087 115.06C240.447 115.06 239.947 115.233 239.587 115.58C239.24 115.913 239.067 116.4 239.067 117.04V119.56C239.067 120.2 239.24 120.693 239.587 121.04C239.947 121.373 240.447 121.54 241.087 121.54ZM252.819 113.36C253.832 113.36 254.605 113.647 255.139 114.22C255.685 114.78 255.959 115.573 255.959 116.6V123H253.779V116.82C253.779 116.273 253.639 115.847 253.359 115.54C253.092 115.22 252.712 115.06 252.219 115.06C251.645 115.06 251.172 115.247 250.799 115.62C250.425 115.98 250.139 116.46 249.939 117.06V123H247.759V116.1C247.759 115.78 247.699 115.52 247.579 115.32C247.459 115.12 247.239 114.893 246.919 114.64L248.379 113.36C248.805 113.587 249.132 113.833 249.359 114.1C249.585 114.353 249.745 114.66 249.839 115.02C250.119 114.513 250.512 114.113 251.019 113.82C251.525 113.513 252.125 113.36 252.819 113.36ZM266.474 120.5C266.474 120.82 266.534 121.08 266.654 121.28C266.774 121.48 266.994 121.707 267.314 121.96L265.854 123.24C265.107 122.867 264.634 122.373 264.434 121.76C264.127 122.187 263.707 122.54 263.174 122.82C262.641 123.1 262.007 123.24 261.274 123.24C260.314 123.24 259.554 123 258.994 122.52C258.434 122.027 258.154 121.333 258.154 120.44C258.154 119.413 258.507 118.687 259.214 118.26C259.921 117.833 260.821 117.56 261.914 117.44L263.074 117.32C263.501 117.28 263.801 117.207 263.974 117.1C264.161 116.98 264.267 116.807 264.294 116.58C264.214 115.46 263.541 114.9 262.274 114.9C261.781 114.9 261.354 114.987 260.994 115.16C260.647 115.32 260.314 115.593 259.994 115.98L258.494 114.92C258.854 114.427 259.334 114.047 259.934 113.78C260.534 113.5 261.314 113.36 262.274 113.36C263.674 113.36 264.721 113.653 265.414 114.24C266.121 114.813 266.474 115.653 266.474 116.76V120.5ZM261.814 121.64C262.587 121.64 263.194 121.447 263.634 121.06C264.074 120.673 264.294 120.187 264.294 119.6V118.52C264.041 118.627 263.601 118.713 262.974 118.78L262.074 118.88C260.847 119.013 260.234 119.5 260.234 120.34C260.234 120.767 260.367 121.093 260.634 121.32C260.914 121.533 261.307 121.64 261.814 121.64ZM270.589 123.24C270.002 122.933 269.589 122.58 269.349 122.18C269.122 121.78 269.009 121.233 269.009 120.54V110.9C269.009 110.567 268.949 110.3 268.829 110.1C268.709 109.9 268.489 109.68 268.169 109.44L269.629 108.16C270.215 108.467 270.622 108.82 270.849 109.22C271.075 109.607 271.189 110.153 271.189 110.86V120.5C271.189 120.82 271.249 121.08 271.369 121.28C271.502 121.48 271.729 121.707 272.049 121.96L270.589 123.24ZM282.913 110.86H278.573V109H289.593V110.86H285.273V123H282.913V110.86ZM292.319 121.56C292.839 121.56 293.272 121.493 293.619 121.36C293.979 121.213 294.339 120.967 294.699 120.62L295.999 121.82C295.599 122.287 295.099 122.64 294.499 122.88C293.899 123.12 293.159 123.24 292.279 123.24C290.839 123.24 289.772 122.947 289.079 122.36C288.386 121.76 288.039 120.847 288.039 119.62V116.7C288.039 115.673 288.399 114.867 289.119 114.28C289.852 113.68 290.852 113.38 292.119 113.38C293.412 113.38 294.419 113.7 295.139 114.34C295.859 114.967 296.219 115.873 296.219 117.06C296.219 117.607 296.166 118.033 296.059 118.34C295.952 118.647 295.759 118.873 295.479 119.02C295.199 119.153 294.786 119.22 294.239 119.22H290.199V119.62C290.199 120.913 290.906 121.56 292.319 121.56ZM292.099 115.04C291.512 115.04 291.046 115.207 290.699 115.54C290.366 115.873 290.199 116.313 290.199 116.86V117.72H293.059C293.432 117.72 293.692 117.66 293.839 117.54C293.986 117.407 294.059 117.18 294.059 116.86C294.059 116.273 293.886 115.827 293.539 115.52C293.206 115.2 292.726 115.04 292.099 115.04ZM306.044 120.5C306.044 120.82 306.104 121.08 306.224 121.28C306.344 121.48 306.564 121.707 306.884 121.96L305.424 123.24C304.678 122.867 304.204 122.373 304.004 121.76C303.698 122.187 303.278 122.54 302.744 122.82C302.211 123.1 301.578 123.24 300.844 123.24C299.884 123.24 299.124 123 298.564 122.52C298.004 122.027 297.724 121.333 297.724 120.44C297.724 119.413 298.078 118.687 298.784 118.26C299.491 117.833 300.391 117.56 301.484 117.44L302.644 117.32C303.071 117.28 303.371 117.207 303.544 117.1C303.731 116.98 303.838 116.807 303.864 116.58C303.784 115.46 303.111 114.9 301.844 114.9C301.351 114.9 300.924 114.987 300.564 115.16C300.218 115.32 299.884 115.593 299.564 115.98L298.064 114.92C298.424 114.427 298.904 114.047 299.504 113.78C300.104 113.5 300.884 113.36 301.844 113.36C303.244 113.36 304.291 113.653 304.984 114.24C305.691 114.813 306.044 115.653 306.044 116.76V120.5ZM301.384 121.64C302.158 121.64 302.764 121.447 303.204 121.06C303.644 120.673 303.864 120.187 303.864 119.6V118.52C303.611 118.627 303.171 118.713 302.544 118.78L301.644 118.88C300.418 119.013 299.804 119.5 299.804 120.34C299.804 120.767 299.938 121.093 300.204 121.32C300.484 121.533 300.878 121.64 301.384 121.64ZM312.611 123.24C311.251 123.24 310.204 122.927 309.471 122.3C308.738 121.673 308.371 120.773 308.371 119.6V117C308.371 115.84 308.738 114.947 309.471 114.32C310.218 113.68 311.264 113.36 312.611 113.36C314.278 113.36 315.498 113.887 316.271 114.94L314.771 116.16C314.438 115.76 314.111 115.48 313.791 115.32C313.484 115.147 313.091 115.06 312.611 115.06C311.958 115.06 311.451 115.233 311.091 115.58C310.731 115.913 310.551 116.387 310.551 117V119.6C310.551 120.227 310.724 120.707 311.071 121.04C311.431 121.373 311.944 121.54 312.611 121.54C313.104 121.54 313.511 121.46 313.831 121.3C314.164 121.127 314.484 120.847 314.791 120.46L316.291 121.68C315.904 122.2 315.418 122.593 314.831 122.86C314.244 123.113 313.504 123.24 312.611 123.24ZM323.308 113.36C324.308 113.36 325.074 113.647 325.608 114.22C326.154 114.78 326.428 115.573 326.428 116.6V123H324.248V116.82C324.248 116.273 324.108 115.847 323.828 115.54C323.561 115.22 323.181 115.06 322.688 115.06C322.114 115.06 321.641 115.247 321.268 115.62C320.894 115.993 320.608 116.487 320.408 117.1V123H318.228V110.9C318.228 110.567 318.168 110.3 318.048 110.1C317.928 109.9 317.708 109.68 317.388 109.44L318.848 108.16C319.434 108.467 319.841 108.82 320.068 109.22C320.294 109.607 320.408 110.153 320.408 110.86V114.86C320.701 114.393 321.088 114.027 321.568 113.76C322.061 113.493 322.641 113.36 323.308 113.36ZM333.003 121.56C333.523 121.56 333.956 121.493 334.303 121.36C334.663 121.213 335.023 120.967 335.383 120.62L336.683 121.82C336.283 122.287 335.783 122.64 335.183 122.88C334.583 123.12 333.843 123.24 332.963 123.24C331.523 123.24 330.456 122.947 329.763 122.36C329.069 121.76 328.723 120.847 328.723 119.62V116.7C328.723 115.673 329.083 114.867 329.803 114.28C330.536 113.68 331.536 113.38 332.803 113.38C334.096 113.38 335.103 113.7 335.823 114.34C336.543 114.967 336.903 115.873 336.903 117.06C336.903 117.607 336.849 118.033 336.743 118.34C336.636 118.647 336.443 118.873 336.163 119.02C335.883 119.153 335.469 119.22 334.923 119.22H330.883V119.62C330.883 120.913 331.589 121.56 333.003 121.56ZM332.783 115.04C332.196 115.04 331.729 115.207 331.383 115.54C331.049 115.873 330.883 116.313 330.883 116.86V117.72H333.743C334.116 117.72 334.376 117.66 334.523 117.54C334.669 117.407 334.743 117.18 334.743 116.86C334.743 116.273 334.569 115.827 334.223 115.52C333.889 115.2 333.409 115.04 332.783 115.04ZM343.948 113.36C344.561 113.36 345.101 113.527 345.568 113.86L345.008 115.7C344.768 115.54 344.521 115.427 344.268 115.36C344.028 115.28 343.748 115.24 343.428 115.24C342.388 115.24 341.654 116.007 341.228 117.54V123H339.048V116.1C339.048 115.78 338.988 115.52 338.868 115.32C338.748 115.12 338.528 114.893 338.208 114.64L339.668 113.36C340.134 113.6 340.481 113.867 340.708 114.16C340.948 114.44 341.101 114.793 341.168 115.22C341.448 114.647 341.821 114.193 342.288 113.86C342.754 113.527 343.308 113.36 343.948 113.36Z" fill="#374151"/>
<path d="M78 106V108H100V124H86V126H104V124H102V106H78ZM82.002 109C80.9421 109.004 79.9266 109.426 79.1769 110.176C78.4273 110.925 78.0042 111.94 78 113C78 115.199 79.804 117 82.002 117C83.0614 116.996 84.0761 116.573 84.8251 115.824C85.574 115.074 85.9963 114.059 86 113C86 110.803 84.198 109 82.002 109ZM88 110V112H93V110H88ZM95 110V112H98V110H95ZM82.002 111C83.116 111 84 111.883 84 113C84 114.12 83.117 115 82.002 115C80.882 115 80 114.12 80 113C80 111.883 80.883 111 82.002 111V111ZM88 114V116H98V114H88ZM78 118V126H80V120H83V126H85V120.658L87.064 121.75C87.649 122.06 88.352 122.059 88.936 121.75V121.752L92.466 119.885L91.533 118.115L88.002 119.982L84.906 118.348C84.4739 118.12 83.9927 118 83.504 118H78Z" fill="#374151"/>
</g>
<g filter="url(#filter4_dd_22_309)">
<rect x="58" y="626" width="304" height="45" rx="20" fill="url(#paint2_linear_22_309)"/>
<path d="M133 654.3V656H122.88V654.38L127.24 650.54C128.093 649.793 128.747 649.167 129.2 648.66C129.667 648.14 129.993 647.667 130.18 647.24C130.38 646.813 130.48 646.36 130.48 645.88C130.48 645.12 130.2 644.533 129.64 644.12C129.093 643.707 128.373 643.5 127.48 643.5C126.093 643.5 124.987 644.007 124.16 645.02L123.2 643.5C123.8 642.873 124.467 642.433 125.2 642.18C125.947 641.927 126.76 641.8 127.64 641.8C129.093 641.8 130.293 642.127 131.24 642.78C132.187 643.42 132.66 644.44 132.66 645.84C132.66 647.453 131.74 649.073 129.9 650.7L125.84 654.3H133ZM139.915 656.24C138.875 656.24 137.928 656.093 137.075 655.8C136.222 655.493 135.475 654.953 134.835 654.18L136.075 652.92C136.542 653.547 137.095 653.973 137.735 654.2C138.388 654.427 139.108 654.54 139.895 654.54C140.962 654.54 141.788 654.293 142.375 653.8C142.975 653.307 143.275 652.607 143.275 651.7C143.275 650.713 142.968 649.987 142.355 649.52C141.742 649.053 140.828 648.82 139.615 648.82C138.775 648.82 137.835 648.953 136.795 649.22L135.635 647.9L136.215 642H144.635V643.7H137.975L137.655 647.28C138.202 647.147 138.862 647.08 139.635 647.08C141.528 647.08 142.968 647.473 143.955 648.26C144.955 649.047 145.455 650.193 145.455 651.7C145.455 653.127 144.962 654.24 143.975 655.04C143.002 655.84 141.648 656.24 139.915 656.24ZM156.729 656H154.489L153.609 652.78C153.489 652.34 153.303 652.02 153.049 651.82C152.809 651.62 152.416 651.493 151.869 651.44L150.329 653V656H148.149V643.9C148.149 643.58 148.089 643.32 147.969 643.12C147.849 642.92 147.629 642.693 147.309 642.44L148.769 641.18C149.356 641.473 149.763 641.82 149.989 642.22C150.216 642.607 150.329 643.153 150.329 643.86V650.34L153.989 646.6H156.649L153.429 649.86C154.069 649.993 154.569 650.287 154.929 650.74C155.289 651.193 155.596 651.873 155.849 652.78L156.729 656ZM172.324 652.32H166.584L165.484 656H163.124L166.624 644.66C166.851 643.913 167.084 643.333 167.324 642.92C167.577 642.507 167.871 642.213 168.204 642.04C168.537 641.853 168.957 641.76 169.464 641.76C169.957 641.76 170.371 641.853 170.704 642.04C171.037 642.213 171.331 642.507 171.584 642.92C171.837 643.333 172.077 643.913 172.304 644.66L175.784 656H173.424L172.324 652.32ZM171.804 650.56L170.064 644.7C169.984 644.433 169.897 644.24 169.804 644.12C169.724 644 169.611 643.94 169.464 643.94C169.317 643.94 169.197 644 169.104 644.12C169.011 644.24 168.924 644.433 168.844 644.7L167.104 650.56H171.804ZM181.166 656.24C179.806 656.24 178.759 655.927 178.026 655.3C177.292 654.673 176.926 653.773 176.926 652.6V650C176.926 648.84 177.292 647.947 178.026 647.32C178.772 646.68 179.819 646.36 181.166 646.36C182.832 646.36 184.052 646.887 184.826 647.94L183.326 649.16C182.992 648.76 182.666 648.48 182.346 648.32C182.039 648.147 181.646 648.06 181.166 648.06C180.512 648.06 180.006 648.233 179.646 648.58C179.286 648.913 179.106 649.387 179.106 650V652.6C179.106 653.227 179.279 653.707 179.626 654.04C179.986 654.373 180.499 654.54 181.166 654.54C181.659 654.54 182.066 654.46 182.386 654.3C182.719 654.127 183.039 653.847 183.346 653.46L184.846 654.68C184.459 655.2 183.972 655.593 183.386 655.86C182.799 656.113 182.059 656.24 181.166 656.24ZM188.96 648.3V652.74C188.96 653.313 189.06 653.727 189.26 653.98C189.46 654.233 189.787 654.36 190.24 654.36H191.68V656.04H190.24C188.987 656.04 188.093 655.793 187.56 655.3C187.04 654.793 186.78 653.94 186.78 652.74V644.9C186.78 644.58 186.72 644.32 186.6 644.12C186.48 643.92 186.26 643.693 185.94 643.44L187.4 642.16C187.987 642.467 188.393 642.82 188.62 643.22C188.847 643.607 188.96 644.153 188.96 644.86V646.6H191.68V648.3H188.96ZM194.797 645.06C194.437 645.06 194.123 644.933 193.857 644.68C193.603 644.413 193.477 644.1 193.477 643.74C193.477 643.393 193.603 643.093 193.857 642.84C194.123 642.573 194.437 642.44 194.797 642.44C195.143 642.44 195.443 642.573 195.697 642.84C195.963 643.093 196.097 643.393 196.097 643.74C196.097 644.1 195.963 644.413 195.697 644.68C195.443 644.933 195.143 645.06 194.797 645.06ZM195.277 656.24C194.69 655.933 194.277 655.58 194.037 655.18C193.81 654.78 193.697 654.233 193.697 653.54V646.6H195.877V653.5C195.877 653.82 195.937 654.08 196.057 654.28C196.177 654.48 196.397 654.707 196.717 654.96L195.277 656.24ZM202.448 656.24C201.821 656.24 201.321 656.08 200.948 655.76C200.574 655.427 200.274 654.88 200.048 654.12L197.708 646.6H199.828L202.028 653.92C202.108 654.173 202.168 654.34 202.208 654.42C202.261 654.5 202.341 654.54 202.448 654.54C202.541 654.54 202.614 654.5 202.668 654.42C202.734 654.327 202.801 654.16 202.868 653.92L205.048 646.6H207.148L204.848 654.12C204.621 654.88 204.321 655.427 203.948 655.76C203.588 656.08 203.088 656.24 202.448 656.24ZM212.436 654.56C212.956 654.56 213.39 654.493 213.736 654.36C214.096 654.213 214.456 653.967 214.816 653.62L216.116 654.82C215.716 655.287 215.216 655.64 214.616 655.88C214.016 656.12 213.276 656.24 212.396 656.24C210.956 656.24 209.89 655.947 209.196 655.36C208.503 654.76 208.156 653.847 208.156 652.62V649.7C208.156 648.673 208.516 647.867 209.236 647.28C209.97 646.68 210.97 646.38 212.236 646.38C213.53 646.38 214.536 646.7 215.256 647.34C215.976 647.967 216.336 648.873 216.336 650.06C216.336 650.607 216.283 651.033 216.176 651.34C216.07 651.647 215.876 651.873 215.596 652.02C215.316 652.153 214.903 652.22 214.356 652.22H210.316V652.62C210.316 653.913 211.023 654.56 212.436 654.56ZM212.216 648.04C211.63 648.04 211.163 648.207 210.816 648.54C210.483 648.873 210.316 649.313 210.316 649.86V650.72H213.176C213.55 650.72 213.81 650.66 213.956 650.54C214.103 650.407 214.176 650.18 214.176 649.86C214.176 649.273 214.003 648.827 213.656 648.52C213.323 648.2 212.843 648.04 212.216 648.04ZM228.51 656.24C227.59 656.24 226.81 656.147 226.17 655.96C225.543 655.76 225.003 655.473 224.55 655.1C224.097 654.727 223.637 654.233 223.17 653.62L224.77 652.28C225.317 653.04 225.863 653.58 226.41 653.9C226.97 654.22 227.663 654.38 228.49 654.38C229.61 654.38 230.443 654.2 230.99 653.84C231.537 653.48 231.81 652.927 231.81 652.18C231.81 651.767 231.69 651.433 231.45 651.18C231.223 650.913 230.817 650.687 230.23 650.5C229.657 650.3 228.797 650.08 227.65 649.84C226.343 649.573 225.37 649.107 224.73 648.44C224.09 647.773 223.77 646.887 223.77 645.78C223.77 644.967 223.977 644.26 224.39 643.66C224.803 643.047 225.39 642.58 226.15 642.26C226.91 641.927 227.803 641.76 228.83 641.76C230.083 641.76 231.103 641.953 231.89 642.34C232.69 642.727 233.323 643.3 233.79 644.06L232.23 645.34C231.71 644.74 231.197 644.307 230.69 644.04C230.197 643.76 229.57 643.62 228.81 643.62C227.957 643.62 227.297 643.813 226.83 644.2C226.363 644.573 226.13 645.107 226.13 645.8C226.13 646.427 226.39 646.907 226.91 647.24C227.43 647.56 228.15 647.82 229.07 648.02C230.257 648.26 231.203 648.527 231.91 648.82C232.617 649.1 233.17 649.507 233.57 650.04C233.97 650.573 234.17 651.287 234.17 652.18C234.17 654.887 232.283 656.24 228.51 656.24ZM238.608 648.3V652.74C238.608 653.313 238.708 653.727 238.908 653.98C239.108 654.233 239.435 654.36 239.888 654.36H241.328V656.04H239.888C238.635 656.04 237.742 655.793 237.208 655.3C236.688 654.793 236.428 653.94 236.428 652.74V644.9C236.428 644.58 236.368 644.32 236.248 644.12C236.128 643.92 235.908 643.693 235.588 643.44L237.048 642.16C237.635 642.467 238.042 642.82 238.268 643.22C238.495 643.607 238.608 644.153 238.608 644.86V646.6H241.328V648.3H238.608ZM251.58 653.48C251.58 653.8 251.64 654.067 251.76 654.28C251.88 654.48 252.107 654.7 252.44 654.94L250.98 656.2C250.54 655.973 250.207 655.733 249.98 655.48C249.754 655.213 249.594 654.893 249.5 654.52C249.194 655.053 248.794 655.473 248.3 655.78C247.807 656.087 247.207 656.24 246.5 656.24C245.474 656.24 244.68 655.96 244.12 655.4C243.56 654.827 243.28 654.013 243.28 652.96V646.6H245.46V652.78C245.46 653.327 245.607 653.76 245.9 654.08C246.194 654.387 246.607 654.54 247.14 654.54C247.7 654.54 248.167 654.347 248.54 653.96C248.914 653.573 249.2 653.06 249.4 652.42V646.6H251.58V653.48ZM263.195 653.5C263.195 653.82 263.255 654.08 263.375 654.28C263.495 654.48 263.715 654.707 264.035 654.96L262.595 656.24C261.875 655.867 261.408 655.333 261.195 654.64C260.848 655.173 260.415 655.573 259.895 655.84C259.388 656.107 258.768 656.24 258.035 656.24C256.782 656.24 255.782 655.827 255.035 655C254.302 654.16 253.935 653.033 253.935 651.62V650.98C253.935 650.113 254.095 649.333 254.415 648.64C254.735 647.933 255.202 647.38 255.815 646.98C256.428 646.567 257.168 646.36 258.035 646.36C259.355 646.36 260.348 646.793 261.015 647.66V643.9C261.015 643.58 260.955 643.32 260.835 643.12C260.715 642.92 260.495 642.693 260.175 642.44L261.635 641.18C262.222 641.487 262.628 641.84 262.855 642.24C263.082 642.627 263.195 643.167 263.195 643.86V653.5ZM261.015 649.88C260.655 648.667 259.855 648.06 258.615 648.06C257.828 648.06 257.215 648.34 256.775 648.9C256.335 649.447 256.115 650.14 256.115 650.98V651.62C256.115 652.46 256.335 653.16 256.775 653.72C257.215 654.267 257.828 654.54 258.615 654.54C259.855 654.54 260.655 653.933 261.015 652.72V649.88ZM269.819 654.56C270.339 654.56 270.772 654.493 271.119 654.36C271.479 654.213 271.839 653.967 272.199 653.62L273.499 654.82C273.099 655.287 272.599 655.64 271.999 655.88C271.399 656.12 270.659 656.24 269.779 656.24C268.339 656.24 267.272 655.947 266.579 655.36C265.886 654.76 265.539 653.847 265.539 652.62V649.7C265.539 648.673 265.899 647.867 266.619 647.28C267.352 646.68 268.352 646.38 269.619 646.38C270.912 646.38 271.919 646.7 272.639 647.34C273.359 647.967 273.719 648.873 273.719 650.06C273.719 650.607 273.666 651.033 273.559 651.34C273.452 651.647 273.259 651.873 272.979 652.02C272.699 652.153 272.286 652.22 271.739 652.22H267.699V652.62C267.699 653.913 268.406 654.56 269.819 654.56ZM269.599 648.04C269.012 648.04 268.546 648.207 268.199 648.54C267.866 648.873 267.699 649.313 267.699 649.86V650.72H270.559C270.932 650.72 271.192 650.66 271.339 650.54C271.486 650.407 271.559 650.18 271.559 649.86C271.559 649.273 271.386 648.827 271.039 648.52C270.706 648.2 270.226 648.04 269.599 648.04ZM280.924 646.36C281.938 646.36 282.711 646.647 283.244 647.22C283.791 647.78 284.064 648.573 284.064 649.6V656H281.884V649.82C281.884 649.273 281.744 648.847 281.464 648.54C281.198 648.22 280.818 648.06 280.324 648.06C279.751 648.06 279.278 648.247 278.904 648.62C278.531 648.98 278.244 649.46 278.044 650.06V656H275.864V649.1C275.864 648.78 275.804 648.52 275.684 648.32C275.564 648.12 275.344 647.893 275.024 647.64L276.484 646.36C276.911 646.587 277.238 646.833 277.464 647.1C277.691 647.353 277.851 647.66 277.944 648.02C278.224 647.513 278.618 647.113 279.124 646.82C279.631 646.513 280.231 646.36 280.924 646.36ZM288.725 648.3V652.74C288.725 653.313 288.825 653.727 289.025 653.98C289.225 654.233 289.552 654.36 290.005 654.36H291.445V656.04H290.005C288.752 656.04 287.859 655.793 287.325 655.3C286.805 654.793 286.545 653.94 286.545 652.74V644.9C286.545 644.58 286.485 644.32 286.365 644.12C286.245 643.92 286.025 643.693 285.705 643.44L287.165 642.16C287.752 642.467 288.159 642.82 288.385 643.22C288.612 643.607 288.725 644.153 288.725 644.86V646.6H291.445V648.3H288.725ZM296.478 656.24C295.504 656.24 294.751 656.107 294.218 655.84C293.698 655.56 293.211 655.12 292.758 654.52L294.118 653.36C294.491 653.8 294.844 654.107 295.178 654.28C295.511 654.453 295.944 654.54 296.478 654.54C297.131 654.54 297.611 654.447 297.918 654.26C298.224 654.073 298.378 653.787 298.378 653.4C298.378 653.16 298.304 652.967 298.158 652.82C298.024 652.66 297.771 652.52 297.398 652.4C297.038 652.28 296.511 652.16 295.818 652.04C293.951 651.693 293.018 650.72 293.018 649.12C293.018 648.267 293.344 647.593 293.998 647.1C294.664 646.607 295.551 646.36 296.658 646.36C298.324 646.36 299.484 646.887 300.138 647.94L298.798 649.08C298.464 648.72 298.138 648.46 297.818 648.3C297.498 648.14 297.111 648.06 296.658 648.06C296.151 648.06 295.758 648.16 295.478 648.36C295.211 648.56 295.078 648.833 295.078 649.18C295.078 649.513 295.231 649.773 295.538 649.96C295.844 650.133 296.264 650.273 296.798 650.38C297.638 650.567 298.311 650.767 298.818 650.98C299.324 651.18 299.724 651.48 300.018 651.88C300.311 652.267 300.458 652.787 300.458 653.44C300.458 655.307 299.131 656.24 296.478 656.24Z" fill="#374151"/>
<path d="M80 661C80 661 78 661 78 659C78 657 80 651 90 651C100 651 102 657 102 659C102 661 100 661 100 661H80ZM90 649C91.5913 649 93.1174 648.368 94.2426 647.243C95.3679 646.117 96 644.591 96 643C96 641.409 95.3679 639.883 94.2426 638.757C93.1174 637.632 91.5913 637 90 637C88.4087 637 86.8826 637.632 85.7574 638.757C84.6321 639.883 84 641.409 84 643C84 644.591 84.6321 646.117 85.7574 647.243C86.8826 648.368 88.4087 649 90 649V649Z" fill="#374151"/>
</g>
<defs>
<filter id="filter0_d_22_309" x="520.688" y="589.226" width="445.071" height="33.3125" filterUnits="userSpaceOnUse" color-interpolation-filters="sRGB">
<feFlood flood-opacity="0" result="BackgroundImageFix"/>
<feColorMatrix in="SourceAlpha" type="matrix" values="0 0 0 0 0 0 0 0 0 0 0 0 0 0 0 0 0 0 127 0" result="hardAlpha"/>
<feOffset dy="4"/>
<feGaussianBlur stdDeviation="2"/>
<feComposite in2="hardAlpha" operator="out"/>
<feColorMatrix type="matrix" values="0 0 0 0 0.0235294 0 0 0 0 0.12549 0 0 0 0 0.247059 0 0 0 0.25 0"/>
<feBlend mode="normal" in2="BackgroundImageFix" result="effect1_dropShadow_22_309"/>
<feBlend mode="normal" in="SourceGraphic" in2="effect1_dropShadow_22_309" result="shape"/>
</filter>
<filter id="filter1_d_22_309" x="686.46" y="298.199" width="144.292" height="310.198" filterUnits="userSpaceOnUse" color-interpolation-filters="sRGB">
<feFlood flood-opacity="0" result="BackgroundImageFix"/>
<feColorMatrix in="SourceAlpha" type="matrix" values="0 0 0 0 0 0 0 0 0 0 0 0 0 0 0 0 0 0 127 0" result="hardAlpha"/>
<feOffset dy="4"/>
<feGaussianBlur stdDeviation="2"/>
<feComposite in2="hardAlpha" operator="out"/>
<feColorMatrix type="matrix" values="0 0 0 0 0.0235294 0 0 0 0 0.12549 0 0 0 0 0.247059 0 0 0 0.25 0"/>
<feBlend mode="normal" in2="BackgroundImageFix" result="effect1_dropShadow_22_309"/>
<feBlend mode="normal" in="SourceGraphic" in2="effect1_dropShadow_22_309" result="shape"/>
</filter>
<filter id="filter2_dd_22_309" x="0" y="339" width="272" height="69" filterUnits="userSpaceOnUse" color-interpolation-filters="sRGB">
<feFlood flood-opacity="0" result="BackgroundImageFix"/>
<feColorMatrix in="SourceAlpha" type="matrix" values="0 0 0 0 0 0 0 0 0 0 0 0 0 0 0 0 0 0 127 0" result="hardAlpha"/>
<feOffset dx="4"/>
<feGaussianBlur stdDeviation="5"/>
<feComposite in2="hardAlpha" operator="out"/>
<feColorMatrix type="matrix" values="0 0 0 0 0.0235294 0 0 0 0 0.12549 0 0 0 0 0.247059 0 0 0 0.25 0"/>
<feBlend mode="normal" in2="BackgroundImageFix" result="effect1_dropShadow_22_309"/>
<feColorMatrix in="SourceAlpha" type="matrix" values="0 0 0 0 0 0 0 0 0 0 0 0 0 0 0 0 0 0 127 0" result="hardAlpha"/>
<feOffset dy="4"/>
<feGaussianBlur stdDeviation="5"/>
<feComposite in2="hardAlpha" operator="out"/>
<feColorMatrix type="matrix" values="0 0 0 0 0.0235294 0 0 0 0 0.12549 0 0 0 0 0.247059 0 0 0 0.25 0"/>
<feBlend mode="normal" in2="effect1_dropShadow_22_309" result="effect2_dropShadow_22_309"/>
<feBlend mode="normal" in="SourceGraphic" in2="effect2_dropShadow_22_309" result="shape"/>
</filter>
<filter id="filter3_dd_22_309" x="48" y="83" width="328" height="69" filterUnits="userSpaceOnUse" color-interpolation-filters="sRGB">
<feFlood flood-opacity="0" result="BackgroundImageFix"/>
<feColorMatrix in="SourceAlpha" type="matrix" values="0 0 0 0 0 0 0 0 0 0 0 0 0 0 0 0 0 0 127 0" result="hardAlpha"/>
<feOffset dx="4"/>
<feGaussianBlur stdDeviation="5"/>
<feComposite in2="hardAlpha" operator="out"/>
<feColorMatrix type="matrix" values="0 0 0 0 0.0235294 0 0 0 0 0.12549 0 0 0 0 0.247059 0 0 0 0.25 0"/>
<feBlend mode="normal" in2="BackgroundImageFix" result="effect1_dropShadow_22_309"/>
<feColorMatrix in="SourceAlpha" type="matrix" values="0 0 0 0 0 0 0 0 0 0 0 0 0 0 0 0 0 0 127 0" result="hardAlpha"/>
<feOffset dy="4"/>
<feGaussianBlur stdDeviation="5"/>
<feComposite in2="hardAlpha" operator="out"/>
<feColorMatrix type="matrix" values="0 0 0 0 0.0235294 0 0 0 0 0.12549 0 0 0 0 0.247059 0 0 0 0.25 0"/>
<feBlend mode="normal" in2="effect1_dropShadow_22_309" result="effect2_dropShadow_22_309"/>
<feBlend mode="normal" in="SourceGraphic" in2="effect2_dropShadow_22_309" result="shape"/>
</filter>
<filter id="filter4_dd_22_309" x="48" y="616" width="328" height="69" filterUnits="userSpaceOnUse" color-interpolation-filters="sRGB">
<feFlood flood-opacity="0" result="BackgroundImageFix"/>
<feColorMatrix in="SourceAlpha" type="matrix" values="0 0 0 0 0 0 0 0 0 0 0 0 0 0 0 0 0 0 127 0" result="hardAlpha"/>
<feOffset dx="4"/>
<feGaussianBlur stdDeviation="5"/>
<feComposite in2="hardAlpha" operator="out"/>
<feColorMatrix type="matrix" values="0 0 0 0 0.0235294 0 0 0 0 0.12549 0 0 0 0 0.247059 0 0 0 0.25 0"/>
<feBlend mode="normal" in2="BackgroundImageFix" result="effect1_dropShadow_22_309"/>
<feColorMatrix in="SourceAlpha" type="matrix" values="0 0 0 0 0 0 0 0 0 0 0 0 0 0 0 0 0 0 127 0" result="hardAlpha"/>
<feOffset dy="4"/>
<feGaussianBlur stdDeviation="5"/>
<feComposite in2="hardAlpha" operator="out"/>
<feColorMatrix type="matrix" values="0 0 0 0 0.023559 0 0 0 0 0.126147 0 0 0 0 0.245833 0 0 0 0.25 0"/>
<feBlend mode="normal" in2="effect1_dropShadow_22_309" result="effect2_dropShadow_22_309"/>
<feBlend mode="normal" in="SourceGraphic" in2="effect2_dropShadow_22_309" result="shape"/>
</filter>
<linearGradient id="paint0_linear_22_309" x1="10" y1="349" x2="253.776" y2="410.69" gradientUnits="userSpaceOnUse">
<stop stop-color="#FFFBFB" stop-opacity="0.6"/>
<stop offset="1" stop-color="white" stop-opacity="0.6"/>
</linearGradient>
<linearGradient id="paint1_linear_22_309" x1="58" y1="93" x2="348.049" y2="182.974" gradientUnits="userSpaceOnUse">
<stop stop-color="#FFFBFB" stop-opacity="0.6"/>
<stop offset="1" stop-color="white" stop-opacity="0.6"/>
</linearGradient>
<linearGradient id="paint2_linear_22_309" x1="58" y1="626" x2="348.049" y2="715.974" gradientUnits="userSpaceOnUse">
<stop stop-color="#FFFBFB" stop-opacity="0.6"/>
<stop offset="1" stop-color="white" stop-opacity="0.6"/>
</linearGradient>
</defs>
</svg>
